<mxfile host="65bd71144e">
    <diagram id="2kDTAfi_y4Vw4e_roQgL" name="Page-1">
        <mxGraphModel dx="3910" dy="2570" grid="0" gridSize="10" guides="1" tooltips="1" connect="1" arrows="1" fold="1" page="1" pageScale="1" pageWidth="4681" pageHeight="3300" math="0" shadow="0">
            <root>
                <mxCell id="0"/>
                <mxCell id="1" parent="0"/>
                <mxCell id="23" value="" style="shape=image;verticalLabelPosition=bottom;labelBackgroundColor=default;verticalAlign=top;aspect=fixed;imageAspect=0;image=data:image/png,iVBORw0KGgoAAAANSUhEUgAAAwIAAADsCAIAAABIeIaAAAAgAElEQVR4Ae2dTY8dt5rfe2Fc6RPYn0Pw6gDWWkvfrZa+iyNopfVcWP4C7XssD6yJcRNAyiQBHMEZJFed0xho4I6CmUackSfJwopQLaTzYgnT9zacWHECJx6kArL4kA/Jhy9Vp877/6DRp17Ihw9/rCL/h2SxDlp8QAAEQAAEQAAEQGAvCRzsZa6RaRAAARAAARAAARBoIYNwEYAACIAACIAACOwpAcigPS14ZBsEQAAEQAAEQAAyCNcACIAACIAACIDAnhKADNrTgke2QQAEQAAEQAAEIINwDYAACIAACIAACOwpAcigPS14ZBsEQAAEQAAEQAAyCNcACIAACIAACIDAnhKADNrTgke2QQAEQAAEQAAEIINwDYAACIAACIAACOwpAcigPS14ZBsEQAAEQAAEQAAyCNcACIAACIAACIDAnhKADNrTgke2QQAEQAAEQAAEIINwDYAACIAACIAACOwpAcigPS14ZBsEQAAEQAAEQAAyCNcACIAACIAACIDAnhKADNrTgke2QQAEQAAEQAAEIINwDYAACIAACIAACOwpgS2VQW+ap6/n7u9Nc76n5beP2T47Pj7ex3yHeVYczsKD2AcBEAABEOhDoJcMej299ruDdx+rv7uv+6QyYtg3s7snxofOE/v/2snk7uud0EPfTj/4o4Nf/Vr9ff7tiOwEU998YRLqkrP/P/h09koIvu5DZ8e3r1+9evXK9Xto/49vX7l69er12/eghdZ9WSJ9EACBLSawXTKI6TCrfqKNyYN1SbSxrgPIIInk2b3rV1TD331u73mHEKNx5cr125BC0iWDYyAAAiBQJLBNMmh+l/qimPSZ2A6q7uC1k9nWD5CtUAa9+mr60acT2/k0Vm/Qq29nn38x7f4eXxSvwmKAs+PbpH/M9553CHVdQZwJOsiKVxECgAAIgEBMYItkkNcVpMa/WG6a89dmsGxto3XMm0U3VyiDmKvNq4vZRzQYt+Cg2KuvnLRaeFzv7J4aCOMf9H607dnxvdu8e0wPkO15Fxm7mrEJAiAAAnUEtkcGnb9wHT83X3AN5HJ6/kY+7kJsxdZ6ZFDbtvPPN04GBf1AVza2F6iZz6b2M1vRdajmSrmBQiihrbi94SQIgMBGEdhKGTR58GajII7tDGQQEWUzYPTM6A2eEdTMJgf2M51TDpb/rRh5XWWYPr586EgBBEBgZwhABm1gUUIGdYVyfJvNib5yZYM1kOpJm1oRdDBZVW+QuXg9JbS5HWYbeKvBJRAAgb0nsHwZdP6GLfDzen4+tCOHDYptQG/QRfPq2/k3/O9ivHEQyCB1X/JZwAs37U3TzP1PM6y8fDvOSO/OIN/Q3FkaVif5khHzpYdRRCwQAIH9IyDKoDfzB88mN91jWZObz7R8YZOUyzORtZHgMS56wiuY4FyFfRNkkHoASnquyj5g9dGn02/qH4y6mD/+YmJnJf/q15OPvpi/umjbogxiAT76KtOcN48/NcsC1U15Hjg3iE+ItiiKG/mp0/5w2MBmXc3XmbCxKtdfY7Ymk+k8w49fmM18mrA0mc5m/Fy+L0j7FDnSHaj3hntmtn1iA7rOzmjONWagC3hxCARAYEcJhDKoefDMzUQm1dItVzi5y07lZdD5iylTUanVDvs92b5uGTT/nCRFqYGfVDwi3jz+wj1L5RucfM5OyVph92WQ1xU0SAQlVUskQfKyRd34XldPFN87kFUyjSeXvHhup+xOqi5aBFrwON6Gj0CmCOA4CIAACPQlwGXQG3FhHlnEZGQQ0ys8rqCuEmv8NA8S60T7sowbV9vXni15XioTHyRceF8OX455+k2mIC5cpwvZ4XG97T2VQd4Qz4CODU2fz9YxKiPVNZSb0ixrIKlnKC9gZDsH/Q2lLy3WIdRzGNGbXaRmo0MHpTHjDAiAwC4RcDIoFB83T6YPXnTTema8H6jTIkkZxAbO3n18cPPZ7Kk/Gej89fQmUzmSdgk9yasfe1YyNXJRffPF5KMvZo+/baIXTTTfsJVysi/BcANVnQb66NPp46+6aUYz3g/Und0KGdRe+NOkvlWDfXZJxo9M7sIwavgv8WGLJS70gPx8OlEjVsLEm2bOH+w6OEjqIF9LTaYzbxAtHClLmvFmUB8chHbaVlniiihtKcGsO8w7hPp0okEGZbHiJAiAwO4SIBnEu3CunUwD7aLy/2bOO2kSMshTMKnVfdqWB4vnO/OzYZePFT3xxgpkUP464O/nSk3Z4dNoPhAnEl3M7YSepJxi/VKphLSrTnItdW5QjIVnU1ZycRx3ZGhb7ixUbXGFk+rIqQjT1IThoiuVlj/4lg6VzdxQBYlBsSxWnAQBENhZAkYG8eGw6dNUbllPjyyDWICSKHEpxmrpnL89nrbZpKXJXdNN5T2D9nTtayeW1QkfDksPnDE7soZgAXZQBnk9E0NHxFLXMD/O9EtCdJRDaHulYOx8ut+p88wFTbjEMyBse+Ni/eBhirTAE4dAAAR2nYCWQbwrKBYlDgFTOaIMevrMdt6ktRSZs4ETM4QoHH0zJ+MOJAq03u+SOuF9JDn5wuzsowxyE4N6TnDpW/pOciRW+uHTeXKjVIVwLJ2clc59F3iYDloZvb60ER4EQAAENpGAlkFWkbz7OKswCjLIDWZVKRtnrayZ2rbdIBl00Xzz1fTzT1Pzo9UcZ1HlsFGz7NNkkEFmWeSRJuo2+kUXE2/ujXsyS2/JkoPJGzkA3dJOuwi9PdVWOmvOVlkzUfrse2V9aSxNbIIACIDA1hJQMqhavjjhciD1BrlxrtKImMblrGW1F6HdCBl0UfvYvCSDqmfq7LcMWmBYh64V+x1OYQ7Ej9uVVQ4TMIK8sal4D9TH2sXpmqwRMueCy05RuMQ3ZFACDA6DAAiAgERAySAmX06ya/k44VKQQfH85eyR7ZBBfEir+KC7JIPcxKDChGXIoDF6g7iGcXonsZVQHJ6N1EqLQaDoNnO6JpF46nDCqSgB7wBkkIcDOyAAAiCQJxDIoPzSO8uSQdswKMakiX3Q/fOvZt77NNgz8wUZ9EV2iSOW1r7PDeo3yZdd65H2mEym6tl5/mGPbyUVh29HP+julp3Wo238MXexu8c3kdI8wvG4Y4llMLXpZNCSZ1alHMBxEAABENgmAhsgg6omEq15bpDryNHzfubRukG6zJl8gQyy6wbJSi5zk4wwyddTHhN/rR+XMguVlEH+U+yCVuGHZN3CkuGBi9sZn1weoq0R6EU2cQAEQAAEdpbAkuYGnUwf0IPuT4sbdQ+6r3NuUEHf0NVRCIa5QQQq/+36M65evTqoO4gJj5yWqAymlBB/Z5isX9Jv0eDJTP3+KN43FW0PetuqgjfGkGK+iHAWBEAABHaFgJJB7ehPir37uGqcqxfENcogNisovdhP670SVeoNapfxpNgHufG1auFlSsJ1ehVmL5VKjhE76N0b1PKl/Ia81IFN1pH7Zyi7U6tocmopWuHZxuo24iWhfTzMHXHQzA+92N6i6BZLHbFBAARAYOsIaBnUskk/i6wbxJSKOId6ITrMeNWU6oUS8yNb+VIQB4XeoLJOMskyO7KGYAF2UQa1fCnkATrIdb9k1Q1/wUUyINcwB3p+keu1aSr7a7iNrC7zL7sBe15HWp+XaQxIC1FAAARAYBcIdDKIPSyWWzqIqSXpgfm2fTOzL5avnPFTz3CNMoj1beR6g6xaSq0b1Lauu+VXv04vHcRUjiyDLmYf/ZF9A2vaJfZ4f0HAmWJw7tWFT5YeIzagN6ht3QSXq1ev9m7OmezIqQ6nlg4SyyfyJ+EnOVNJEN0J5lAqpYKFutOefOyNDatI11FGKBAAgZ0iYGQQX5zwQH6nWNvyTiNZBnnjawfjKqE1yqC2qEva9hv2MtG0DGq5PpDfKeYPrskyyJNTss549e2USaWDX/06rZbcBe0G0ZKvM3OBs1uM2AdfJGaU5wx4gzu9O4SYwEmJl7k/2yfRG8QMHSRnWufyQee4oWUpIa8rqC8zDly9YX7QnCzKLb5BAARAYGsIkAziiyjqNX4md1835342zl9Mr/3OvC7j2kn46ngTlnUIGTsv5uf+S+bbN83T17O7J5Nrv+sxdrZOGeTLjo++8tt11uli1xNK96Z4UuNXv558Hr2v/tVXU/uY1Qefzr6R3sTOe56UxGFhXn07+/xT21fkNj7/1j3p7Res2/PNTj76wl8R4Ns5T8hFi7e8/qqDDz6dPo7eMy8/bWdNeR1CfVvlQHV4b4XXU32C6T2p7iDejRNFoQOTSTdYlsUbWgoevdfZbpr5fNa9aD6l3iyeaIPrmP6PynsSSsmgvsQjf3AABEAABLaCgJNBeh3FE/tSMLsxseNc8RKIcn/P62kiitI9gZGq9aY1ybXKIK8Xh7RO7mUaXZjExB1xKeqcNUFUse4W8scpHjoy+dzvo8qNxHWXa8msOPVbutIDtSf49phJN8kCb9d7PzIWqg4lWXIv0zCSRlAfQbcRaR/5O/24mLq9/A4oZ8FbeSjtiQSJjrEHxAb15UAGEUl8gwAI7BkBTwZ5L9YI9Iq4K8ugVk0SuisoqlADaZu1853XK4PaaNiLpIZr4NUgF+vI+dWvDxIySHF+LHXYxDa7I4IMUv64pOOINOIWJJSekEQXft5stQxqW79DKPKw7Il6Ysw8+637J3pOdkmqDqs/JtP5zD0spg4LMkgVluqjsbFKG4nxNc235sl7Yz9nhsrKfJ/5PWeDOnIC0TnIRuAWdkEABEBgCwiEMki5fK5GrETJcnDzZHr3mevUScogZaZ5+iLVLaSMXzsRxt0yxNYug9q2TY03qbEtGil79ZWblJOWQSqjaWsHH3065R05ogxq2yaYkESaafrYG//inU8V4qNVL4715xU5vdVDBrVtq4YLJ3aAz1dCNZ4Ec6WvXLneb8pKWr+4h9w9ZSLLIHtVNmrYKvzMZtNAJOUVTNqpTgBNVJdSdoDN+qM2gn6gKz3FIrOFKdIMBjZBAAT2hYAkgyjvjbfyob/I4fmbuT4bzh+iuOz7TXPur6B47ptiQXObmyCDjH8XDX+HxitpcOfVt3MdpqY586x9c+FFeXVh7KRn0jSU1vybaJqRA0o+i966YJu35Tfz+sGx47N+bvriRZQYJG88+L1S4cNweR1kzEaaqvb5e+fW2fFtu1jiVf3pJxOdJWyBAAiAwJ4SyMmgzULCZND4azNuVlbhjU8gUkKqV6inFPItLmWPzcsu9CqNkPzZ8b3b1zvpY/9vIpQRsgoTIAACILBEAtsjg9hS15BBS7wiNtO07vew7f2gWcDDMqaGsGZ1fUSrlEHhVJ6+w4XDYCAWCIAACOwcgW2RQew5/OyEpJ0rIGTIElBzVzol1P+BcGukx0ZjJ1nXDHL1HhTr4YkU1E2L3sy+MclnHAMBEACBjSOwkTKIJh5104/mD/yp1vXP2G8cbTi0KIFuNsxqnmPiwubAzamWstCwnqDUGkRSvEWO6aHC67fvbeDw4CLZQlwQAAEQWCmBjZRBbPxLeGAttYD1SrkhsTUSOFvVvCBPCOnnuPRCie4t8fopseBZ+pquo3HgrYzDOO7CCgiAAAhsIIFtk0EYEdvAi2iXXYqVUH7doKm/YvUuo0HeQAAEQGAHCGyTDJrcfDYP3u+xAyWALGw8ATdJKCuBJrVzqTc+w3AQBEAABPaGwEbKoL2hj4xuEYFGPTQ2nQSv5NAvFJvN0Ae0RSUJV0EABEDAEYAMciywBQIgAAIgAAIgsFcEIIP2qriRWRAAARAAARAAAUcAMsixwBYIgAAIgAAIgMBeEYAM2qviRmZBAARAAARAAAQcAcggxwJbIAACIAACIAACe0UAMmivihuZBQEQAAEQAAEQcAQggxwLbIEACIAACIAACOwVAcigvSpuZBYEQAAEQAAEQMARgAxyLLAFAiAAAiAAAiCwVwQgg/aquJFZEAABEAABEAABRwAyyLHAFgiAAAiAAAiAwF4RgAzaq+JGZkEABEAABEAABBwByCDHAlsgAAIgAAIgAAJ7RQAyaK+KG5kFARAAARAAARBwBCCDHAtsgQAIgAAIgAAI7BUByKC9Km5kFgRAAARAAARAwBGADHIssAUCIAACIAACILBXBCCD9qq4KzN7efpQf45OLytjLB6sWUOaodeXp0cPHx6dnjary3bbtpfN6ZH69Em20Y42lws6SkkfnTYhi+Xvqzyoz8CL7PKyOXq4yit0+URWnQLd5wzjZdMsfFW167mPVk0P6e0MAcignSnKETPSHB0efvzxx4dHUePYHH3c83N4WNXOXZ4+7AxLaSpnhn0OhTwkQTVHJqE+kZLWqk+kaadMXJ4+7AqoCm3KStu2lPTgDFtP4mLTyV6qZlVuWbsSr7w8WB4ulXZ76C6JPANbpsOunyBWIpfMu63atHBMvmxpPjxa5JeANTv4stoqinB26wlABm19EY6fAaoN4wbGipWgecjsVgqRdKOovMnYz5+q02AaISm8/g1zrxK4bI7Ux3X9pGkn7DogfVplpR7Cto2Sjpsr5eRpE4aPHSJo8aWiwxpXxVLoGkvxVJxOe9ko8SNdCQ8ZyyiiY5W/TmrOFi8M2/zXWBsWpuhDRCBzgEqHykB1r2l53fmWKNOMQX2KLolRXS0livMgsAAByKAF4O1qVKrI4lbWVvQPj4qfh716LEyjGDfIrseiIk3nlOlbEuzJpebay4G1v2w2Pmo6YFwqadpxZDWERt1mcnedGIeat5AGJe2c6aLT8TB8ZNw6E18qOiz1NqnTqpH9+OOPKSS1wbTf6kQPWT+E6kk6PTp6aIoy0A11g5fkwMPTy+EfhU/RLuBwl1Dg6oi7o2oLguPly8sFCaSo4JMHXPTwokpGwQkQWDMByKA1F8AGJl/smKmqi1V9qBsP287lsmpqT6Ha7WeH0qCGvLIuts15qakj+4O/KTuWSpq2lAZF71rWqoJQZgivz9fm2jqjkxRaRzO0FfUOkXhNYCZvu9NdYApqUqFd46HZpeILBMShmrlV0UdlyZEDXkNvz1ZuWCPkayKenWnTTXmq+s8zeFgVY8RZXEJBd1mzF4YRf9Uz0GzEpd9HiTLAYRAYQAAyaAC03//lP3DDNIe/+Wff/tQZ+d///hE7fvgPv/4+b3zT7BhvqW3zG0d1MllvCvmklqzQdrg0E5qpnx1jzlbHcR4yrupKv6otKgTKTNzV2eHypaPNm8NuW+JmtIKKfmomaUnBhCx2fS1BBxIVNLdhkmDdNqzceUCViPUngZnKrjvdFYpRJKQtTEyDxezZ4vv4448fPuyG56qbYp573wF+psc2GVlIS0npedkcOFFcslt5jIrA18Ymsh0gU/1zlQYJ1CruI+XSptWfY/lTiRvBRiMAGTQA5cW//q2TOx9/8Tc/Ghs//s0X7vjhb5/+bcH2ptnp3E23bdl6M8irreKrKlGyHLazbAyoyg45ITXwdC78NtouFiKDj2TaSyMFXAhDO04rzq8VTJpSupjCDHb7sYQVLNhS8wqCSsd5bZIgm15olzxllk53Wqfb67ZNC2w8sVnuU3wuuXjLZifGO+AIZSNOZ8ARM0TYuTGq5WpnSLVExUoWVPdWvTpb6X2kXdy0+nMsf4g/vldFADJoAOnXJ587ufOnrs/nf/71P3HH/+Qv/sv/K9jeNDudu+m2rVhvsvz2a8nIsm0IraV+dkw0oYG3Bv0NE3JAo5iJkmk7THZcCEe7e6TK/g96P2yLbn+72yPOmJ+3YK9LWvWvmKbNJW3SolKwSRgLdJwikuGkPLLx1O3gxke0nc44KSRV4GbblX198ZEniW+b5Uxh1Z9yDiaSqz2se1q6dA/5ZKja+GK4/kNyfDZ0oXtTnc4KolXfRxrBptWfY/kjli8OLpEAZNAAuN/9xZ8YuXN4+Nu/vLAW/se//Uf2+L1/efazPZHY2AQ7l92aNUfuY6c28ynJ6iGjPu1uoSWz69WYZOkJoDDJ4rCLTDZq4OVgapDPtka5Wt629/m2IJEKO0xYbItKlguGSYg4SaGMUjZD2cIS5JvWSJeY3e2cIU/8JFR8W+7Wa2OVLCScp8za0zp85yyTgyoXfJTQ5ctG5LnosU18FrJDuaiEXHLPDjaZC4/5drnQKlAms/WqrlfI+KrgGV35fdQlvgn1J8cwlj/cJrZXQQAyaADl//bkM2o+/+QvvnN9Pv/93/wpHf/Nnz3/P0XLG2CHGr98ndhVgrayywfmZ1NtR40p3eguVLkne/t1ydjW3W+DpVKj9j5vUIoZHDPZcW0fWQ4VBo9nn/OKaLosOIs8ZrCtUj+k58tt3C6qWvEulCMmupEs6dQTzpvMOmjNEaVO2uKo6WSB5z5dky5ikI/K3XHsUC4W9aZ7VM7UD/YesVa74lBzwKN56FXZpcxay+NuRIXvnLIX0grvoy71Dag/HYa2bcfyxzOKnRUQgAwaAPk///kfm+rsj+cv/84ZuPyrB1TN/dN/RxOG3OloawPsUDOcrzR1JWiarnzI4Kyt5f28V5lSjetilbvXuEYeWFcTrbiLYCv6jEEXOrNF2bEpmsYv38jQ4IWNxVIwjTQb6mIns5tWiTKzl9JTWKaw4v6AlDwyyVJmJWjGbemUK3T5bDZT3km6theyQ7nIFJGXqLzjzQQ6VI+EmYpC++adVcOIJFVlY+JRymzijhPiFIpPiCEcsreGP6deCMm7FRcqEWd7A+pP50zbtmP54xnFzgoIQAYNgPyf5p+oWuzwcPYv/iPv83FPCrAJQxn7m2YnP85ifxY/PLUTWFIbtLZNXX1HllmDbKjZyp2Plh25j3km/1A+nRrn6haw6WRQjYeSYsgUa/qUzg7/0UxNUZxzbYT6gazKUWsv+k9MF9shHsAqv+IGc4hKJySVlEcm/1R2R41a+9D76J4nlakj77B5jQOLmEZZPjMs4yky9fLC90y/8oOEbCdxmks3Gms5B0tjazjRcpe+ab5nMxuWEg/kbdviq47hRVc7a7uPjCebVn+O5U8EGgeWTAAyaADgl0e/0TLo40f/4X/x6H/7VD9Bdnj499mEIR4g2N40O24WiPDbt8/PYlsp21o+yLm3S5bj+tjaiU9pC6kW2jPv71xaTWO1hR8g3lu4waAMpprY+LjqeiE1QH4aN6Kf3e44F1g2Gzy/cULiEc8OOR/pgAL8ruy0KRNSTIsf7K46FtFmYsjGgIxzZ4LtxBWYcSwSQKqTp5uMborM46wsZaJkElKnbGar7jidVrc4e+RDISE6vY77iNKm702rP8fyh/KH71URgAwaQLp53C0M+I//+gcvtnlS4NCbMOSF8Hc2zU62QaVWOWoO/Tzpva5Srq1hyXJcgxcq92QLLbikD3l1d/UkDGrva3IupkwZDFrWyl3XANv8Bp7Qcd3ZEHSB6bdcCs8B0eitWpgn/rCiIOedG10eKdHAFwuAroGjhkIW89uZsoVeDE8C0abpbwxfNlqI6ZvO73U9O45w1LWTv6KEMbLSfCGFWPdPh6WUdjTrg+qGzLxkeE33UZiZTas/x/InzCf2l00AMqg/4b978c+1DHrwV7/3I5snBfwJQ34QvrdpdqjB65qfoEOo1DHDM2YrZdaa8vP+dvrXv7WTqNzJ4cRpPxmzF0zJNUnUtLg1YeQMh2NCwUiQuHvaPT8VaDVbCoH46I73mF5L6AI7MTKbYpg1spCAT2UXn1ZndJsdn1LJ9yuR0Ks4Ays8ojtzwld/CE/EFwhoCo2hZG5GwQrPWFbT8IBuOxPFFUEa7zruI+e83tq0+nMsf4JsYnf5BCCD+jP+v8//TD1T8/f+1asg7n998tlhNGEoCMN2N8uOq/tse88rQfsbnR9kmeGbVMPK7RwPqbZdt4FwpvuNK6eZbKFDO+E+ezDZuGqzvOCG7GiYPu03p0en/rshum6I7rw4X1nRkn/3N03tYr+9JqtS6YRlWYJPfoZEvMtMEmEUUa0e7X0eUocHO9Fj9kwHdSn/zTvvVbnwj5YuwfJPOn1SkFL2uYNht1ByPWfSVTz1eNv/YUOcYyese2GZc9/U9prvo82qP9t2LH9CzNhfOgHIoKUj3ooEbKvWda2bJsfVg17rFdew4pG4gpVQGMt+Ha0D1lXuYtLdQcFm4AFLIh4ZMke07CAsyVD6RNB34xLr8AYPWxmF4YSCaZkcdWfAbSmXBzxJ5AyorWpRS6UTlWVKHpl0CGyQF36ZdWXkct/FTES0vUS5MqX2O3NJLH4qHuqNM5V/7N2GD+D4RUQg2TT55OVVl3E/uZQMMiUeTUETvaODVGpq+C/1GeM+ovTwDQJjEoAMGpPm1toydaJRD2x+LrVSXoDKtsSvdlNsqDqmlNRP6+5Hfl3lnnEmarsjHyiJTMhejVaUgDlgRINHxGSc8t2JE9WjwI6k7C143DR1cYse2aXS8Tx3Q1eBsHPRCayXF9ZY2lILfRAjKrvkiWfRJci7uKzxZWxIWSbfumV/pA4g7mi1BqVIiltuwNMa1I/iRzKE9IdHjsoiyI692jN3BLnFvqnUMrGs5fBSYmawCQJrIQAZtBbsm5VoV0Opp867cQdVUVFL2VVattLUb/g2k1n0U/Hdenzi9JbSvE4NgSyrMRBaTKX7xW8rdzYIcsQ+tNp14ml5FbLkQUXVbDgspk4IJm+IdMY9ERAeiRf4Zrn3NoNp0W3pY5tt7pAUSbukesLCgGQh0aaZK8rrujFRHj5Us2d0xgUjRi96EbVj5EkiQRWmnteR/nRdnroDoztQ918aiLPSvS1/VE6IQDl0RQhjMHWJykiJpyeDxIN1HnSKM106BScrEkEQEFgWAcigZZHdGrtU96lHtLt5J7rN81oy8deeizgwr92civgnu250Tb3pVdM8HUo9aqF5oMK2VVphK+/iEZNFkqGeDN5IkPRkCkZDdvmlDMZ84iMqVqkTwuWJLMdiw4XptqjcuefqjLWQAEdNr2am8uIAACAASURBVD2tIqi2/+FpY9SzOhXJUBcszA15Yi2Grvbep7TKFHqbzkYY5YriKViDYSnpQDabATkbyx43IQvP3/GUaXtV9xGlh28QGJUAZNCoOLfPGNWSapE783CKqU31bte6Rs2VzmcQ3s+7ie0fVHuXTXN6ZH+IBy26nvSiW0AynmykKIBY98fJSkeUicLvckol6YZkNzxGRmyDY2e6cOdDYUQNf4BI3O0n0sgyTz30We/bcmee6xMFCwSWEuCqyGybU6wxVsVOu2F6RjB5nWeix8FB9fqOh+rJb0EkkpP92AUJDNo1z+MPihtHoqsrcYkSUioLMkDHKfu2rBN2KJ7wbUmGabiwBSddQGyBwOoJQAatnvkGpWia3q7mo7aN2iD3qkdbRdKpLgtUk/pH20v1sG/XWkdVqokStOVC80bOJGtWChAk3gcu+U8tgRCXUskEEWIFh7QRL4+6VfCO0LTlHglZ3yRGtsgC1DW7ttRIvoQJWOMJ+ARWn/YDU5NpY+pcmASosQzTs3B60FFlkO2lICd72gzKNtztOzJ3lPlI4i1MT2XS3GsWKQ+TROpn3xoZQsM3xVO329a+6KQNhg0QWAcByKB1UN+QNP0qsmuugra58zTVHNJxV7d1y4mYelkNgQSDG6YV1OMjR6en6q0K3VhJEC7bgCmnMt7W0qXs21Y/jmib8LhhjgOnjpCrjlLMTewfShnUx23bI7tmAdboniAMNYWmsNw4HTlE/stJ825F+74FCmrcpt2ue9AUPoFiJ02K5El8hlwSvvPlmz8rmKs6ZC+YAOmA3Ri76IEtaJGN9cddfMYKu37YGkVRMDFN/2AFSeuG6KRvDnsgsGoCkEGrJr4x6dl60FR91LbFNSE1QtQ82izY2k3FYZ1AetncUAF1sdRaOe4M+RCmScejFG3SaW9tkNJGxS9U28aEDpZs8/PGVdcCmNz5kzDMwbqETIn4FniaaiFj+eM66uTz6qgpICoF53mrP8nroTtt+yeOjqKOCmoyxWymy5Q8EaOZVMMve3GG7ncBK0o/tFixby+YAboniJJR58wRWxapXKaGfd0lZNOVTbDE5M0KkhZLnwKUU8NREBidAGTQ6Ei3wqCrBKliovpUqAupEYpP2RpQvTPbDoRxoZOlQdFDw8oXXX0r55yrtr4uboQGBxkppiIGIJ4u46Z1pxO2edbTkthRtSZn5Lgz47Zso5JWiS6wv+VgUsL+eb7nlQI/kb4edKgugzov2gSpKnVSl3gim2Q29ow8qaJjPCVrCUa2FDIPGh6xD9PuJgHpy+BNZFCKER1zjsUcosC24y3RdUQQBHDGVXsNJzgFSYaxbPTRN2pyHziHXRAYRgAyaBi37Y51SfqD1X1UY8bVDzVCLLDNvonVVYLdw/PB8JYNGm/YGj9I0zbz+riXRGVtGxi0rUVl9MHBpPbPtBzUEpns6PUBlNQzx40+CBx307MsPVd2ZNGeKm/Ycq+JS4HDsLnrQblgZJ++XIIMkEIKsqkdTyVH4in1QLiYa3tppWLZa6yyrCWP45TpJpJulTi0eMQ6FmKXQttsygkSUvGsTUgclfbWiLZJU9FXQhscTLqPrBPYAIGRCUAGjQx0S8yp+trreqAKTqh8qTIVTlGbl6hJCzCovQwM+22JdSyxfNAR/6Se/Lo8jRaVqzlg+reUWKn9xM2lyU53gusAyr46Y45zEur9lUEhsfmwYstW5m1yFHspRU080ZS9HmzvneigyTLPJiVMNIRzBE04RbGDb8O8a4YlT9RVVd9I+7dKkBbbpWvVu7PY+YpN51hFGYWB/V8g4Vk/dXdW9lY9ZMf78XTsdd5HvvvYA4HxCEAGjcdyqyxdnp5676Citi2ufO0vzviUyrGqTlWLUttUOEqmIg7788kT0+jRrpy6s6a2qCmtCevHFPcoaakdFSNIBzUfA4dYGf/YrvHcOe5e4q362LqiovD9USvHbDnKzZ7ku3jM2nHOeuGMBJE0C73uXohpYom+9S3WLrxVORIuSm6hovWyrXZGuGCsYxK/IEF3PWigtGszblRgbEk/yGCDhTegTqW/9AycY7sjYGHWsAkCYxOADBqb6Hbay9R61AjFtWmXVVX7JivcHA2q8T3DxpptujKORbYprtDKRmErDtj23nOwIqIXRLcBuqUh95w5c0SvKagYujPahH3MSo3snLpXjg/Jn22KRKHheVzYKVwPKk8qL/2cJPcCAtqVmFvWQzJll2oUuirJyYVheJ6MccHQTVGhz2xyFNbEtfpG/HHCn+U0t61EwZSyVB5enit2rJ9jGKtID0FAoCcByKCewHY0OLVtceNFjRDVtQIAanhUtRsbECLoQ7Yp4lHIlLWTdiy2a5qBsWrbLuneLbrvV9cGqJehHtmXSLgQapBBrSNtPOckukBcCXWNVjRQ4aylt1wDuTCc0vVAJcgb48x21xVBpSx6Z5y3l0Q6m3HfpMu4N8RDTlbZzKXnnbMXjJgNL2hqx94UZROExYkYvSr7kf2cNg17B7xKUT3MacvCvjxHum2N8bIXqYyw4xZLfHmzUNgEgbURgAxaG/pNSpjaNqHao9rWO6Xff3qk1ufthmtsTae6NCprO2qKmGFyg9XsZqFnFijJjZqQyvSTdsyJ2JlSDOm8aeCVT0rzyL5pz20HWGDG/piWmqsgrLjLpQB7d4cYtnxQvB5cNO6tbXEzG6qoqeBkUUJnKy4Bl1MXmC6zrmuke4jROumCuRwM3jIXzEK6mbyVUTDXbBaKIU0kfyCsm/bjjARWtBupC5J5UbNpsIxkrSZFhAGBfgQgg/rx2tHQ1LbFrTQ1QodHp41a7dD9mlTtimtGXAvUHXdrAyWQ2SrYpmmPsDo57Vhsdsy6u5to1M15sg7GSRaPmDbAcRJjGM+TCfE+oX69QXqedadCxCkgoju5g+568KaW2SjJ9YqOEp9T9Sq7TqPIGo2UQZJOlzZr5tn1o87Z6ypWYwWbneXa/3StsruiNiqFs64WLhjqPqzTFgqNzbueambnUrvblr2VjoRLyQnyOv9tsYwKO58mzoJAHwKQQX1o7WpYatvieo9389ia1G54j5KwFpf/8vaYmWeP1FfY+JEPXs1OB/mL7eW32es3lel0R6ptKekFGjWmpexjbv4TZ5Zkpx1t6+RB0zu8ICpzyGeBKA2UsR6nlzhS3U4n4seHLedErroUvasibSSFkaPwmavyOKr9ZBcPshk57GExSPkhTbNLwDA5txdDIPjMafelVtG0C3ppOOFlYAu0O3t6qmJ0iOLawBmu37JYxjFXnzBCgkAtAcigWlK7HC7xg5tXkbbxUNNcTsNJBwYO+0UuNUiqRrR2ug0SGe6UV1uSY0GszC4ZXLi4KOlSS5NNiNqAjMP2VDEh1/gVM6mbP2fZk6tZh/lJImDt2I2CKOFGCtum3DMGSS6nhEEw30XuUdJeqKuTawKbncqNQgGlcVXat8EyNHjnVj4YD6luRnXfikrY3XrWAenmLRRk8jRhKdBLxscJEFg6AcigpSPe/ASSP7ipFT9UP3BT2ifIn2psUtWobci7ClfVzKaLQo4VhOfVdGp7rNrWSkBPlgV5Le7qNkDRM58j+pye2k4teglJRUKmxQp/0QtuuLZtmATSJt2ISUC7wlXBJ+mQ8TNdahQgk6QKouR1bU4vGzW8e6Smtj30B3mDbPLdXpqDRxywnR++1L81VH5TwpBxNvRSCohCqoUMuJ/edHIKNOx7nPtoWNqIBQJ1BCCD6jjtdCj1K1l94nr1slE9P/0zfylH6l6/bRRAZDZcyqjVP9+VYySWco6YSSmD3BXsNrTgYgxFCL3gIT1WWGVDFUgETo6pSnUxGtFieUdHtWJYdkk8etkcZRinr01urDmtkIY8wvjb5KhwF9UmZnnbXwepmM1RbTKXTSPfi5FpFbL7VF5gkQXpwErvI8kBHAOBIgHIoCIiBAABEAABEAABENhNApBBu1muyBUIgAAIgAAIgECRAGRQERECgAAIgAAIgAAI7CYByKDdLFfkCgRAAARAAARAoEgAMqiICAFAAARAAARAAAR2kwBk0G6WK3IFAiAAAiAAAiBQJAAZVESEACAAAiAAAiAAArtJADJoN8sVuQIBEAABEAABECgSgAwqIkIAEAABEAABEACB3SQAGbSb5YpcgQAIgAAIgAAIFAlABhURIQAIgAAIgAAIgMBuEoAM2s1yRa5AAARAAARAAASKBCCDiogQAARAAARAAARAYDcJQAbtZrkiVyAAAiAAAiAAAkUCkEFFRAgAAiAAAiAAAiCwmwQgg3azXJErEAABEAABEACBIgHIoCIiBAABEAABEAABENhNApBBu1muyBUIgAAIgAAIgECRAGRQERECgAAIgAAIgAAI7CYByKDdLFfkCgRAAARAAARAoEgAMqiICAFAAARAAARAAAR2kwBk0G6WK3IFAiAAAiAAAiBQJAAZVESEACCwxwQu7t/67MZ76u/O8XowvPzkUefAjVvPyYOLJ8fPX9LO0O/nd9777M4nJ0+ai6EWEA8EQGD7CUAGbX8ZIgcgsDwCF/ff+/DtX9x9560P1yeDPlMO/OLuO0YGWZc+u3O8gII5fmTMvneysKJaHn9YBgEQWDIByKAlA4Z5ENhqAlZzbIwMap7fv0XC6Bd333nv0ZNmAGGXrxufLKClBqSMKCAAAhtFADJoo4oDzoDAhhFwcmFdvUGt7bZxg2Lty+OTG10Xkeqp+uxOXyljbb712f0hKmrDSgnugAAIDCYAGTQYHSIyAvPpgfyZzNDIME7bt7mhMkiDVPOWzMCW6haqH9uiTLmBtu0pmLN7169mP7fXNIdrexDC09EIvPzupydfs7/vfh7NdL2hs3vXr1zJ3BNXSrcEZFA9bIRME4AMSrMZ/8zzO7YjxGv+WevuHV/EA7K5vrlBYm+QzdLL40emW6heBtmuIN2TZOZf62ngA7dZN5V1jG2MWl6QQYwsNhci8GT2+3d++Yd3fvmHt2c/9TT085PZ913c+P+N2U8rnW0HGdSz8BB8OQSa2XQymQgdQov1BjXz2ZQ+6FayRUfSxJs43LZt6riNOGCDbG6qDFJZak5uvPfoSW3mfFHCBeXg7YIMIoajlBdkUG1BI1yWANcx/WTQdz/eeN/op1gDGV31/vf3v8smP+JJyKARYcLUKASappk5QbSgDGKWpvNR3NsFI6xZfetDPsP3yS39VFfY3Mp5dg+iZztC3KjTW+bJ+XyXSXGazhN6Aj9vx5216uStD93BtM95B15+wsbRrOUFN+pl0ALlZUrRyqArV67fvnccf87O5PLGURAgAmFfTg8ZJGmgt9//PhZGb7//Q/VPE/Jr4PdZfBccH7uRMgyKDeSKaIsQYENkkEGLgEzFdXLH76Rxbbzf3Ip2XOAFRQCPXpGuc55HHGs770BDE6vzwdrWOOnjFTHWHHRZ9g26Iij541LhMuje5ise3qE7RY+uK8d1bb38+sc7d8K+nHoZZMfR1FDa+9/f+dqbDPTy6x+4Hqo3uwQax7dpwhBk0BLwwmSJAGRQidCC51nz6T/oZGe9+M2tmJwzMpYE0csL8d4pMV2nCUZM15rK6Qk2HFaaSDSuDHKogwfT+pSXgbltMoh16B6gR1e8I1Z08OV3P925I0/oqdUrrCvo7dSwV02YVeQYMmgVlJFGkgBkUBLNSCdc85mSQf7x4cnSAFyFrqpMpL/CIPnyVv0EoNgXyoieFl18SL6/k3GK7MiI5bVlMojVBQeLdQ0znEvcPL6thho3v5etF4KXX3qdNPGEnkoZ9PJLp6IyUXiwO1/38nTEwJBBI8KsNtXM7afp8ZB4w+LN5/M+UX3XRjPkmx2yx6q+xWo+PssIvyRZUbjBHV8ZuOOQQQyXHeTS/VU1CyCNLINcuSxcXqPKoCaoNQZXQL4dV4vxO7iqM8g3tEB96BV//c7xbfXotZ52tUNaiPXQ2CnMvGcoo2k4ulp98/UPVmnd+NIbNePWlrwNGTQ2YO9mpuehqF1Wo99uTjCdnUznWTEkx+pil+J62csbmuW8qJUrLPtVsqbWrpePtmXJEMWKbyqGwNhu79pmNRzcGaXjhLOjTpR19gZZHwZquyd2eaHckBnP9chzg9SzbN2w3eLlNYIM0lVGXGW5m21SXwM1c6Hy05Ym05lXMearjnw1lqvFvHJbeKeTQd0iNDvUL/TzfTYf6MbsxyfftS0TK31lUHJErOPPVFe9DDq7d7tb/uf67VF64yCDFr4ZAgNiA61u63QloGqC1I2vHi93dU5iKxWZu1Zl6GCS0kK1coVlv8arttYuz4p67plPI0hQiQ/vpQxqSe6EzyiRYgib2wB1/S4ZXKcMyouS53fUE2SP7n9yIS5W4ubl9FksceTeoBHLa0EZlFQt0Z1VvtV73LBZXVVVjZXdqb+oMyG5DFLdQjvTL/T1D2pG85c/vbTPsS8gg9755R9yo13Mci4YKwZ7VXcCtDipmUVNbUIGpcgscrzrP+YCRl4ph1Un4r2fqDskXZS/82VD4uo9CUVWK1dYSnmXDN9au0FxsGQYxNLmfsogrU6kvg3TfofyKEBdv7vxMshOu0krP/PmjVv0UnobxU6sXmQjnS6jPF552QbjypXrg54UY3cn3VuJSiM7iiXfrWNVYwf9DTHai2yeHd++Hq7TvTNayAPDxEplb1DLunkyUezTZIVOI+eNWvmHLwN9ZQQdBBnk+I6+JVQiB57coQ4iWTD40SfTsKNGxeY1QLKR92shyRBTbAkrzBnZW0OPpZUNR7Br7VJ4+vanSc3n3mjjZGbnXnkbbh4CmRnt+0xcj0Jao8I7tpKFW5TcSckg6fhQKEuTQXnl4Xc+mR4dIV/V7jXs/alrkEG6Q0vwP3k8WV4Ly6C2VXXMdDYTJt40c79HNlFxKBMkodR3WP1QHUhhkmYKdlrd3V5VHyZ5DTpxdqxGaHjDfPXq1eoxsk2uNxiOATKo9QbX5J4ebvbOj2IPLXOi24QMipBs9gH//lc1gDBu3cyFg+GwT1pRMNmRGlirCKI4qvpIcrBjzPKSdsZ3OxuOSq7WLoVPfvNcpqvSZPRFT7jfE0GFmN8tvcFmUbcWjG/nqeSFyIJn0091mf6qvH1fBiXfp2Hzkk5OoGVlUHpByB6LRt6qf5eZ4EvvQyPIoHya7O5N1T6eeklUCU2FHX5/J9PyR8sTqeWzNPCs6hiitWe6W75ujGxL6g2uV+pfpsE6hN755R/UezPsKNt3Pz/hj5KlnqiXSsNe1YbzCHWoK4Vi1xLeKSaVSe4Yv7kzd65ogscttOouqHzf8wqkYEp0RR90ieRzwhKTvQmSqLUbRIt3WcLZDvo45ihH3I2U1z3B2RFu4VHcTxix0iEvRBY8m9YlTgaJKqRLN5BB1md/BMqZ6jUI2MkgqW/GIjOWAzfs6TVu2AZj6KBY0ffy7VsOoRMpBWPnS7e3C1pVAxXzWB+g6xjyeoZKY2RbUm8Mk0Fty4fG7BNhwUb1cJgrCEyRdiw2fsvdj3npIGSERS0rFxdYvO+5QDhI9/cIXrBDLo18XlhiojPMpN6stRvGi/ZZwqV6Moo7woEtqc565rQ5uZN+E4X3tgpRCVXGTb/kK68w7PiX/1g7TQnn6spqo2BNwiIPyKAsouLtW3tbFsKxdBauD7MZWvzkmeoYCn7tpMfItqTeGCyDlBL6KV6K2iqht2vHwhYvmIwFVwroDcpgGnaK3btVksClwiqFmpguIbmOcOf16Hxm7Mu5EGwxE1mPenrOu8yzdgN34l2W8DpkUOzQPh0h5cHFULYHpRLOIBlk5wC5Z+YHdgW1rRliy+Yl72RlTpcSbLzeoEY9pJ54JbKZ1SPfvuy2lANQxlkFE1di1VY6a85WbIrSW/K3HiTjYkiPkW3t8kJDZZD4Og6rgbqNt+/8sLpXq8rFDhkkcxnlqLsb8z0ocWIsZs2N7IKnqhpWj9BcRL3gR3a9Iu6XSyKfF5ZQyhduFjLIo7GdO05kcBlUvfxgJtN5hUG9QU7udKbCWIO7giCDuimDVGVkv+XbndUH2V8n+XCs9hmnPsxccyOeCmZPF3saRkx6ZFODZBBfQVG9VuzO93e+/PHJ1z89+fqn+1/+cIOtTlR4qH7kzMTmIINiJqMdYTevXEckU2Ixs1VPdDKTTmrRsfDRDdkp5lEmDW+KYjYcpVJrl8Inv/P1aDIaTixIwK21o6bv6LfWv/XhnVuPzMThvoNQnje2X+dDf9jLBCK5E8og55KeBuRUWq9ZQV0iez0oxu+pqKoJDyRud89Gakg+CORdBGqH1RJhsvn9hFNRAss8YMfI9ksGceX0/vf3/feqdrxffv2jfbvqgBlC4xUaZNB4LCNL7ObteTuymPnbPDxb/K2UEkPyY2wuS8yjbF5YhZYNR5Zr7VL45DdLOPuzM2kAJ/oTcIJDyR1Ptfin+ptWMazBUOh05lIyiC/E/MQ96uW/m6LSoz2WQezW7KqZyWSqnp3nH/bMfPJ29+3oX12uE1qPtvHH3MWb1zcRVnqZ/WJ9WHkZDAzmD43tkwxyT8sX9A17mmx984QggwZe4DXR2M2brCNkOyxm5h6PT9UnI8uh9Kwh5lE2EaZGsuEo37V2KXzymyUs1qTJiOOc2JL1P8bJbGeFCZ2ut8aqFtN547phBvYJWYM9ZZBdiNkO0mUn9+Sg7K0MYjemWlFVXtWDd9Nkbnd+b8aVlndE1i2eM174/E7Gp1yhj3BOj4dVzA3aknqDd+3UPDDPxU0pfP8VFEcoH98EZJDPY9Q9dvP2vB95zKn/+4v/Fou2+68PGMuhYkWUzQur8bLhCDTP6cz9SKTT9d8s4XXIIHcj8bqvuL3hD8yn8XMNdOOTbr1Bq1rsGBYdqXtVe5Qazbzmz3y5QGRcOusUWKeE/IfnnQ1viwxa8bSkjcGazPO2YmeBKdKV92VlMDVYXn4pUN2PsOXWhxVUS0GEx+b37UkxPitIXjiRQewVmMUbcdPV3sUeO6wb1Jd7dR0RGV51m87Tk9+mwfKSVRnMEmRQUQVd3UoZdJF4/yjJCG8FHTqoldCdY7ZAc3TVhwfs1GZZxGRFkh0LU+kKw2EvBcnNXF2SAOrMboEMYrex/LPIlBWrFrK3e7jifdCJU5qfyNzJ1j7hFbTqfWERxbQC0s65BrhcWbAQq643evYG9VM2zHj921VHLVpXCpBBo4JVxmrrCCHh1d/3PEWhRmN5yVZEzIxgJc4ps1sVPrZgjrCEsw4mDSx2wt1IrLIqb666Olsskyo20wphc06nPBmUj5L1x0oZaWrzS3tWEkm8s0qaXn1x/73P7nxCLw4zXlzcv/WZtxhS3bpHPVaRJoN3TP9ZNvuLnxzeG+Ruy/xd6cKlHyDld+aBnl/kerGbyv5rbiOryxaHNsxC8FBY9ZtWt6TeYEol84Iwi47LoKKy4YGLXUc2iVE3XClABo0KVhmrqSNSifL7Pl8TpSz0PZ73lvuTkRn8DUFVbudT7ZEH7uBGVpQ98rKpQW33jH4YnsbCrLcpGeQroV/cfUcSLtaK3TBSxootq3uCrppIJDkNJPvJ/Ini2tTrN2imth0KrI+65JDDZRC7m3I3E7t7UzKIWZrkTBVQMDOplAoWlnY6mgbU551iS/NqXMM9ZVDLwxcWSKyeTM1yhFWkGYxN32SVRJUk8PPDYsvjVH7w3F5Xh6SH3lXcUj3juSPWZ1wC6U5vMVTgJ082I6+CWNIudzD1YK4UD8dqCFw8+eQz3u0hDW9lZJBSHm4orWqALLZGo2BcBr316Ik/vOVpIDMIFQ+KkSnIoEThs7spdRvP/dk+iSqOGUrPtE444R3mhjZFCQkLRpfenuHlaWt2uKwpTXnWmfrpzvu/t8skZjqEeFfQ2+//8KSCiBX3XWd7sf+mwiR6gyog9QjS8Def86dJUxP7/DrcS8lTCPRu5iC8Sm/WvWg+VVt57y00b3gOrfg1mlyhedWQ/1KOeJ51N/Zfo0Z8s+p11q7LvNsKnPUYsZ0Al34vdmCq0hIzis22fXl8cqdbEMioCvm5LTdeFg6KOYieRnnrwxu3TgIR44Lap73cU2YXypNbj+jv5Mnxhf9Sal9p3Xpk3Lb9SdZ6160VH7cB+mzsYm+Q15UdPykW/eJR97tcbQS3ZTApyOxOJt1gWfYGDS0Fj97rIquoD/sUbT7s8W3/9WG7oYC+U8sbhn/8Nah3zBKIPIx/HypsXN/o96r++MS+V7XD+t1P92ffW6mkwnz5cx64Pos3zFdAWnMQv1GX73l+VK46bCZ8ecIieittmOOyDso8ojGRrBwk+2Sq8jaZ+r8RU7WjzSIfOmQZdJsFRM5QWE06E2ar2pKzuedbzXNfACnhEtd4BCnuv6Ez/JuPrHWDVreeCxOW7RBY3QhaG7h6S8/7sUacltKudMfTco37W9zeTRnkdQ/TrZSoMei0+hZqoWQtxuPRdrbPOmlJqskET4pl2SsAl0GFmdC97K41cCBfuExJbSdWBnKjXUFEu2QiP/727Kd0zcKJQAZxGpu5XSUV6I5P/oLiecvIGGZHbyab+cJzGtxO0obyqZA7U4MFciRrUec0b7Yc3+IKUub5Uts9LFmT+7wRaKDPpIEwzqdOBqkYfreN0CvjTEUzkHiKZvvl8aMbdqRMdTI9p0BkR+ktN3xGs45S3VoUu+57R2WQvt8lecFvq8l0PpvyA5IMUkPuqs/aC5fbyd2oY9SHdeVaDNXJoN3oA7KZHU8GtW37c9Dfw3UP375Rq4GUmxgUs4W1qRv5Fj2+9XM3vMtjqRKpez1YwYo24tKUt8TecDPSxmLwX201Wcy5VhPfJZ1TfP0sOZt7vKXn0BRGrywe0hx1vSxurM2pFjKV6sWh8+476AR6K9ZqNA1IT0hSw3CfkGaq7GdyiclbuyuDsvrFPeTuKZNCH0zjTRswg9Yz9dpWpgUPpAAADjFJREFUr3LM36q56kKZqasP5dLscfT49s70AblcjyqDlNmX6g3z3uCXJ4Du/BAOljlfkluYIp1Eswcnojqk9nlTn01UE1U+tWqtcAPpuBQqHcIaxMbGEmiep6fvBE73k0E68sXL4+fRtEiy84u778QKyUuThVQPoD26L04uCYbhzAynD2v6mbzUEjs7LYNMnuleNrP1JMw0K1I6lyAXHOaduXkdZL2iRI2eGlYfBm5gdzkEXgazjr6rmQm0HFdCq5giHRLBPgiAwCACJErqeoPSSdCQWTChR45g+6uCRYD80EGnUfVD+74VeW87ZNDte8fx5+xMztK6jrLO9EKv0ro8RLpbTuAsvguOj+9dv2JmuxefO8Mq0lt+AcB9EFgqAbf8oLRiYb+k1XSfyjUG6/urmudPjvVf02cx65LjT2jRxcVzXUqq5/lgFkW8mudKVu9UQ1iV78mBDOpZwgjek4CaYO093xfcFJBBPYEiOAiAAAhsMIG1yyA3lbBmkKv3oNgGo4drm0kAMmgzywVegQAIgMAyCKxfBrGl0w7cnGopr/7yZjWqSbKCYyCQJQAZlMWDkyAAAiAAAuMS4D083bNgeqFEt0aqfkrMf0wMK1uMWwawNiIBzA0aESZMgQAIgMA+EIiVkPdsfLRTs/b8PnBDHjeRAGTQJpYKfAIBEACBDSfgJglFqocfmNTOpd7w7MK9nSUAGbSzRYuMgQAIgMCyCTTqobHpJHglh36h2Gw2H77g0LL9hn0QIAKQQUQC3yAAAiAAAiAAAntGADJozwoc2QUBEAABEAABECACkEFEAt8gAAIgAAIgAAJ7RgAyaM8KHNkFARAAARAAARAgApBBRALfIAACIAACIAACe0YAMmjPChzZBQEQAAEQAAEQIAKQQUQC3yAAAiAAAiAAAntGADJozwoc2QUBEAABEAABECACkEFEAt8gAAIgAAIgAAJ7RgAyaM8KHNkFARAAARAAARAgApBBRALfIAACIAACIAACe0YAMmjPChzZBQEQAAEQAAEQIAKQQUQC3yAAAiAAAiAAAntGADJozwoc2QUBEAABEAABECACkEFEAt8gAAIgAAIgAAJ7RgAyaM8KHNkFARAAARAAARAgApBBRALfIAACIAACIAACe0YAMmjPChzZBQEQAAEQAAEQIAKQQUQC3yAAAiAAAiAAAntGADJozwoc2QUBEAABEAABECACkEFEAt8gAAIgAAIgAAJ7RgAyaM8KHNkFgREJzKcH8mcya0ZMBqZAAARAYFkEIIOWRRZ2QWD3CUAG7X4ZI4cgsOMEIIN2ooDPX8/uPpt2fw/e7ESWkIltINDMppPJROgQWqw3qJnPpvRBt9I2XAjwEQS2lwBk0PaWHfP8/MXk2u8O3n2s/u6+ZiewCQIrItA0zcwJogVlELM0na8oA0gGBEBgLwlABu1EsUMG7UQxbnsm2BAZZNC2Fyb8B4F9IQAZtBMlDRm0E8W47ZmADNr2EoT/ILCHBCCDdqLQIYN2ohi3PROQQdtegvAfBPaQAGTQaIXePH09N39vejwsfP6GYuno54MmOG+DDBrIx5aPB2oQJWtq1I1mbj9Nj3JvWLz5fN4nqu/+aIZ8s0P2IIOGUEMcEACBtRKADKrC3zw4MROQu2nI+v/0aRf3zfzBMzdDmQJM7r7ONopyrC6VQlwueii52L3wiDB1+vXUTqy++SLjrcv+tZPZuUDMBWD+DOAzv0sTvZ0/CVDXTqZPly6G+KRf+zgUzdlVjzO5OcF0ejKdZ0i2rRyri12K65HPG5rlvKiVKyz7VXN9au16+WhblgxRrPimYgiMYRcEQAAEehGADKrCJTbzkwdv2vPX05vUcjMFYCSIa8v9VM5f5GJ1dhKCQxnaEhk0gI+TQdeezds387uC+uTyjpSWj3e8PbGBVoqgmQsKyLbdKc2gHi+3gVIbqcg8V1WGDiYpLVQrV1j2a7xqa+3yrLSQQQEO7IIACKyUAGRQNe7zN2pYh3f83DyJO4F4I31w89k87jtJiBjBVEoJJSx4SceabJm9QQriGHycDIr9F48otbTkT6NHnbiAkVfKYbJG7NVhmoIFPZB0UV5zyIbE1XsODkRTtXKFpSTaCcnX2g3isWQ4mcI2eoMCjNgFARAYRAAyqC82NpBkG2ZP7lAfhtwV5Ee/+WwWjOyo7iXWBSI38/50olCcvfAmG9kZS8KsI+aM7K2B4zrDUsrMUWQ2+/MRZdBE4XXjX81Tbwhy2R1ClDPWxNv22ZM71EEkCwY/+mQadtSo2FwRJRt5XzNIhphiS1hhzsjeUrm75Xuy4QRGVeEpnj9Naj73RhsnMzv3ytsYPpuKksU3CIAACLQtZFDfqyBs5sV5PM1TeWKQ0xPvPj5IKw8eTA0tFT+8f0jo9UnFZ3lJO6NGLezUqP4yqBefUAbdfFacilTFJwWgx3EmHbQM8iQQ2Wnm8pQcT7ukFQIPlghVEUQ5o1RVepISy0simS5DLLFsOMp+rV0Kn/xmCR8kpFwyLk6AAAiAQB8CkEF9aKmwTDq8+7hnG8ziyt08zhknCLICxUTYVBnUk0/rcv3uY1E/mfw+feZGAHvIPoe3/xZr4hNDTWmbPG6hVXdBZeExikBwiciDZpQTlpjsDQU037V2g2jxLksYMijGgyMgAAIjEoAM6guTSZkagcLNs8a7PJRjA5c7YPxJ0z1kQW1eBvYG9eXTMhmUz/VA2ccLo+/2Ak08i1oQQW3LphmLyoMLhIN0f08+d8whMRGKzRLLhqPwtXYpfPKbJQwZlKSEEyAAAmMQgAzqS7FWOsR2+4gJr9uprJkGyoLavPTxvNZmzEdpAPvA/A7JINam14gJpyVkzeTOq8G5SWbsS0SsDjITWY96el5tN+kYnWAJQwYRFHyDAAgshQBkUF+sw5t51sbXPN/kEioPLUEG9S3G3uFrpUNsmMWUhY0fxQVPSRQuEsx0ba2GsusV8URcEhgU41ywDQIgsIcEIIP6FrpTJ5k5zqJRJ4PsI1R1G5BBIc+Bsi8002e/VjrENllM+4xZ1UZKBukp0Ox5MGYsfnIs9ge9QRITHAMBENhTApBBfQt+DTIIg2JhIe2HDCr2HSUXki6MlDFhlpFa3rqG2XBUPLV2KXzym/d3FSkkreAECIAACJQJQAaVGfkhVi6D8rNkOucGyoLavGBuUH0Pin+1qD0mDli/TXmzSnno5GQ5lNZCzKNsIkyNZMNRnmvtUvjkN0sYc4OSlHACBEBgDAKQQX0p1kqH2K4bFLt2Mn1g38Na3Kh4UStkUIx75CPDm3gec5pYC9BbGNDs9F8fMJZDclcK92iWmVHE1Ahk0MjXE8yBAAhsCAHIoL4FMVwGuT6Vdx+Xx7l6+bW4DMquY+Q8L3dNDeezB0+KraRrg4kX9SiZoHOYDMp6xCxJZqJLlNmtCh8ZoAMs4ayDFB7fIAACIDCUAGRQX3ILNPMDxUqFhwMts7xABhUwL9DEr75R5ykKgoTlJasymBnBSgyM2a0KH1swR1jCWQeTBnACBEAABCoJQAZVgrLBmHTovTzgm5l9HX25W8WmWLExUAYxf3IdVPSWtHcfH5TdXoTPbq4b5E01FntnKkq4Z5C8IOEqIyMz6C1pahpTlazJp9ojC9xBeVyvhzEEBQEQAIEMAcigDBzx1ELNfGvXhq6SFKID4kHm1TXptfZiJL5c4buPD8Tlp9WrXn/n3lyRU0tdGsyT3jJxV2VQME26SlIkSow0VXr+s4rIZYSUGtMrB7IO4hJIz+auUSM8WdlsMlfBCe7g0LWyA5PYBQEQAAGJAGSQRCU4ds7f6P5ico1kgXo/vDjBOfMyVK8D5kC9OesFf326TvlN8/T17O6JSkiUJoF7atc3q6ZgR++ZPxeiebJMSRzm+bnygQsgs303emvseHz4LHLxpaomDwN7vyQCmWMNf/O5e9n6gVqcR/zUzTbWqkIv8BOEV+nNuhfNp0RHw/XBgfYknEkdCBhJBQWyzH8pRzzPunuorUaNBN4JoIIsp+h7gkrnM0JeaSmVAo6DAAiAgCYAGVRxIfAunJoFDwu9IGH/ipUaTmDZVLJTdrjrbhazjetvJNZgZJ03fnjrldZqzwLfPGvj8dksGeQ36p0YyP2XFYctpfl0IseWDss6qJEXTVRmJ5KVRFdP7VP8k2nociGLxcUBSvEtrEAHxeCqLVmT2AABEAABgQBkkAAlPDReM0+W38gdLZIQ8QQHxZe+/Q6hyFTSTj531066LqJAZnnW8hYiTzKrb++0DNKDVaGuiNt3cyTZzKveHlnyRLaSNtT1UxB5ZtQtkCNZi/qqzJstx7eXdpBymLkelqxJbIAACIBARAAyKEISHxivmee2m6cvgmk3vAPm4NrJ5O7rRhzJ4la8bTWXOei2sTY94eLFapunYWePiqUXN+IjD3M2RuZZG4/PrssgxT016ETtfN3rwQpWqt64GgyfWQems7lX7ky61YiPnGs18d3FmVN8/Sw5m9gCARAAAY8AZJCHYx07b5pzf4LRecV6iUtwlLuRll9q3tL86etoPtMSHNpxk4039Wg+nzfhLJ8qAKGVeV8r3EA6LoVKh6jyFoFAAARAYMMIQAZtWIHAHRAAARAAARAAgVURgAxaFWmkAwIgAAIgAAIgsGEEIIM2rEDgDgiAAAiAAAiAwKoIQAatijTSAQEQAAEQAAEQ2DACkEEbViBwBwRAAARAAARAYFUEIINWRRrpgAAIgAAIgAAIbBgByKANKxC4AwIgAAIgAAIgsCoCkEGrIo10QAAEQAAEQAAENowAZNCGFQjcAQEQAAEQAAEQWBUByKBVkUY6IAACIAACIAACG0bg/wOpT9FNi4SRhQAAAABJRU5ErkJggg==;sketch=1;curveFitting=1;jiggle=2;" parent="1" vertex="1">
                    <mxGeometry x="273" y="406" width="770" height="236" as="geometry"/>
                </mxCell>
                <mxCell id="6" value="" style="rounded=1;whiteSpace=wrap;html=1;fillColor=none;sketch=1;curveFitting=1;jiggle=2;" parent="1" vertex="1">
                    <mxGeometry x="363" y="413.5" width="126" height="54" as="geometry"/>
                </mxCell>
                <mxCell id="5" value="" style="rounded=1;whiteSpace=wrap;html=1;fillColor=none;sketch=1;curveFitting=1;jiggle=2;" parent="1" vertex="1">
                    <mxGeometry x="266" y="413" width="82" height="55" as="geometry"/>
                </mxCell>
                <mxCell id="7" value="" style="rounded=1;whiteSpace=wrap;html=1;fillColor=none;sketch=1;curveFitting=1;jiggle=2;" parent="1" vertex="1">
                    <mxGeometry x="511" y="414" width="77" height="53.5" as="geometry"/>
                </mxCell>
                <mxCell id="8" value="" style="rounded=1;whiteSpace=wrap;html=1;fillColor=none;sketch=1;curveFitting=1;jiggle=2;" parent="1" vertex="1">
                    <mxGeometry x="348" y="472" width="726" height="172" as="geometry"/>
                </mxCell>
                <mxCell id="9" value="" style="rounded=1;whiteSpace=wrap;html=1;fillColor=none;sketch=1;curveFitting=1;jiggle=2;" parent="1" vertex="1">
                    <mxGeometry x="363" y="594" width="323" height="45" as="geometry"/>
                </mxCell>
                <mxCell id="18" value="" style="edgeStyle=none;html=1;fontFamily=Helvetica;fontSize=16;entryX=0.5;entryY=0;entryDx=0;entryDy=0;sketch=1;curveFitting=1;jiggle=2;" parent="1" source="10" target="6" edge="1">
                    <mxGeometry relative="1" as="geometry"/>
                </mxCell>
                <mxCell id="10" value="函数名" style="text;html=1;align=center;verticalAlign=middle;resizable=0;points=[];autosize=1;strokeColor=none;fillColor=none;fontSize=16;sketch=1;curveFitting=1;jiggle=2;" parent="1" vertex="1">
                    <mxGeometry x="393" y="352" width="66" height="31" as="geometry"/>
                </mxCell>
                <mxCell id="19" value="" style="edgeStyle=none;html=1;fontFamily=Helvetica;fontSize=16;sketch=1;curveFitting=1;jiggle=2;" parent="1" source="11" target="7" edge="1">
                    <mxGeometry relative="1" as="geometry"/>
                </mxCell>
                <mxCell id="11" value="参数列表" style="text;html=1;align=center;verticalAlign=middle;resizable=0;points=[];autosize=1;strokeColor=none;fillColor=none;fontSize=16;sketch=1;curveFitting=1;jiggle=2;" parent="1" vertex="1">
                    <mxGeometry x="508.5" y="352" width="82" height="31" as="geometry"/>
                </mxCell>
                <mxCell id="20" value="" style="edgeStyle=none;html=1;fontFamily=Helvetica;fontSize=16;entryX=0;entryY=0.5;entryDx=0;entryDy=0;sketch=1;curveFitting=1;jiggle=2;" parent="1" source="12" target="8" edge="1">
                    <mxGeometry relative="1" as="geometry"/>
                </mxCell>
                <mxCell id="12" value="函数代码" style="text;html=1;align=center;verticalAlign=middle;resizable=0;points=[];autosize=1;strokeColor=none;fillColor=none;fontSize=16;sketch=1;curveFitting=1;jiggle=2;" parent="1" vertex="1">
                    <mxGeometry x="232" y="542.5" width="82" height="31" as="geometry"/>
                </mxCell>
                <mxCell id="21" value="" style="edgeStyle=none;html=1;fontFamily=Helvetica;fontSize=16;sketch=1;curveFitting=1;jiggle=2;" parent="1" source="13" target="9" edge="1">
                    <mxGeometry relative="1" as="geometry"/>
                </mxCell>
                <mxCell id="13" value="返回值" style="text;html=1;align=center;verticalAlign=middle;resizable=0;points=[];autosize=1;strokeColor=none;fillColor=none;fontSize=16;sketch=1;curveFitting=1;jiggle=2;" parent="1" vertex="1">
                    <mxGeometry x="724" y="601" width="66" height="31" as="geometry"/>
                </mxCell>
                <mxCell id="16" value="" style="edgeStyle=none;html=1;fontFamily=Helvetica;fontSize=16;sketch=1;curveFitting=1;jiggle=2;" parent="1" source="14" target="5" edge="1">
                    <mxGeometry relative="1" as="geometry"/>
                </mxCell>
                <mxCell id="14" value="def关键字" style="text;html=1;align=center;verticalAlign=middle;resizable=0;points=[];autosize=1;strokeColor=none;fillColor=none;fontSize=16;sketch=1;curveFitting=1;jiggle=2;" parent="1" vertex="1">
                    <mxGeometry x="263" y="352" width="88" height="31" as="geometry"/>
                </mxCell>
                <mxCell id="24" value="" style="rounded=1;whiteSpace=wrap;html=1;fillColor=none;sketch=1;curveFitting=1;jiggle=2;" parent="1" vertex="1">
                    <mxGeometry x="363" y="476" width="551" height="49" as="geometry"/>
                </mxCell>
                <mxCell id="26" value="" style="edgeStyle=none;html=1;fontSize=16;sketch=1;curveFitting=1;jiggle=2;" parent="1" source="25" target="24" edge="1">
                    <mxGeometry relative="1" as="geometry"/>
                </mxCell>
                <mxCell id="25" value="函数说明文档" style="text;html=1;align=center;verticalAlign=middle;resizable=0;points=[];autosize=1;strokeColor=none;fillColor=none;fontSize=16;sketch=1;curveFitting=1;jiggle=2;" parent="1" vertex="1">
                    <mxGeometry x="944" y="485" width="114" height="31" as="geometry"/>
                </mxCell>
                <mxCell id="27" value="" style="shape=image;verticalLabelPosition=bottom;labelBackgroundColor=default;verticalAlign=top;aspect=fixed;imageAspect=0;image=data:image/png,iVBORw0KGgoAAAANSUhEUgAABQsAAAPeCAIAAAAkgtsyAAAgAElEQVR4Aezdv4/bRt7HcRXG7f4Fyd8RPJWAdb3lXXvlXSFjq60dJHn8F8g2sA7SXWssXD0BpGIBGy4DXMq1D9wF0iQB5AMOuOCKAFfwwZCcme+QM8OhSFGU9m0sspREzo/XyLE+miE5y/mDAAIIIIAAAggggAACCCCAAAJ5PgMBAQQQQAABBBBAAAEEEEAAAQRyEjJvAgQQQAABBBBAAAEEEEAAAQRKAeaQeScggAACCCCAAAIIIIAAAgggoARIyLwPEEAAAQQQQAABBBBAAAEEEFACJGTeBwgggAACCCCAAAIIIIAAAggoARIy7wMEEEAAAQQQQAABBBBAAAEElAAJmfcBAggggAACCCCAAAIIIIAAAkqAhMz7AAEEEEAAAQQQQAABBBBAAAElQELmfYAAAggggAACCCCAAAIIIICAEjjohPxb9v7Xlf35Lftpv4O6yX68XdmfTfbLfttzZLVvKltUxxzYu/V63aU+tf9dlwPYFwEEEEAAAQQQQACBCQlskZB/XXzxf7P/+V79fP3rnrry2/Lrd1UbypaY/37xbv71r6NH5c3yu5ezv37p+fnLy/l3t0Tlvu+TX97O//LU8M6/3/QtkOPbBe7WF49PT09PHr9Ij7zri5PT09PHFy+Iye3A7IEAAggggAACCCAwPYFDTMgioptg3NiY/2209H67EOHNpLjaxvz72+mN/qG0aLP8xsZjBfuX16tDafuBtvPuxeMTlXXLPxeJ08jiqJOTxxek5AMdfZqNAAIIIIAAAgg8YIHDS8irr/UMtkjFczOtXT75xbvlWCuuV9+54a2YSZYTnkWie7l8gGuDf7ldfvd6Uf70mvVtfAfxlwfpOdb/p+7WFzoaV78Tp5HLCWR5bJfp57G6Rz0IIIAAAggggAACCIQFDi4hOxPIakG16Fv206/V6uvxln874U0tqJbtURGxWH393YOcQJZLo3sJMIcs3lU73rx7oVZWyz9d5oLv1i8u5ORzseI6cQJ6xx2jeAQQQAABBBBAAAEEEgQOLSH/9A87Xfznf8g4ajv702/+5+0ew23JEPjNW3+9v2z8zw/XiomWJHF6JeQ8l0X99UvOQ97RiNdmj08S545rrVHnL9sV2oTkGg8PEUAAAQQQQAABBKYscMAJef633/YvK5Ibsa0+HAJn1jMhq6K5lnUdeODH4izi4gJdqWcf+5qhynImojtc7ctXHs8hgAACCCCAAAIIIDCKAAm5H7MIgSTkOqXAGSIh14vn8aAC6wtxaa6Tkz7xuGyXE5K3nI4etIcUhgACCCCAAAIIIIBAq8BYCfmn38SNi39d/bTt9K9YZc0ccmx0f9Ezrur+zFvcG2mT/eLe2zlWWeC1CSZkh+V29csWMm5nnQJ7l+aWnfyoNlhqxLsu7JcX2Rouzbqpm8t2JY8oOyKAAAIIIIAAAgjsSyCSkH9b/e3v8z/bC0fP//z3ItmKa2W1XxCrKKR2oWl9DeradbaSCI4hIYuLe4VOXS4ssu/1PZYDl262l9G25WxW37+uX0lb3R7p5SItJ2c/vl3Ubq2k7/M8/+b1KnJFbpmH9SG1W155Hg6w+jrljRNgKS887l5frVncLpybtXR+prgOnGesDf43qYOeu+urh0yybslbTEzf6Ut/dblgWGdLDkAAAQQQQAABBBBAoBTwJ+Tsb3+3F8TSgXZWbMy/Fi/FE/JP/1iIgF0eXv9v19sykZDFO9cmN3V/4M2qvG62CUiNjcWP4mDPZnsJsaQ9dEK2XxB07ojbt19uQ5nfJvbAdxBlQUM7u83b6lHrWJuupSz+dyaQh8zHqm99Cq9dWHuApd9baXMQAggggAACCCCAwMMRaCbk37w3HK4n2zI2RxKyiLLyWE/wDoTk7G/v5IGp21/8fbWb0YsENpNGPBsqu9b+7GAOuZEhPS1RM8nNxpi2Ne6oVJb5Fz2PLarwJ+2JJmShLbrgmXoNh2SbkEUJfuEKLeJswHtuePo1D0z++8fL1u+shd5imteW5N0S08gd1287ZzKri4cRkb3CPIkAAggggAACCCAwnEA9Iddz6Z/fLf72j/IU4qWcPW5JyGIl9v98P/vz35fv3ROPf/p18WcRgH2xtt4Sdyo7GJh9RQ3CdSgJuVgLbU+IzX50Fl2HwlKtd/Pv3roLqt3pZX/Slmc+F+cwy/Xe37xdqTOiGz/hM4FrTZKJNNSL5kA74bax1Ly+pNwuVndKcgrRIXk7Z6fcng9+fD3/5vXy+9ussfQ9+/Gt8xVAfCn7+sJcdHq7uzu19kNOI3eZoiYht9KyAwIIIIAAAggggMDAAm5ClhO/X7xb1GKtqvq3lZzaDcwhO+E2dNfiPJe7NS+7JV8N5uFmbH7ICfmb18tGWMrzXEZN/5pbd/o3eMbyj6+rmPqXl8uWBdvF21QWGw9p3ne1c6mwW3l+dWpCNg0u5899OHnuTJ57feoJeWtnbzd39KTseyD5lzVvG1+7tHvbEM4q6y7K7IsAAggggAACCCAwgICTkOX66sX7UOliftifkMUObXnV1tgM0j/96lz++n3xUJwgPf+6mtx2d/ut61V8Q/2sP18LbOV0qJgmVfOuzTlSz1WFxfrYaHSxyTawAFgmt3nkclMyLPmSqlPO93b+uS6gwvbrZdoVv9SxPRNyrXpRWmJClv2KHSJKnvlGRJbTx7nWoR0/THybOfO0wy+xLjvpLLTuVglX6trx+4TiEUAAAQQQQAABBBwBkZDlBHIzr9qjRAD2JuT3fzdTvuGYrYszOwfORtb76d+ikc1pZ73TiL9FuPJOP/qakhhdxNxva0IO7FDVLhrpuy+xaI9/+bSvEynPtdSbUoTYR5QWi7v2CNEvX+61O+a5zcA+yfirthzRQp+z3XGUrcTu25OQO54k3KkT49TSqUnsjAACCCCAAAIIIICAR0AkZBNW/+f7aPhsSch2dXRS6LWltcfpPM9JyGIQh0luu8t1w5YsSktKyGL/9i8vxDR7s/BhnMXADbq5UWdTf/cydJkutTA+9gWBzK7dZne79GKUmeouDWJfBBBAAAEEEEAAAQS8AjYhJydbm2lnvjlku3C6bYl10SBbWjSW68aTkLVE3jbzaXcUWdEztynCYXuStIUmbMXrTSjA2UWU1gyxzp7lA9Gv9v1F4U2EqSZk9/Jp+hJi8pJm1XYkIfdY/+wxDz5FQg7S8AICCCCAAAIIIIDApARsQhbJ9t3yp0gjbaZtScjNy2hFnyEh19A7nIfsWxtsSxPxL56Q25OkLTRhK15vQgHOLqK0lHZavb9+2b6/KLxJNMWELBscycblSyRk553EAwQQQAABBBBAAAEEggLehBy/pfCuEjKrrGujZDNeIAAPktxsLSlJstbE+EOZ4nxXCIsfXX9VlNaeeOUVvAN6bvnirN1GUwdxdqvr+Ui0tsrALxffvV06F4oTN3yKJOR87FXWuzzbuacqhyOAAAIIIIAAAgggkE8mISedtMx5yM5bdpjk1mk1slN/2wORaZsTs20HN14XpXVLyCnJXxTebOowzo0Obf2EbU9xjrF752pTqkjRqQm5y72KTT1JGzKH766WpKawEwIIIIAAAggggAACEQGbkHdwHvK7xd98d2wq79tU/2/aXZo4D1kMpk1K8WnSaPzLRUJunoIrauu+Ga+3a3mitJSELPvVvr8ovIkwjHPX/gb3T4y+ibuNcobwSGc7B8l4AQEEEEAAAQQQQACBRAGbkPPBr2X9P98nLZxObGm525El5Ojdlez650AAHia5iXDYnD7tNDj1nYctWZTWnnjduzE3Q2+9qeJrgmbhwzjXq9z2capDYkLO7148PtV/TnZzNesRqthWk+MQQAABBBBAAAEEEHAERELOxQnGfe6HLEKs91JeTv1dH4jCk67s1bX8rvuLuNIew6rCRXSZQkLOU9vT1SYXOANkb1FaM8T62ib6FVtmrA6NZ+D4q7Zq0cIB+mvLdbdMmA98b6L3Tu7++kIH5NOTnURkZ5qaNdZ6gPiNAAIIIIAAAgggMEUBmZBzeznr2C2RRZD23e0pz39b/vn/ZuVlqxPPLk6XOYaEvFl+89Tckicc9sS9fAJZaKjkZsv565dDRrthE6MoLYzmvJNkv2KHiJK9tw625QQGoqpVltO43JfTsj4PRC2xTpkg3XI/5DwXF+s6PT0dPsE6Cbxz8XcvLh6fnKiGXazv+rhxLAIIIIAAAggggAACCQJOQs5F/px98W7x/jdfCa0JOZcLtmfDhmTRwoOdQxYzlqFE+svtQqToWeBaU4MlNxG6Zn/9MjoZXuT2tilZ/bYR05h/eR24oJTet/W3aGQsGcpyZEoMNsD5wsLb98GcZdu23xaqoRz+4+v5X+y3MN7YL+t3VkEPPI3sTCB3LVs27PT0tOvhso9sI4AAAggggAACCCCQIuAm5Dy31+sqJoHnX/+a1e6N/NM/Fl+IKWJ/ihbTyFU5/1j9VMvbv2Xvf11+/W7+xf91WIx9FAlZXkSqSL8bO1S/3C6/e2lmmO3Gd7eZ3anaGjC52XOei7sHzb95vfpFtEqd1quyscld3iTZaKATPmd/ebn4/u3KuSPRrTc2Z7/c1nf78Xb1vU198++bO7it1U2xRH/9UjXgR2e37Me3zjcRgeRvC5nCHLJcE+65lrVYemDukxxvtrKy15oeNojKiNv9Pk9OulYNIyLrNza/EUAAAQQQQAABBHYkUE/I6pzMr99Va6TLldJlxDULp8WT0aXUvy4Ch6hIXCvki/gdmEXfjyMhy1N/TYxpbMy/s5mwjMq1XDpocnPTrGiMScU2rqu0mTQnXAveTglFFbUelSNt+yWa0TzWeSYQbvM0alVUOEba9oT3US0Xs9xDLlYXb/9qU1akiebuogMHp9wnetK7jLKnp6fDXLFLXMJ6q+BNQm6OPc8ggAACCCCAAAII7FbAk5DzxkxyPdDW8+27ZW2euWrzb0tf2PaWlrpk+kgScl6bRq7nGT3bWUuYtTw5dHLzTT/qAOa08Ju33rlf31s1GLzLAms9Kkuw/fLW7n0ymJDzvLFk3elLlR5fLn/xNb94zrZnIgk5V+8f/zcXBke9hd4u5FrraELO1TWt1em+5Z/u870NvTt3Xnqr6d9abt+qjEbDeAIBBBBAAAEEEEAAgbCAPyGr/X9SS6C9aXb253eLr/9up4KjZxpn7/8RmkxWhX/xzrOQO9xceaZ0aqiOlNb/JTGb5w17kRoyb8hRS5GdBdUrsei6VsVOkpvKk75l3kX08qy+jvSweslZnl1Lp7UelUfYfpm817oRSciq0I1cpF1vg28Fu+yWbU+fhPzLxrN0vLbm3PswFN1DC/L/+uX8O/0Vxi9iGXlLQm6stT55vP1Mcm32+KTzBbqMP1fqMhRsIIAAAggggAACCIwgEE7IuvLs/a8r+/ObczbsT7+VL9XPVdbHit+/ZT/Jcn5d/eQWJXaNbR7NHLLupDznNgtloXyTldmpdm6wLmQXv2XDVLQbsepddKcqsxZTx+yUvGxYa+AXO3i/RBBE+r0ReYfo87qdv7yiCLvpJtvi0tadryB9t66uPq0npAdas21byRYCCCCAAAIIIIAAArsSaE/Iu6p5u3JFQl68366IQY8Sc8ipF1getH4KOxiBXSXkoQEaIVnNJSfeZ+lu/eLisQnG5UbywUN3hPIQQAABBBBAAAEEEOgucGgJ+f3fzcLvSSRkEXtIyN3ffg/pCPFWqS3zjj9sm0PegWExCyyDbuIJwPXThvus095BtygSAQQQQAABBBBAAIFWgcNKyOImUtGTn1u7PdAO4jJU8TNUB6qPYhAYS0Cd/1uG5C5X7bJX5+ow8zxWl6gHAQQQQAABBBBAAIFWgQknZH2Sc3UW9N/cK36l3yCq1SBxh9oprN+LayCVdz9KLIfdEDgQgfKM4sQJ5LJPxRrtxxcvUtdlH4gEzUQAAQQQQAABBBB4KAITTshiQbVZWW03vv517CGKr5L97nbs9lAfAmMI3CWeg6zb0nV/fRy/EUAAAQQQQAABBBCYgMBhJuS9LLGOJGSWWE/grUwTEEAAAQQQQAABBBBAAIGeAoeXkOd//vvqp5693urwQEIubhG8VYEchAACCCCAAAIIIIAAAgggMCWBCSfkKTHRFgQQQAABBBBAAAEEEEAAgaMXICEf/RDTQQQQQAABBBBAAAEEEEAAgSQBEnISEzshgAACCCCAAAIIIIAAAggcvQAJ+eiHmA4igAACCCCAAAIIIIAAAggkCZCQk5jYCQEEEEAAAQQQQAABBBBA4OgFSMhHP8R0EAEEEEAAAQQQQAABBBBAIEmAhJzExE4IIIAAAggggAACCCCAAAJHL0BCPvohpoMIIIAAAggggAACCCCAAAJJAiTkJCZ2QgABBBBAAAEEEEAAAQQQOHoBEvLRDzEdRAABBBBAAAEEEEAAAQQQSBIgIScxsRMCCCCAAAIIIIAAAggggMDRC5CQj36I6SACCCCAAAIIIIAAAggggECSAAk5iYmdEEAAAQQQQAABBBBAAAEEjl6AhHz0Q0wHEUAAAQQQQAABBBBAAAEEkgRIyElM7IQAAggggAACCCCAAAIIIHD0AiTkox9iOogAAggggAACCCCAAAIIIJAkQEJOYmInBBBAAAEEEEAAAQQQQACBoxcgIR/9ENNBBBBAAAEEEEAAAQQQQACBJAESchITOyGAAAIIIIAAAggggAACCBy9AAn56IeYDiKAAAIIIIAAAggggAACCCQJkJCTmNgJAQQQQAABBBBAAAEEEEDg6AVIyEc/xHQQAQQQQAABBBBAAAEEEEAgSYCEnMTETggggAACCCCAAAIIIIAAAkcvQEI++iHevoOrxaz6s1htX8rxHnmz/PT5n/75+Z/++dny9+PtJT1DAAEEEEAAAQQQQOABCZCQH9Bgd+rqajHX+Xg2IyE37G6W/yrjMQm5YcMTCCCAAAIIIIAAAggcqgAJ+VBHbpftzpx4PCMh17D/K+MxCbmmw0MEEEAAAQQQQAABBA5XgIR8uGO3k5Znq6WcPGaVdU35/of/XF5Wi6uZQ67h8BABBBBAAAEEEEAAgUMXICEf+ggO1v5MzRyLldV2jTVzyAr5/uffLy/tymoTj5lDHuwtSEEIIIAAAggggAACCOxbgIS87xGYQP2Zb9pYBuQHfh7y/Zt/n/+xPm9MQp7AO5cmIIAAAggggAACCCAwsAAJeWDQrYrLsmzl/smyrQpqHiQKDpeZLRtzx3NnPvmBX6nr5//UEvJnf/yXnE/mWtbNNx7PIIAAAggggAACCCBwiAIk5NRRs7c+Sll0LDPnfOmPu8Upv41oKuZu5/PFyn9o2WhZiTlMh1n/CcWBEp2S5oulqrZbh1MZD3O//74S5x6fL/9z83Oe//BvM41MQj7MYaXVCCCAAAIIIIAAAgjUBUjIdZHg4y6JUSZOb0CuXyzaBNzGhvfwspGyFnOc2r9xLWrzqtrwlqh6V0RjE8m79DeIdjQv/PBvNW/85vf7n3WXSMhagt8IIIAAAggggAACCByNAAk5eShlHvWGTFFSQrqUu1QBdpvrZJULtOWJxPNQMTomB+aRRfOLTdlAPTFd3+chPyYhP+TRp+8IIIAAAggggAACRypAQk4f2PSInBYu1aWjF8vlqnl+cLZyTwxuD6iyRm8S1tPKbdnecsgi2xtgj+u9dXe33ubP3V3vmjsVQELuxMXOCCCAAAIIIIAAAggcggAJucMopWbG9CgdqVxW1h5r5d7FSmrfGczZKnpac60xsshRE/L64uTktPufi3WtAzt+SELeMTDFI4AAAggggAACCCAwvgAJuYt5WmgcJCA7V8rqmJDbd0/pdFpnU0rquA8JuSMYuyOAAAIIIIAAAggggMBAAiTkTpApqXGggCyvJd0eeUXD2ndO67Ioctz7IZOQ0waIvRBAAAEEEEAAAQQQQGBoARJyN9GE2Ch2SQqrmbov0yJ6fa32crpWmtBrUeS4CTmhbVPYhVXWUxgF2oAAAggggAACCCCAwKACJORunO0TxB2Cpb56lr60VvA3CbnbKI2yNwl5FGYqQQABBBBAAAEEEEBgTAESckfttoicGpBlOcFkrF8gIXccpTF2JyGPoUwdCCCAAAIIIIAAAgiMKkBC7soto20zuSYGZLlbEYPn84W68ZP8I2741Kyn3mpRYPvO9YP9j0WRrLL2EJGQPSg8hQACCCCAAAIIIIDAYQuQkDuPXywip6VKuddsvgzcgkns1R56O+2c1mVR5LgJmfshpw0QeyGAAAIIIIAAAggggMDQAiTkLURFdnSzq3ghEirFXu7hblMSdysP6rSzW0/okSgy0pnQ0T2e51rWPfA4FAEEEEAAAQQQQAABBHoIkJC3wRPhUWbcwNO1GsQc9GJVe00+TCutOqLTzrKW8LYokoTsYWKVtQeFpxBAAAEEEEAAAQQQOGwBEvJW4+dLjyL5zmRurldgj43tlXM/5NNufy7WdendPiYh79aX0hFAAAEEEEAAAQQQ2IMACXk7dBmHy5ng5jOBksWOsTlkG6Rn0cBd1iL2jufuQKM8T4six51D9rRlik+RkKc4KrQJAQQQQAABBBBAAIFeAiTkbflEgFSZVDxsy5Ni11BEXi3m+k5P6nd76BVltu+c1mVRZFuP0go8sr1IyEc2oHQHAQQQQAABBBBAAIE8JyFv/S4Qc8Gz+dwm2vaEKrNn41rWWS0dlzeDWmaNdmaZuDeUvDXUwr1rlNmrWYQuU5ZkdhdFqkY2/oSL08Ueze+ff7/5ofHz5l+f/+mf5c9nl/9p7nB/NN2nIwgggAACCCCAAAIIPBgBEnKPoXaSrp7zDU0Ly3pkuNbHiYytn6r/dov21l4/RDwOJ3dfc8SB/s1wcbKnR7F9L8KwScXxjc/++K9XPx9F5+kEAggggAACCCCAAAIPSYCE3Ge0m9EyOTf6ZordKDpfrJYL5ykScp/B2v5YEvL2dhyJAAIIIIAAAggggMBBCZCQ+w2XO5GbnI+LSrPV0j3d2MTh+WK5KhcxZ3IXEnK/wdr2aBLytnIchwACCCCAAAIIIIDAgQmQkPc+YM75xKvMd3qvPk/Y99re208DEEAAAQQQQAABBBBAAIEjESAhH8lA0g0EEEAAAQQQQAABBBBAAIGeAiTknoAcjgACCCCAAAIIIIAAAgggcCQCJOQjGUi6gQACCCCAAAIIIIAAAggg0FOAhNwTkMMRQAABBBBAAAEEEEAAAQSORICEfCQDSTcQQAABBBBAAAEEEEAAAQR6CpCQewJyOAIIIIAAAggggAACCCCAwJEIkJCPZCDpBgIIIIAAAggggAACCCCAQE8BEnJPQA5HAAEEEEAAAQQQQAABBBA4EgES8pEMJN1AAAEEEEAAAQQQQAABBBDoKUBC7gnI4QgggAACCCCAAAIIIIAAAkciQEI+koGkGwgggAACCCCAAAIIIIAAAj0FSMg9ATkcAQQQQAABBBBAAAEEEEDgSARIyEcykHQDAQQQQAABBBBAAAEEEECgpwAJuScghyOAAAIIIIAAAggggAACCByJAAn5SAaSbiCAAAIIIIAAAggggAACCPQUICH3BORwBBBAAAEEEEAAAQQQQACBIxEgIR/JQNINBBBAAAEEEEAAAQQQQACBngIk5J6AHI4AAggggAACCCCAAAIIIHAkAiTkIxlIuoEAAggggAACCCCAAAIIINBTgITcE5DDEUAAAQQQQAABBBBAAAEEjkSAhHwkA0k3EEAAAQQQQAABBBBAAAEEegqQkHsCcjgCCCCAAAIIIIAAAggggMCRCJCQj2Qg6QYCCCCAAAIIIIAAAggggEBPARJyT0AORwABBBBAAAEEEEAAAQQQOBIBEvKRDCTdeBgCN0+uzs+uzs+uX2WtHd7crDf37bu1ljPCDptXVb+uLtc7qG59fX52ffnk3av1Jl76/fPr87Oryyfvbg7DLd4bXkUAAQQQQAABBBDoLkBC7m7GEQ9X4P751Wd/+PrzPj+Pvjp/8uE+kTD78OqJE4ZvnnylGvDoSiZkFZuboW59Xez51fnzlliY2JZd7rZ5dVb266tdJGSN1k6h93R4d9lxykYAAQQQQAABBBCYmAAJeWIDQnMmLTBAQlb5VoXkhH5+uCyjuNjZE+Gyd+flbmfvZPCumvpoJ5kzofGddtlpQjaFt+ZeDf7o+qZT89kZAQQQQAABBBBA4GgESMhHM5SmI59Wq4/q57jXid6t17tYj2sU/Rv363eXT667/1xVIbZDPC4aoOeBzcxqMyE3nymbHnre37E9P2tC7A7yfOAbBE+PS+0/fP25+ErCsxtPIYDAngXU///v9twGqkcAAQQQOF4BEvJxjW32fj7739nsWfkzX346ru6VvblbXzw+PT09efziID4iZR8uyyXExeroy7ZTYd0R09FRzw/Xc28Z/x411w/rAw9jOtS0dgcJufEtgytsH2nbHbTBVsIWAgj0FlhfnJyenj6+eEFM7m1JAQgggAACHgESsgflYJ/6tJzbeFyE5Derg+2Mv+F3Lx6fqM9G5Z+LlGlkvXS2vhRZp7L68/6Kt3v2fn0tZo9bV/l6KtGLpatjdYorH+ou6Pwsjte99rwk9prKpu7IDtaEa7HWhdNa7NH1Tba5j/9MxW2v7TBT7vv5FkaPV/3vr34v1Z/fqxWVNwVWi1n1Z9Hxnynxr8DJyeMLUnITl2cQQAABBPoJkJD7+U3r6I8LMYFcJORvl3tca519XC7eLMqfIWaz79YXOhpXv5Omkd1PzHYBbej5gcZUXWRLX9ZLnXjsnCTcpY4Pl4++Oj+7Lq+urPNekZDLKtyrdlUlm6XFtr9d6hx7Xz0WgyRkk9zKjBT6b62uxKPKdfIHcPGzHQ+h89VP67cPu2iMfs+U42vf56Hnd9EGytxWYLWY63w8m3VMyOUEsvy34ECWE22LxXEIIFOBZqEAACAASURBVIAAAqMLkJBHJ99hhRObQ5ZLvhcfe/b77oVaWS3/pM4diE/M7mrkKm3WP2H3bGie55ub587UcceV1aoB99mHm3X18+q52K6u+Xx1KZ40e6rbOxXN1zPP+10w7M7yhZLqds+7Q+mMWWLWdRKyeJO0tidStdOOo33grIxQXxnsOyG7I7Kzv9dHO6Ajdyxz4vGsc0LO87v1iwu5mKhYcZ2yoGjknlIdAggggMChCpCQD3Xk/O2WoXT2bM/nIcvG9EvItdnjk6S5YyNkPzE7oSi3F6Z2P2GbA6sNdTfd4i7Edp6qvot9vNZXltYX5ZLXl7a7qS1zE2BPwLBtbg1scgedVarD1dx1y3XF5F2j3Ob1f7TXhFxMvPuvqXZWzO3LN4OZcle3TQ7/6AMP4QZa/YfPV4JcGWHeePpd5ztgh8/ZvyNyKPPkv9c7bBpFBwSy1VJOHm+5yrosXF2Pwp5xQ0gOkPM0AggggMA2AiTkbdSmfcxkrmU9VEIWZ50VF+hKOvtYjJFIwu6ZwGay0f2ELQ4tNs1uCQnZ1qXXRbulbe7tsnc9b+kLGPbTv8khKRtVUcnRNN5xt+ndH4lmlF8xhP9r7zL9qPgyIrxndV535EuNcrwiXWvsYL5QMNcM93dWH/gQE3K2Ubfd9r4JfW9gP+Cgz9q/a7UTDcxf2Mh7YNCWUFi7QKZmjsXKarvGeos5ZFOd+rfBWVh0GFdvNO1nAwEEEEBgogIk5IkOzDE0a5iEvL4Ql+Y6OekajxWk/cQcSsju8zV8c7hOyGqVqT8A6/mrwEdzlcQeqQXSxcRyLCHXmlA8FIGzvCx2VU5jX9Ngb56RTwba2Shxuyd0g9sTlKFoXxZe5aIBE7KdQG47V7yE3S3adtS7PCp7Zy/GLt88Zrt9fHfTPPM+Dybk6N/r3TSKUusCmW/aWAbkruchuxU4Ibnj8iK3JB4hgAACCCCgBUjIWqLX709ZeQti9d9PdpKwR5mDF7hlWzI9I110rVshQyRkeVGWrT/9mAhU+yhvn49+kjYfxMuEbK5RVPtcXuCY/OaZjTTlVNeXNrHQs8q6Ia13NrGk3Di7ftW4fZSdf9aR3pZWdjkSL+2udus+24hTndVJ0WIm3O7W2DqIhKxhU3LvnhLytv6NAWk+IU53D4+pJjLvPbV6X8wn1/5aNWvZ0TP276/7N8g+H/17vaNWTa/YLMtW7p9skH+k8jwXBYfLzJaNueO5M5/c8UpdDWH3W1Qu29UA4gkEEEAAga4CJOQEMZn09K2GZ/P36kOGulzzt+b+w2Zjvni/Cn8GyZaeQ/SHhE+r5Rt5T+OyzPniY7i8hC5Ed1kt9D2iyk6pnf3NmM2+XawC91j2Khmu0Eb8/GR3ffXWn3zMJ+b6rY/SIpxJtjpwBpd3mnMgm3HLtMHmah082gOG3tNGlKtXa32b5eJC2eWVroth1p36w9ef1/urp9ObzfO8QYrrjZk7OZuqzcajq/Mn5WS452CnJekdTGiY+Q4iuNS5NceKHexQNq2a3RIH1l80b5I/fP25fp/U97GPxYDa94N9udjq7W/ecmbIRNvu176Z4fjKiLKc6ksZ8TZrH99a18RDM0EdqFrs2tg0HayPnW5bn4Y1atvtE/bWRymLjmXmnAfuV1Cc8tuIpmLudj5fRP6VynNZiTlM/zvlP6E4UKJT0nyxVNV263AbvvsvxTYLjdpq4HUEEEAAgQclQEJOGG5/9nuzXL1vRlkTkosw6S/cm5DVVbWyj4v6DY2f2QJtfHWK9ZZWHqU/zTj7Nx/YhDx7s8o/rXyZ3zZj9sxfrF9JtN8bkqMJ2ZlA3jof53muPzHXo4sOKvVP2K6RCT/icJus3E/hJr+5c8i6IicBmifdGTC38tzEgOJYfcZsOTmmTg2tzuBVi7c36lDT2mIldu1CXLp5bXNrZp5chivvdoxOs7tEtf4VDw3FuKusn+vLqjnj4mtg8ZzW8zZSdzbl2s5mTL3fYhSD6D/jtzkEEX9ZizlQ7S/eNuZ5s+FP7MUtx568u8mK95jS6NLfkGithe3vk1pBug3iL2axh347RXBqJe3/YZfEKBOnNyDXLxZtAm5jw3t4qSFrMcep/RvXojavqg1viap3RTQ2X/R26W/K6Az2j0VKZeyDAAIIIHDsAiTkpBHOisXG6u6+kQTrSYDh2xFnxcJsOV08/zaat5/N5m+83/gPmpDbAm3VxzerJtvwCdlZO9drWqD4xOxbWlwFzvonbLd3JnO6u9nFzOKDuDdE6Vj7lTvtqT/HB4PB5ua5CMDFzUx0UTbiVrfe0RnPtqq4mLYb1HN9eDSTF713yinjU3klZxOlzIbLIux0gAl20OxrKLzh0+ymNoywiyn2KcdLg4gX9KbY4b689niwC/qQ4repuqZavKi74Ptiwiml9i1GoOoh/NX10ovbhonpYnUhtK/sddHMIJqNR1dpNyfTg5vyjUC9/9XjytNW3T76bkn9/l67Ze37kcyj3pApGpiQLuUuVYDd5jpZ5QJteSLxPFSMjsmBeWTR/GJTNtD/nWv9iJbHYhp56/NxWqrgZQQQQACBByNAQu421J44qoKrWHhcmwcOTPzqWj8uZnqFswnYThLWM7rhcjxN0kUlfvAQc8g2Ic/dfmUrZ+23r2R5xvLH1eqjs1x8/l490/yRdBql+r2+MBcp7XZ3p1o56qHKG6GE7HveKSKQkNXtmqq7E9voa0KUyW/2mXoWMoc38+rGueWsmNbTEdcmZNXU7MPl8w/Fhp4UPbu+LIOHU6lONSLSOz11Hny4PLu6fC6nDfXL2Yeq42UVwQCsqwvuoAsUkr7waXZTG9aznDN3XiweiADcfFE9U99B30S6XHjsiDkF6KpdfL1L9WrxxYQZff2i89um30iMz/v720ptjTaOOklYf8/i75otyG7pwd1nQu7399r2ZRJb6RE5LVyqS0cvlstV8/zgbOWeGOz7v7lLImv0JmE9rdyW7W2xssj2BtjjIltyGrnPkqNIFbyEAAIIIPBABEjI3Qa6Hkf9pwc7uTf6r7+z52z2zHu+cbaKnoScuclTzEtHq7Ydryfk+RvvmW2y70l3WpazytHV1LYpYms6H3eCCVmvNRWB04lJTz7cxI6NJGSRA584F1j2J+SKzRSo5uKqPUXb7ILtcAgUAxDflAEpFKv0PlNPyGVPrV4o38YTsrO+PSasK0qZbQ4OgrZNK6SekL0n/WYfxNnswYr1C7IBza949F7x331XWcdLP7RXUzNjepSOCMjK2mOt3LtYSe07gzlbeRc5BRohi0z8hypQkn16yC9VbalsIYAAAgg8QAEScrdBlymxuliXt4DVG3vibiwcOgk5KXZ6q5NPilya+MFDJmRvRK+KT+2Ubo1oySyGoPd3fjv38Oi1xNopdpsHsZSr5m+LWzepgqslu2aazmzImGpboJOSP0BuXp05s3yq/EzeTtkWVG2ZdpbVlQ/F/HNj7rRRQpcnbOiSVTgl6BDl76Dc1VC0r7PVMdXO28uC1LZxMP7eDc/8rWmwP/NHv57QX5eUdUW6LGOh/41R75D3cYK/Pc7uHDrz2e6buKWteswhq5r6XKkrsaUHs1taaBwkIDtXyuqYkNt3TxFP62xKSXYfZ6H1fv/RsI1iCwEEEEDgEAVIyN1GTSTk8DnGqkgRfcMLpJN369JIkUu7J+Rop0TJSYm36/5OL+1JyHs/qcwkrujEoL1oVi2PBQOkiYWJU3A6kwRilYmO1ULlMomJNeQ64CVW5wxH84ENXcEO6gZH4mJVrqHYb0IW6drXZg3oz8/VYv4qIQc74qwyCC0Ub3I3nknwt8d02tkeFtvSg9szIceqeHCvpaTGgQKyvJZ0e+QVDWvfOW3YRJH97ocsq5vQvxqyWWwjgAACCBycAAm525AlJ+RPS3tNL991rapqE4N0l0aKXHosCXnPswFtCdkzdVzMT9rM7M+QJhamRdZqTjgYvYpJ7OtzG+N1+VWi1pEmELBD77H77MOrJ9fnoct0xVb56hp9adOtTjfVM6/r7tjlPOTzs+vLJ76fsi+BumyYtJJVG3RCDo+XeauI+yrVOmDL978rarvnPfxtUV0rtUcGt/TgkpCDRN1fSIiNYpeksJqp+zItotfXai+na6UJPRdFDpeQJ7TyKIGAXRBAAAEEpitAQu42NskJORdLl0nIz5LmnOVQTGm9nIk9jcikLtZl77ek1v3WJnLFhOFV4xpUJhZ6E5dIILVJae9D3yWIdWOKOU8dsEMn2Ur9ctu5Wpi30mq+NDSnKrpwdnUe/bFXV1YXW47+VJW2rbIOBGDVNU3RGJGy37rZ9RLi41Uc276CWheeECx7+5fdUf8lIVuLKW+1TxB3CJb66ln60lrB3yTkKb8naBsCCCCAwD4ESMjd1EnI1fnVKecVi9nsY0zIToA5uy7vPKxDqZ3pDYfkeOISUSqSTs1L9ThXvK/tQusPev4zlGZrfw9020z5kY3gXGjHLkSqaL4kVo/Xmt4WgFsTst6hHmK1SWxKXO8Tmlo337aEJ5mL7ohymn2vPRP0tzAkZGsx6a22iJwakGU5wWSsXyAhT/o9QeMQQAABBPYgQELuhp6ckFllned9EnIuzyib3CprtfDY3Kn4q/Mn4mJd5R2M3bwqQrJNzuJmUd455M39+sNN9aPv4fTo+pV9snxV3+rWH9saQcszDe75G2ADVRnGHl2dP7l+9dy0R23YGz4FE9rBJmQ56WrFNGZ0mboc6+Z0vYV13yG1MbC79fK3pdoCg4Nld07bEoPrf++lFcNeroCMts3kmhiQ5W5FDJ7PF+rGT/KPuOFTsx63TR0v61U/2P9YtjHxdCB/QfJZu8p671evkM1iGwEEEEDg4ARIyN2GLDkhJ55gnLhbl0aKXJr4wUMsCOdKXR5qM++nwtLm5vn1uZnEa6xtbs4hlwWK4GSWW+vE1RYwTJnNxFXdwKl1QrUKWjKfezpaPWX6W06ErjfeXRNClw5RbR0UXxa0tzCmUTa0ZRG1niKOZtQ8N403s+76mWhCtrfU8lw1WpdQn512gQfzt8UmDJbdOW0rrS9pZbGXFYhF5LRUKfeazZeBWzCJvY4nIcvvVbkjsn1TsYUAAggg0FWAhNxNLDUhi5gaXWBMQg7529mA09PT/U4im8Ty5IObf66b9481+a15jqsMycWS7MSErKOIJ5illKAP9wQ2v31imkrYTVd9kAm5uCX12TsxxLo7dla5I6B5I0WXWCfAqnoTdyub2Glnf6/qz2qNeNqvH8XjdoFgdhUvRC5uJfaKRd/E3crmdtq5vYdqD1FkpDNpZem9pnT1Ct0mfiOAAAIIHKQACbnbsCUmZDEr+yw6kUtCDvrfvXh8qv+c7DUim2BTRCMVdB85K6tlFyIJuUg1xdrsaqVrSr7VQcg3S2zq8swt2zaZWsKXtrI753Y6N5ri0hKaWSi+MbeMdqqyD2wjm98s2L2qrU1xX+hwmeV4RaaIW3doVKmeMFfhakvI9obM7qilxVRNMYC/7UZa1Xb/hC0ScgLSdruI8CgzbuDpWh1iDjr6T09aaVXhnXauNSjwUBQ5VEKezj8ZgT7zNAIIIIDAwQiQkLsNVVJClhPIs8iFrNNvm9ylkaL26CckW6bI89NZZZ3n6wsdkE9P9hqR3YSsFlpnFk/dY0k8rKJIOJ7dPKmu6WWzaGSK1aSycpn02dWlWfNsXvLMLdvm2Ynr0LWj7L7llk4+brqr79VxDrN5uPuMjoVhN3f/6KPWANy6g7d4fVT0+4jySG0o51fNeLVM5utjB/UnIXuHdKpP+tKjSL4zmZvrfbDHxvZy5nDjO6oKbKHRuuttiT0WRQ6UkJ1lR6yxjuHzGgIIIIBAmwAJuU3IfV0k5Gfz5Sf3xfKRvEZXaB9zHHPIhqK5YU8qOz093eMnnnpCdlsqk484P7m8tLW7a+2RiYXeK3XZne/X+nJc1enEV5fmXOj4hZeabYvG6aJK3aqWOUwd5FKDt+2Ob0tXeiQJuVih7Z77bb+qaOmjphjUf7oJOdPv7TPPOQu+t8qun7u7Wxd/7nZdUax8GYfL7zmbzwSOFzvGviGVAfU4ErLzjeoe/7kIjAtPI4AAAggclAAJudtwyYQ8m327WNVC8icxH/ts1jKBfOxzyLnI/7M3gQvGxPydVXP7m0aOJ+RcRBqTkNuDqFjPHJlDFjr1nKyiafS6VpkOsWo30ci2RcIiTYWi+4fLs6/kHYwTvg4QPfFs6ubFe+Q50PeUnuwNLthu3cFXqlnTHizWOUrjVzPG4mHbcO/CX5RpLjzmNLf7gw49ChZe+wanTSZYzmAvrC8en5yUS1fUupU9pmSRYFWAFQ/bZlzFrqGIvFrM9Z2e1O9jSMjOBPL+/q0Y7J1IQQgggAAC+xUgIXfzdxPys9ns2Xz+Zrn6uFp9XC7fzGf/W90ueKZe8n8+yT6tiv2L/763h+hyxKuq2FU9hNsGZ1m5g/tf0Yz50n0pUJpI9YOuss6d6XT1hcLyfb13YoGy7ZjdcqaR9/W5pyUh5yq7Prkuf9TdmFr6ZHpnYmEoiJo9zcbmxtxlqkzjoZk3E4/tVKSONG3Ld+1ptOX8sFnXXbTCuQu0niZNWHhsuuDdMBTRzO89tPmkGS/zhYV3o1saNy1MTZhy0vj8TNwb7Ln/2uC2H7L9j65ebelvTgKv35rr0r1rl76jmL1jmW1JtbUx+4gNfQey6k3i3AlM7Zbwt8AS6TdS2rcPjQYO9ISTsk5PT/f1P5yiO2IueDaf20TbKc6q9Ot+NZnV0nF5M6hlc7SyTNwbSt4aauHeNcrs1SxCD4ssyewuilSNbPwJF6eLFb/d71KZQBY0bCKAAAIIbCVAQu7G1kzIMhLL7cb0sq5o9Ubu1r49fx/6rCCSrQrkST++0kQ5wybkvJUrsFJdW+W5/Oizr4tam8TSNvtqm520ZUJXUkJ25pAfXZ2bWdzmZcPk1Jy4V7ONvi0hWTdMBkuT8eSTcrtb4KwB6Rp7FaLLNOMlm9fc7laX+X4habCKpuhDZNVJ06RaQx7Y2d9Xuyywth1Zri/fTrWjQg9b3mDVSE0tITvfx6mEvN+oJSaD7Yyv/2tX/dYvf8twrY8UGVs/Vf/tFu2tvX6IeBxO7r7miAP9m+Hi3L6qR+IS1vv+XqPZOJ5BAAEEEDhIARJyt2GTkW8+d2aMbUCdv/F8JW/qeUgJOa9PI9djfGtCLj/+iEt27eFDq0lcZ1dmrniQjeq+ym2p6T5zVzVX88ZiPtku6t7cPNfTlb4rQtlM0szV5h2qNtwam0GoOPzVE7nWus/0r86E3VKr02L7oByvR1+dn1UT+6HBSl8cbt26fEtijyoB03Jj0ZH+/geQkO3lwSuf9G8f7GgPuDWpOWR19XQ5z1oEyeTc6JspdqPofLFaLpynDjMh3znfa+z3mo4DvhcpCgEEEEBgvwIk5G7+IiGr6dZs9X4x/9Zk42LF9afQlG9V08NKyHmef1otvrWLyd257oSEnKurWuuTA9UUwcnjke/9ZBJyMygO8kwoIWebG3NFripCiGtZl2+n7N3lk3flvZTcSea2+1GVBZ5d1xbxir8OjdpNZ+1Rm1dm1XevcLuThLzVkl3Vo/Mz9WNztZiu71imG1PtFxmCObjZ09+t2oxdaGMfc8iq65O6UpdcsXKy5xnk4n3hTuQm5+Pi2Gy1dE83NnF4vtBLrzO5ywEm5Nrs8RSGLPj3mRcQQAABBA5JgITcbbRqCbnbwey9tYD7Sai4tPV4l9HZQ0LWidHkmUdXl89jZ4q607mNIO3CO3ObbbHtPpOnmHrvQqzPU235bshthPNI97dXzNYl6jnkjmm2OtzBMf7lRpcJZN2avr9H8e/byCM5fn1RXaZrvxfPH1TTOZ94lfn+jurzhH2vDdqWQQu7E5dVKxcZjfzN6aC9oTAEEEAAgWkJkJC7jQcJuZvXgHs3QrKaS97jxWb7d83EQt/iUnPyZzFhW84Sx6o0MT507a7awWX5oenr2s47f2go+izV1q1cX1eTwGv9TKffRl7G45ZvKDpVwM7TFBD/h2EycppDVLXqbv3i4rE59UbH44P+x2DS3jQOAQQQeIACJORug05C7uY17N7FrIH8YLTXi8327ptZ0OtLyHl+v45MGnsqv3neMnXcOGZzP5VZI0Nxtd3Eb6NrPIFARwG5xJrZyI54o+4uR2ov592M2lsqQwABBBDYhwAJuZs6Cbmb1/B735nZg0mcKDh8BykRAQTGF1AzyOW3b4f9vdv4cnuo0V6Z4uBXEu1BjyoRQAABBNoFSMjtRnIPErLU2Nd2eQYaH2T35U+9CBybgF5izcWQD2Jki+F6fPHisM+zOQhqGokAAgg8TAEScrdxJyF389rh3necdrZDXYpG4CEJmIW7e7ib3ENyHq6v/P9/OEtKQgABBBBoCJCQGyTRJ0jIUR5eRAABBA5OoFq1ywW6Dm7kaDACCCCAAAK7ECAhd1MlIXfzYm8EEEBg4gLri/KCTy9YlzLxkaJ5CCCAAAIIjCJAQh6FmUoQQAABBBBAAAEEEEAAAQQmL0BCnvwQ0UAEEEAAAQQQQAABBBBAAIFRBEjIozBTCQIIIIAAAggggAACCCCAwOQFSMiTHyIaiAACCCCAAAIIIIAAAgggMIoACXkUZipBAAEEEEAAAQQQQAABBBCYvAAJefJDRAMRQAABBBBAAAEEEEAAAQRGESAhj8JMJQgggAACCCCAAAIIIIAAApMXICFPfohoIAIIIIAAAggggAACCCCAwCgCJORRmKkEAQQQQAABBBBAAAEEEEBg8gIk5MkPEQ1EAAEEEEAAAQQQQAABBBAYRYCEPAozlSCAAAIIIIAAAggggAACCExegIQ8+SGigQgggAACCCCAAAIIIIAAAqMIkJBHYaYSBBBAAAEEEEAAAQQQQACByQuQkCc/RDQQAQQQQAABBBBAAAEEEEBgFAES8ijMVIIAAggggAACCCCAAAIIIDB5ARLy5IeIBiKAAAIIIIAAAggggAACCIwiQEIehZlKEEAAAQQQQAABBBBAAAEEJi9AQp78ENFABBBAAAEEEEAAAQQQQACBUQRIyKMwUwkCCCCAAAIIIIAAAggggMDkBUjIkx8iGogAAggggAACCCCAAAIIIDCKAAl5FGYqQQABBBBAAAEEEEAAAQQQmLwACXnyQ0QDEUAAAQQQQAABBBBAAAEERhEgIY/CTCVHJvDzf+9/+P3G/Pz83yPrH91BAAEEEEAAAQQQQOBhCpCQH+a4J/V6tZhVfxarpAOOf6f/3rz59/kfP33+p382f86Xv98fvwA9RAABBBBAAAEEEEDgmAVIyMc8un36tlrMdT6ezUjIeX4fzsYmLX/2x3+9+rmPOscigAACCCCAAAIIIIDAPgVIyPvUn2rdmROPZyTk/7669M8bm2xsNj77479vpjqutAsBBBBAAAEEEEAAAQTiAiTkuM+DezVbLeXkMausczV7/C8TgD//0z/Pl/+5cU48ri+9/mz5+4N739BhBBBAAAEEEEAAAQSOQoCEfBTDOEQnMjVzLFZW2zXWzCHnN0s1h/zZ5b9vQouof7DnJ7PWeoj3I2UggAACCCCAAAIIILAHARLyHtCnVmXmmzaWAZnzkPP8v6/etFyIS041n7/h6tZTe5vTHgQQQAABBBBAAAEE2gVIyO1Gu98jy7KV+yfLBqpVFBwuM1s25o7nznwyV+pKGY6f/2Muc81C6xQw9kEAAQQQQAABBBBAYGoCJOTUEbG3PkpZdCwz53zpj7vFKb+NaCrmbufzxcp/aNloWYk5TIdZ/wnFgRKdkuaLpaq2W4dTGY96v98v9Y2gPrv8D3d+OuqxpnMIIIAAAggggAACxylAQk4e1y6JUSZOb0CuXyzaBNzGhvfwstGyFnOc2r9xLWrzqtrwlqh6V0RjE8m79DcZ8bh3JCEf9/jSOwQQQAABBBBAAIHjFyAhJ4+xzKPekClKSkiXcpcqwG5znaxygbY8kXgeKkbH5MA8smh+sSkbqCem6/vwWAqwylpqsI0AAggggAACCCCAwAEKkJDTBy09IqeFS3Xp6MVyuWqeH5yt3BOD2wOqrNGbhPW0clu2txyyyPYG2ON6b93drbf5c3fXu+Z+BXClrn5+HI0AAggggAACCCCAwP4FSMgdxiA1M6ZH6UjlsrL2WCv3LlZS+85gzlbR05prjZFFjpqQ1xcnJ6fd/1ysax0Y+aFYYv3Hf70K3RRq5EZRHQIIIIAAAggggAACCHQRICF30UoLjYMEZOdKWR0TcvvuKZ1O62xKSR33OciEXN4w+fM//VPdNnn5e8cuszsCCCCAAAIIIIAAAghMQoCE3GkYUlLjQAFZXku6PfKKhrXvnNZlUeS490M+vIQs11d/xgRy2vuLvRBAAAEEEEAAAQQQmKAACbnboCTERrFLUljN1H2ZFtHra7WX07XShF6LIsdNyAltm9Iu9z/8u5w6Lv97+cOUGkdbEEAAAQQQQAABBBBAoIsACbmLVp63TxB3CJb66ln60lrB3yTkbqM03t61eHz+5r/j1U1NCCCAAAIIIIAAAgggMLQACbmjaFtETg3IspxgMtYvkJA7jtI4u9fiMacfj8NOLQgggAACCCCAAAII7E6AhNzVVkbbZnJNDMhytyIGz+cLdeMn+Ufc8KlZT73VosD2nesH+x+LIlll7SFyF1cTjz1EPIUAAggggAACCCCAwKEJkJA7j1gsIqelSrnXbL4M3IJJ7NUeejvtnNZlUeS4CfkQ7odci8eX/7lPQ2UvBBBAAAEEEEAAAQQQmLIACXmL0RHZ0c2u4oVIqBR7uYe7TUncrTyo085uPaFHoshIZ0JH93h+8tey/uHf53/8ZK7O9RnxuMdgcygCCCCAAAIIIIAAApMSICFvMxwiPMqMG3i6VoOYg16saq/Jh2mlVUd02lnW/vSP5AAAIABJREFUEt4WRZKQLRPx2FqwhQACCCCAAAIIIIDAsQmQkLcaUV96FMl3JnNzvQJ7bGyvnPshn3b7c7GuSw//+Of/OLPHf/z3zfB1UCICCCCAAAIIIIAAAgjsTYCEvB29jMPlTHDzmUDJYsfYHLIN0rNo4C5rEXvHc3egUZ6nRZHjziF72jKJp4jHkxgGGoEAAggggAACCCCAwA4FSMjb4ooAqTKpeNiWJ8WuoYi8Wsz1nZ7U7/bQK8ps3zmty6LIth6lFXjQe9Xj8b9e/XzQ/aHxCCCAAAIIIIAAAggg4BEgIXtQ0p4Sc8Gz+dwm2vaEKrNn41rWWS0dlzeDWmaNRmWZuDeUvDXUwr1rlNmrWYQuU5ZkdhdFqkY2/oSL08UezW83Hn/+p3+ev/n95oe2n5//ezQAdAQBBBBAAAEEEEAAgQciQELuMdBO0tVzvqFpYVmPDNf6OJGx9VP1327R3trrh4jH4eTua4440L8ZLk729Di23Xs7matYxze4Q/JxDD69QAABBBBAAAEEEHhQAiTkPsPdjJbJudE3U+xG0flitVw4T5GQ+wxWj2NJyD3wOBQBBBBAAAEEEEAAgQMSICH3Gyx3Ijc5HxeVZqule7qxicPzxXJVLmLO5C4k5H6DtfXRJOSt6TgQAQQQQAABBBBAAIGDEiAh7324nPOJV5nv9F59nrDvtb23nwYggAACCCCAAAIIIIAAAkciQEI+koGkGwgggAACCCCAAAIIIIAAAj0FSMg9ATkcAQQQQAABBBBAAAEEEEDgSARIyEcykHQDAQQQQAABBBBAAAEEEECgpwAJuScghyOAAAIIIIAAAggggAACCByJAAn5SAaSbiCAAAIIIIAAAggggAACCPQUICH3BORwBBBAAAEEEEAAAQQQQACBIxEgIR/JQNINBBBAAAEEEEAAAQQQQACBngIk5J6AHI4AAggggAACCCCAAAIIIHAkAiTkIxlIuoEAAggggAACCCCAAAIIINBTgITcE5DDEUAAAQQQQAABBBBAAAEEjkSAhHwkA0k3EEAAAQQQQAABBBBAAAEEegqQkHsCcjgCCCCAAAIIIIAAAggggMCRCJCQj2Qg6QYCCCCAAAIIIIAAAggggEBPARJyT0AORwABBBBAAAEEEEAAAQQQOBIBEvKRDCTdQAABBBBAAAEEEEAAAQQQ6ClAQu4JyOEIIIAAAggggAACCCCAAAJHIkBCPpKBpBsIIIAAAggggAACCCCAAAI9BUjIPQE5HAEEEEAAAQQQQAABBBBA4EgESMhHMpB0AwEEEEAAAQQQQAABBBBAoKcACbknIIcjgAACCCCAAAIIIIAAAggciQAJ+UgGkm4ggAACCCCAAAIIIIAAAgj0FCAh9wTkcAQQQAABBBBAAAEEEEAAgSMRICEfyUDSDQQQQAABBBBAAAEEEEAAgZ4CJOSegByOAAIIIIAAAggggAACCCBwJAIk5CMZSLrxMARunlydn12dn12/ylo7vLlZb+7bd2stZ4QdNq+qfl1drndQ3fr6/Oz68sm7V+tNvPT759fnZ1eXT97dHIZbvDe8igACCCCAAAIIINBdgITc3YwjHq7A/fOrz/7w9ed9fh59df7kw30iYfbh1RMnDN88+Uo14NGVTMgqNjdD3fq62POr8+ctsTCxLbvcbfPqrOzXV7tIyBqtnULv6fDusuOUjQACCCCAAAIIIDAxARLyxAaE5kxaYICErPKtCskJ/fxwWUZxsbMnwmXvzsvdzt7J4F019dFOMmdC4zvtstOEbApvzb0a/NH1TafmszMCCCCAAAIIIIDA0QiQkI9mKE1HPq1WH9XPca8TvVuvd7Ee1yj6N+7X7y6fXHf/uapCbId4XDRAzwObmdVmQm4+UzY99Ly/Y3t+1oTYHeT5wDcInh6X2n/4+nPxlYRnN55CAIE9C6j//9/tuQ1UjwACCCBwvAIk5OMa2+z9fPa/s9mz8me+/HRc3St7c7e+eHx6enry+MVBfETKPlyWS4iL1dGXbafCuiOmo6OeH67n3jL+PWquH9YHHsZ0qGntDhJy41sGV9g+0rY7aIOthC0EEOgtsL44OT09fXzxgpjc25ICEEAAAQQ8AiRkD8rBPvVpObfxuAjJb1YH2xl/w+9ePD5Rn43KPxcp08h66Wx9KbJOZfXn/RVv9+z9+lrMHreu8vVUohdLV8fqFFc+1F3Q+Vkcr3vteUnsNZVN3ZEdrAnXYq0Lp7XYo+ubbHMf/5mK217bYabc9/MtjB6v+t9f/V6qP79XKypvCqwWs+rPouM/U+JfgZOTxxek5CYuzyCAAAII9BMgIffzm9bRHxdiArlIyN8u97jWOvu4XLxZlD9DzGbfrS90NK5+J00ju5+Y7QLa0PMDjam6yJa+rJc68dg5SbhLHR8uH311fnZdXl1Z570iIZdVuFftqko2S4ttf7vUOfa+eiwGScgmuZUZKfTfWl2JR5Xr5A/g4mc7HkLnq5/Wbx920Rj9ninH177PQ8/vog2Uua3AajHX+Xg265iQywlk+W/BgSwn2haL4xBAAAEERhcgIY9OvsMKJzaHLJd8Lz727PfdC7WyWv5JnTsQn5jd1chV2qx/wu7Z0DzPNzfPnanjjiurVQPusw836+rn1XOxXV3z+epSPGn2VLd3KpqvZ573u2DYneULJdXtnneH0hmzxKzrJGTxJmltT6Rqpx1H+8BZGaG+Mth3QnZHZGd/r492QEfuWObE41nnhJznd+sXF3IxUbHiOmVB0cg9pToEEEAAgUMVICEf6sj52y1D6ezZns9Dlo3pl5Brs8cnSXPHRsh+YnZCUW4vTO1+wjYHVhvqbrrFXYjtPFV9F/t4ra8srS/KJa8vbXdTW+YmwJ6AYdvcGtjkDjqrVIerueuW64rJu0a5zev/aK8JuZh4919T7ayY25dvBjPlrm6bHP7RBx7CDbT6D5+vBLkywrzx9LvOd8AOn7N/R+RQ5sl/r3fYNIoOCGSrpZw83nKVdVm4uh6FPeOGkBwg52kEEEAAgW0ESMjbqE37mMlcy3qohCzOOisu0JV09rEYI5GE3TOBzWSj+wlbHFpsmt0SErKtS6+Ldkvb3Ntl73re0hcw7Kd/k0NSNqqikqNpvONu07s/Es0ov2II/9feZfpR8WVEeM/qvO7IlxrleEW61tjBfKFgrhnu76w+8CEm5GyjbrvtfRP63sB+wEGftX/XaicamL+wkffAoC2hsHaBTM0ci5XVdo31FnPIpjr1b4OzsOgwrt5o2s8GAggggMBEBUjIEx2YY2jWMAl5fSEuzXVy0jUeK0j7iTmUkN3na/jmcJ2Q1SpTfwDW81eBj+YqiT1SC6SLieVYQq41oXgoAmd5WeyqnMa+psHePCOfDLSzUeJ2T+gGtycoQ9G+LLzKRQMmZDuB3HaueAm7W7TtqHd5VPbOXoxdvnnMdvv47qZ55n0eTMjRv9e7aRSl1gUy37SxDMhdz0N2K3BCcsflRW5JPEIAAQQQQEALkJC1RK/fn7LyFsTqv5/sJGGPMgcvcMu2ZHpGuuhat0KGSMjyoixbf/oxEaj2Ud4+H/0kbT6IlwnZXKOo9rm8wDH5zTMbacqpri9tYqFnlXVDWu9sYkm5cXb9qnH7KDv/rCO9La3sciRe2l3t1n22Eac6q5OixUy43a2xdRAJWcOm5N49JeRt/RsD0nxCnO4eHlNNZN57avW+mE+u/bVq1rKjZ+zfX/dvkH0++vd6R62aXrFZlq3cP9kg/0jleS4KDpeZLRtzx3NnPrnjlboawu63qFy2qwHEEwgggAACXQVIyAliMunpWw3P5u/Vhwx1ueZvzf2HzcZ88X4V/gySLT2H6A8Jn1bLN/KexmWZ88XHcHkJXYjuslroe0SVnVI7+5sxm327WAXusexVMlyhjfj5ye766q0/+ZhPzPVbH6VFOJNsdeAMLu8050A245Zpg83VOni0Bwy9p40oV6/W+jbLxYWyyytdF8OsO/WHrz+v91dPpzeb53mDFNcbM3dyNlWbjUdX50/KyXDPwU5L0juY0DDzHURwqXNrjhU72KFsWjW7JQ6sv2jeJH/4+nP9PqnvYx+LAbXvB/tysdXb37zlzJCJtt2vfTPD8ZURZTnVlzLibdY+vrWuiYdmgjpQtdi1sWk6WB873bY+DWvUttsn7K2PUhYdy8w5D9yvoDjltxFNxdztfL6I/CuV57ISc5j+d8p/QnGgRKek+WKpqu3W4TZ891+KbRYatdXA6wgggAACD0qAhJww3P7s92a5et+MsiYkF2HSX7g3IauramUfF/UbGj+zBdr46hTrLa08Sn+acfZvPrAJefZmlX9a+TK/bcbsmb9Yv5JovzckRxOyM4G8dT7O81x/Yq5HFx1U6p+wXSMTfsThNlm5n8JNfnPnkHVFTgI0T7ozYG7luYkBxbH6jNlyckydGlqdwasWb2/Uoaa1xUrs2oW4dPPa5tbMPLkMV97tGJ1md4lq/SseGopxV1k/15dVc8bF18DiOa3nbaTubMq1nc2Yer/FKAbRf8Zvcwgi/rIWc6DaX7xtzPNmw5/Yi1uOPXl3kxXvMaXRpb8h0VoL298ntYJ0G8RfzGIP/XaK4NRK2v/DLolRJk5vQK5fLNoE3MaG9/BSQ9ZijlP7N65FbV5VG94SVe+KaGy+6O3S35TRGewfi5TK2AcBBBBA4NgFSMhJI5wVi43V3X0jCdaTAMO3I86Khdlyunj+bTRvP5vN33i/8R80IbcF2qqPb1ZNtuETsrN2rte0QPGJ2be0uAqc9U/Ybu9M5nR3s4uZxQdxb4jSsfYrd9pTf44PBoPNzXMRgIubmeiibMStbr2jM55tVXExbTeo5/rwaCYveu+UU8an8krOJkqZDZdF2OkAE+yg2ddQeMOn2U1tGGEXU+xTjpcGES/oTbHDfXnt8WAX9CHFb1N1TbV4UXfB98WEU0rtW4xA1UP4q+ulF7cNE9PF6kJoX9nroplBNBuPrtJuTqYHN+UbgXr/q8eVp626ffTdkvr9vXbL2vcjmUe9IVM0MCFdyl2qALvNdbLKBdryROJ5qBgdkwPzyKL5xaZsoP871/oRLY/FNPLW5+O0VMHLCCCAAAIPRoCE3G2oPXFUBVex8Lg2DxyY+NW1flzM9ApnE7CdJKxndMPleJqki0r84CHmkG1Cnrv9ylbO2m9fyfKM5Y+r1Udnufj8vXqm+SPpNEr1e31hLlLa7e5OtXLUQ5U3QgnZ97xTRCAhq9s1VXcnttHXhCiT3+wz9SxkDm/m1Y1zy1kxracjrk3IqqnZh8vnH4oNPSl6dn1ZBg+nUp1qRKR3euo8+HB5dnX5XE4b6pezD1XHyyqCAVhXF9xBFygkfeHT7KY2rGc5Z+68WDwQAbj5onqmvoO+iXS58NgRcwrQVbv4epfq1eKLCTP6+kXnt02/kRif9/e3ldoabRx1krD+nsXfNVuQ3dKDu8+E3O/vte3LJLbSI3JauFSXjl4sl6vm+cHZyj0x2Pd/c5dE1uhNwnpauS3b22Jlke0NsMdFtuQ0cp8lR5EqeAkBBBBA4IEIkJC7DXQ9jvpPD3Zyb/Rff2fP2eyZ93zjbBU9CTlzk6eYl45WbTteT8jzN94z22Tfk+60LGeVo6upbVPE1nQ+7gQTsl5rKgKnE5OefLiJHRtJyCIHPnEusOxPyBWbKVDNxVV7irbZBdvhECgGIL4pA1IoVul9pp6Qy55avVC+jSdkZ317TFhXlDLbHBwEbZtWSD0he0/6zT6Is9mDFesXZAOaX/HoveK/+66yjpd+aK+mZsb0KB0RkJW1x1q5d7GS2ncGc7byLnIKNEIWmfgPVaAk+/SQX6raUtlCAAEEEHiAAiTkboMuU2J1sS5vAas39sTdWDh0EnJS7PRWJ58UuTTxg4dMyN6IXhWf2indGtGSWQxB7+/8du7h0WuJtVPsNg9iKVfN3xa3blIFV0t2zTSd2ZAx1bZAJyV/gNy8OnNm+VT5mbydsi2o2jLtLKsrH4r558bcaaOELk/Y0CWrcErQIcrfQbmroWhfZ6tjqp23lwWpbeNg/L0bnvlb02B/5o9+PaG/LinrinRZxkL/G6PeIe/jBH97nN05dOaz3TdxS1v1mENWNfW5UldiSw9mt7TQOEhAdq6U1TEht++eIp7W2ZSS7D7OQuv9/qNhG8UWAggggMAhCpCQu42aSMjhc4xVkSL6hhdIJ+/WpZEil3ZPyNFOiZKTEm/X/Z1e2pOQ935SmUlc0YlBe9GsWh4LBkgTCxOn4HQmCcQqEx2rhcplEhNryHXAS6zOGY7mAxu6gh3UDY7ExapcQ7HfhCzSta/NGtCfn6vF/FVCDnbEWWUQWije5G48k+Bvj+m0sz0stqUHt2dCjlXx4F5LSY0DBWR5Len2yCsa1r5z2rCJIvvdD1lWN6F/NWSz2EYAAQQQODgBEnK3IUtOyJ+W9ppevutaVdUmBukujRS59FgS8p5nA9oSsmfquJiftJnZnyFNLEyLrNWccDB6FZPY1+c2xuvyq0StI00gYIfeY/fZh1dPrs9Dl+mKrfLVNfrSpludbqpnXtfdsct5yOdn15dPfD9lXwJ12TBpJas26IQcHi/zVhH3Vap1wJbvf1fUds97+NuiulZqjwxu6cElIQeJur+QEBvFLklhNVP3ZVpEr6/VXk7XShN6LoocLiFPaOVRAgG7IIAAAghMV4CE3G1skhNyLpYuk5CfJc05y6GY0no5E3sakUldrMveb0mt+61N5IoJw6vGNahMLPQmLpFAapPS3oe+SxDrxhRznjpgh06ylfrltnO1MG+l1XxpaE5VdOHs6jz6Y6+urC62HP2pKm1bZR0IwKprmqIxImW/dbPrJcTHqzi2fQW1LjwhWPb2L7uj/ktCthZT3mqfIO4QLPXVs/SltYK/SchTfk/QNgQQQACBfQiQkLupk5Cr86tTzisWs9nHmJCdAHN2Xd55WIdSO9MbDsnxxCWiVCSdmpfqca54X9uF1h/0/Gcozdb+Hui2mfIjG8G50I5diFTRfEmsHq81vS0AtyZkvUM9xGqT2JS43ic0tW6+bQlPMhfdEeU0+157JuhvYUjI1mLSW20ROTUgy3KCyVi/QEKe9HuCxiGAAAII7EGAhNwNPTkhs8o6z/sk5FyeUTa5VdZq4bG5U/FX50/ExbrKOxi7eVWEZJucxc2ivHPIm/v1h5vqR9/D6dH1K/tk+aq+1a0/tjWClmca3PM3wAaqMow9ujp/cv3quWmP2rA3fAomtINNyHLS1YppzOgydTnWzel6C+u+Q2pjYHfr5W9LtQUGB8vunLYlBtf/3ksrhr1cARltm8k1MSDL3YoYPJ8v1I2f5B9xw6dmPW6bOl7Wq36w/7FsY+LpQP6C5LN2lfXer14hm8U2AggggMDBCZCQuw1ZckJOPME4cbcujRS5NPGDh1gQzpW6PNRm3k+Fpc3N8+tzM4nXWNvcnEMuCxTBySy31omrLWCYMpuJq7qBU+uEahW0ZD73dLR6yvS3nAhdb7y7JoQuHaLaOii+LGhvYUyjbGjLImo9RRzNqHluGm9m3fUz0YRsb6nluWq0LqE+O+0CD+Zvi00YLLtz2lZaX9LKYi8rEIvIaalS7jWbLwO3YBJ7HU9Clt+rckdk+6ZiCwEEEECgqwAJuZtYakIWMTW6wJiEHPK3swGnp6f7nUQ2ieXJBzf/XDfvH2vyW/McVxmSiyXZiQlZRxFPMEspQR/uCWx++8Q0lbCbrvogE3JxS+qzd2KIdXfsrHJHQPNGii6xToBV9SbuVjax087+XtWf1RrxtF8/isftAsHsKl6IXNxK7BWLvom7lc3ttHN7D9UeoshIZ9LK0ntN6eoVuk38RgABBBA4SAEScrdhS0zIYlb2WXQil4Qc9L978fhU/znZa0Q2waaIRiroPnJWVssuRBJykWqKtdnVSteUfKuDkG+W2NTlmVu2bTK1hC9tZXfO7XRuNMWlJTSzUHxjbhntVGUf2EY2v1mwe1Vbm+K+0OEyy/GKTBG37tCoUj1hrsLVlpDtDZndUUuLqZpiAH/bjbSq7f4JWyTkBKTtdhHhUWbcwNO1OsQcdPSfnrTSqsI77VxrUOChKHKohDydfzICfeZpBBBAAIGDESAhdxuqpIQsJ5BnkQtZp982uUsjRe3RT0i2TJHnp7PKOs/XFzogn57sNSK7CVkttM4snrrHknhYRZFwPLt5Ul3Ty2bRyBSrSWXlMumzq0uz5tm85Jlbts2zE9eha0fZfcstnXzcdFffq+McZvNw9xkdC8Nu7v7RR60BuHUHb/H6qOj3EeWR2lDOr5rxapnM18cO6k9C9g7pVJ/0pUeRfGcyN9f7YI+N7eXM4cZ3VBXYQqN119sSeyyKHCghO8uOWGMdw+c1BBBAAIE2ARJym5D7ukjIz+bLT+6L5SN5ja7QPuY45pANRXPDnlR2enq6x0889YTstlQmH3F+cnlpa3fX2iMTC71X6rI736/15biq04mvLs250PELLzXbFo3TRZW6VS1zmDrIpQZv2x3flq70SBJysULbPffbflXR0kdNMaj/dBNypt/bZ55zFnxvlV0/d3e3Lv7c7bqiWPkyDpffczafCRwvdox9QyoD6nEkZOcb1T3+cxEYF55GAAEEEDgoARJyt+GSCXk2+3axqoXkT2I+9tmsZQL52OeQc5H/Z28CF4yJ+Tur5vY3jRxPyLmINCYhtwdRsZ45MocsdOo5WUXT6HWtMh1i1W6ikW2LhEWaCkX3D5dnX8k7GCd8HSB64tnUzYv3yHOg7yk92RtcsN26g69Us6Y9WKxzlMavZozFw7bh3oW/KNNceMxpbvcHHXoULLz2DU6bTLCcwV5YXzw+OSmXrqh1K3tMySLBqgArHrbNuIpdQxF5tZjrOz2p38eQkJ0J5P39WzHYO5GCEEAAAQT2K0BC7ubvJuRns9mz+fzNcvVxtfq4XL6Zz/63ul3wTL3k/3ySfVoV+xf/fW8P0eWIV1Wxq3oItw3OsnIH97+iGfOl+1KgNJHqB11lnTvT6eoLheX7eu/EAmXbMbvlTCPv63NPS0LOVXZ9cl3+qLsxtfTJ9M7EwlAQNXuajc2NuctUmcZDM28mHtupSB1p2pbv2tNoy/lhs667aIVzF2g9TZqw8Nh0wbthKKKZ33to80kzXuYLC+9GtzRuWpiaMOWk8fmZuDfYc/+1wW0/ZPsfXb3a0t+cBF6/Ndele9cufUcxe8cy25Jqa2P2ERv6DmTVm8S5E5jaLeFvgSXSb6S0bx8aDRzoCSdlnZ6e7ut/OEV3xFzwbD63ibZTnFXp1/1qMqul4/JmUMvmaGWZuDeUvDXUwr1rlNmrWYQeFlmS2V0UqRrZ+BMuThcrfrvfpTKBLGjYRAABBBDYSoCE3I2tmZBlJJbbjellXdHqjdytfXv+PvRZQSRbFciTfnyliXKGTch5K1dgpbq2ynP50WdfF7U2iaVt9tU2O2nLhK6khOzMIT+6OjezuM3LhsmpOXGvZht9W0KybpgMlibjySfldrfAWQPSNfYqRJdpxks2r7ndrS7z/ULSYBVN0YfIqpOmSbWGPLCzv692WWBtO7JcX76dakeFHra8waqRmlpCdr6PUwl5v1FLTAbbGV//1676rV/+luFaHykytn6q/tst2lt7/RDxOJzcfc0RB/o3w8W5fVWPxCWs9/29RrNxPIMAAgggcJACJORuwyYj33zuzBjbgDp/4/lK3tTzkBJyXp9Grsf41oRcfvwRl+zaw4dWk7jOrsxc8SAb1X2V21LTfeauaq7mjcV8sl3Uvbl5rqcrfVeEspmkmavNO1RtuDU2g1Bx+Ksncq11n+lfnQm7pVanxfZBOV6Pvjo/qyb2Q4OVvjjcunX5lsQeVQKm5caiI/39DyAh28uDVz7p3z7Y0R5wa1JzyOrq6XKetQiSybnRN1PsRtH5YrVcOE8dZkK+c77X2O81HQd8L1IUAggggMB+BUjI3fxFQlbTrdnq/WL+rcnGxYrrT6Ep36qmh5WQ8zz/tFp8axeTu3PdCQk5V1e11icHqimCk8cj3/vJJORmUBzkmVBCzjY35opcVYQQ17Iu307Zu8sn78p7KbmTzG33oyoLPLuuLeIVfx0atZvO2qM2r8yq717hdicJeaslu6pH52fqx+ZqMV3fsUw3ptovMgRzcLOnv1u1GbvQxj7mkFXXJ3WlLrli5WTPM8jF+8KdyE3Ox8Wx2Wrpnm5s4vB8oZdeZ3KXA0zItdnjKQxZ8O8zLyCAAAIIHJIACbnbaNUScreD2XtrAfeTUHFp6/Euo7OHhKwTo8kzj64un8fOFHWncxtB2oV35jbbYtt9Jk8x9d6FWJ+n2vLdkNsI55Hub6+YrUvUc8gd02x1uINj/MuNLhPIujV9f4/i37eRR3L8+qK6TNd+L54/qKZzPvEq8/0d1ecJ+14btC2DFnYnLqtWLjIa+ZvTQXtDYQgggAAC0xIgIXcbDxJyN68B926EZDWXvMeLzfbvmomFvsWl5uTPYsK2nCWOVWlifOjaXbWDy/JD09e1nXf+0FD0WaqtW7m+riaB1/qZTr+NvIzHLd9QdKqAnacpIP4Pw2TkNIeoatXd+sXFY3PqjY7HB/2PwaS9aRwCCCDwAAVIyN0GnYTczWvYvYtZA/nBaK8Xm+3dN7Og15eQ8/x+HZk09lR+87xl6rhxzOZ+KrNGhuJqu4nfRtd4AoGOAnKJNbORHfFG3V2O1F7Ouxm1t1SGAAIIILAPARJyN3UScjev4fe+M7MHkzhRcPgOUiICCIwvoGaQy2/fDvt7t/Hl9lCjvTLFwa8k2oMeVSKAAAIItAuQkNuN5B4kZKmxr+3yDDQ+yO7Ln3oRODYBvcSaiyEfxMgWw/X44sVhn2dzENQ0EgEEEHiYAiTkbuNOQu7mtcO97zjtbIe6FI3AQxIwC3f3cDelmd7zAAAgAElEQVS5h+Q8XF/5//9wlpSEAAIIINAQICE3SKJPkJCjPLyIAAIIHJxAtWqXC3Qd3MjRYAQQQAABBHYhQELupkpC7ubF3ggggMDEBdYX5QWfXrAuZeIjRfMQQAABBBAYRYCEPAozlSCAAAIIIIAAAggggAACCExegIQ8+SGigQgggAACCCCAAAIIIIAAAqMIkJBHYaYSBBBAAAEEEEAAAQQQQACByQuQkCc/RDQQAQQQQAABBBBAAAEEEEBgFAES8ijMVIIAAggggAACCCCAAAIIIDB5ARLy5IeIBiKAAAIIIIAAAggggAACCIwiQEIehZlKEEAAAQQQQAABBBBAAAEEJi9AQp78ENFABBBAAAEEEEAAAQQQQACBUQRIyKMwUwkCCCCAAAIIIIAAAggggMDkBUjIkx8iGogAAggggAACCCCAAAIIIDCKAAl5FGYqQQABBBBAAAEEEEAAAQQQmLwACXnyQ0QDEUAAAQQQQAABBBBAAAEERhEgIY/CTCUIIIAAAggggAACCCCAAAKTFyAhT36IaCACCCCAAAIIIIAAAggggMAoAiTkUZipBAEEEEAAAQQQQAABBBBAYPICJOTJDxENRAABBBBAAAEEEEAAAQQQGEWAhDwKM5UggAACCCCAAAIIIIAAAghMXoCEPPkhooEIIIAAAggggAACCCCAAAKjCJCQR2GmEgQQQAABBBBAAAEEEEAAgckLkJAnP0Q0EAEEEEAAAQQQQAABBBBAYBQBEvIozFSCAAIIIIAAAggggAACCCAweQES8uSHiAYigAACCCCAAAIIIIAAAgiMIkBCHoWZShBAAAEEEEAAAQQQQAABBCYvQEKe/BDRQAQQQAABBBBAAAEEEEAAgVEESMijMFMJAggggAACCCCAAAIIIIDA5AVIyJMfIhqIAAIIIIAAAggggAACCCAwigAJeRRmKkEAAQQQQAABBBBAAAEEEJi8AAl58kNEAxFAAAEEEEAAAQQQQAABBEYRICGPwkwlCCCAAAIIIIAAAggggAACkxcgIU9+iGggAggggAACCCCAAAIIIIDAKAIk5FGYqQQBBBBAAAEEEEAAAQQQQGDyAiTkyQ8RDUQAAQQQQAABBBBAAAEEEBhFgIQ8CjOVIIAAAggggAACCCCAAAIITF6AhDz5IaKBCCCAAAIIIIAAAggggAACowiQkEdhphIEEEAAAQQQQAABBBBAAIHJC5CQJz9ENBABBBBAAAEEEEAAAQQQQGAUARLyKMxUggACCCCAAAIIIIAAAgggMHkBEvLkh4gGIoAAAggggAACCCCAAAIIjCJAQh6FmUoQQAABBBBAAAEEEEAAAQQmL0BCnvwQ0UAEEEAAAQQQQAABBBBAAIFRBEjIozBTCQIIIIAAAggggAACCCCAwOQFSMiTHyIaiAACCCCAAAIIIIAAAgggMIoACXkUZipBAAEEEEAAAQQQQAABBBCYvAAJefJDRAMRQAABBBBAAAEEEEAAAQRGESAhj8JMJQgggAACCCCAAAIIIIAAApMXICFPfohoIAIIIIAAAggggAACCCCAwCgCJORRmKkEAQQQQAABBBBAAAEEEEBg8gIk5MkPEQ1EAAEEEEAAAQQQQAABBBAYRYCEPAozlSCAAAIIIIAAAggggAACCExegIQ8+SGigQgggAACCCCAAAIIIIAAAqMIkJBHYaYSBBBAAAEEEEAAAQQQQACByQuQkCc/RDQQAQQQQAABBBBAAAEEEEBgFAES8ijMVIIAAggggAACCCCAAAIIIDB5ARLy5IeIBiKAAAIIIIAAAggggAACCIwiQEIehZlKEEAAAQQQQAABBBBAAAEEJi9AQp78ENFABBBAAAEEEEAAAQQQQACBUQRIyKMwUwkCCCCAAAIIIIAAAggggMDkBUjIkx8iGogAAggggAACCCCAAAIIIDCKAAl5FGYqQQABBBBAAAEEEEAAAQQQmLwACXnyQ0QDEUAAAQQQQAABBBBAAAEERhEgIY/CTCUIIIAAAggggAACCCCAAAKTFyAhT36IaCACCCCAAAIIIIAAAggggMAoAiTkUZipBAEEEEAAAQQQQAABBBBAYPICJOTJDxENRAABBBBAAAEEEEAAAQQQGEWAhDwKM5UggAACCCCAAAIIIIAAAghMXoCEPPkhooEIIIAAAggggAACCCCAAAKjCJCQR2GmEgQQQAABBBBAAAEEEEAAgckLkJAnP0Q0EAEEEEAAAQQQQAABBBBAYBQBEvIozFSCAAIIIIAAAggggAACCCAweQES8uSHiAYigAACCCCAAAIIIIAAAgiMIkBCHoWZShBAAAEEEEAAAQQQQAABBCYvQEKe/BDRQAQQQAABBBBAAAEEEEAAgVEESMijMFMJAggggAACCCCAAAIIIIDA5AVIyJMfIhqIAAIIIIAAAggggAACCCAwigAJeRRmKkEAAQQQQAABBBBAAAEEEJi8AAl58kNEAxFAAAEEEEAAAQQQQAABBEYRICGPwkwlCCCAAAIIIIAAAggggAACkxcgIU9+iGggAggggAACCCCAAAIIIIDAKAIk5FGYqQQBBBBAAAEEEEAAAQQQQGDyAiTkyQ8RDUQAAQQQQAABBBBAAAEEEBhFgIQ8CjOVIIAAAggggAACCCCAAAIITF6AhDz5IaKBCCCAAAIIIIAAAggggAACowiQkEdhphIEEEAAAQQQQAABBBBAAIHJC5CQJz9ENBABBBBAAAEEEEAAAQQQQGAUARLyKMxUggACCCCAAAIIIIAAAgggMHkBEvLkh4gGIoAAAggggAACCCCAAAIIjCJAQh6FmUoQQAABBBBAAAEEEEAAAQQmL0BCnvwQ0UAEEEAAAQQQQAABBBBAAIFRBEjIozBTCQIIIIAAAggggAACCCCAwOQFSMiTHyIaiAACCCCAAAIIIIAAAgggMIoACXkUZipBAAEEEEAAAQQQQAABBBCYvAAJefJDRAMRQAABBBBAAAEEEEAAAQRGESAhj8JMJQgggAACCCCAAAIIIIAAApMXICFPfohoIAIIIIAAAggggAACCCCAwCgCJORRmKkEAQQQQAABBBBAAAEEEEBg8gIk5MkPEQ1EAAEEEEAAAQQQQAABBBAYRYCEPAozlSCAAAIIIIAAAggggAACCExegIQ8+SGigQgggAACCCCAAAIIIIAAAqMIkJBHYaYSBBBAAAEEEEAAAQQQQACByQuQkCc/RDQQAQQQQAABBBBAAAEEEEBgFAES8ijMVIIAAggggAACCCCAAAIIIDB5ARLy5IeIBiKAAAIIIIAAAggggAACCIwiQEIehZlKEEAAAQQQQAABBBBAAAEEJi9AQp78ENFABBBAAAEEEEAAAQQQQACBUQRIyKMwUwkCCCCAAAIIIIAAAggggMDkBUjIkx8iGogAAggggAACCCCAAAIIIDCKAAl5FGYqQQABBBBAAAEEEEAAAQQQmLwACXnyQ0QDEUAAAQQQQAABBBBAAAEERhEgIY/CTCUIIIAAAggggAACCCCAAAKTFyAhT36IaCACCCCAAAIIIIAAAggggMAoAiTkUZipBAEEEEAAAQQQQAABBBBAYPICJOTJDxENRAABBBBAAAEEEEAAAQQQGEWAhDwKM5UggAACCCCAAAIIIIAAAghMXoCEPPkhooEIIIAAAggggAACCCCAAAKjCJCQR2GmEgQQQAABBBBAAAEEEEAAgckLkJAnP0Q0EAEEEEAAAQQQQAABBBBAYBQBEvIozFSCAAIIIIAAAggggAACCCAweQES8uSHiAYigAACCCCAAAIIIIAAAgiMIkBCHoWZShBAAAEEEEAAAQQQQAABBCYvQEKe/BDRQAQQQAABBBBAAAEEEEAAgVEESMijMFMJAggggAACCCCAAAIIIIDA5AVIyJMfIhqIAAIIIIAAAggggAACCCAwigAJeRRmKkEAAQQQQAABBBBAAAEEEJi8AAl58kNEAxFAAAEEEEAAAQQQQAABBEYRICGPwkwlCCCAAAIIIIAAAggggAACkxcgIU9+iGggAggggAACCCCAAAIIIIDAKAIk5FGYqQQBBBBAAAEEEEAAAQQQQGDyAiTkyQ8RDUQAAQQQQAABBBBAAAEEEBhFgIQ8CjOVIIAAAggggAACCCCAAAIITF6AhDz5IaKBCCCAAAIIIIAAAggggAACowiQkEdhphIEEEAAAQQQQAABBBBAAIHJC5CQJz9ENBABBBBAAAEEEEAAAQQQQGAUARLyKMxUggACCCCAAAIIIIAAAgggMHkBEvLkh4gGIoAAAggggAACCCCAAAIIjCJAQh6FmUoQQAABBBBAAAEEEEAAAQQmL0BCnvwQ0UAEEEAAAQQQQAABBBBAAIFRBEjIozBTCQIIIIAAAggggAACCCCAwOQFSMiTHyIaiAACCCCAAAIIIIAAAgggMIoACXkUZipBAAEEEEAAAQQQQAABBBCYvEAkIW82m1v7Z7OZfF9oIAIIIIAAAggggAACCCCAAALbC/gS8ub29cunX/r+vHz5+pakvL02RyKAAAIIIIAAAggggAACCExXoJaQVTj2RWPnuZdvScnTHVFahgACCCCAAAIIIIAAAgggsJ2Ak5BvXztTxy9fvtZ/Xr586r5ESN7Om6MQQAABBBBAAAEEEEAAAQSmKuBJyE+fqrXUzWniYvF1lZOfPmUieapDSrsQQAABBBBAAAEEEEAAAQS2Eqgn5Jbke/varLcmIm8FzkEIIIAAAggggAACCCCAAAITFXAT8m3rdbg2b/VFvFqy9ET7S7MQQAABBBBAAAEEEEAAAQQQ8As4Cdm/i/usOVeZhOzC8AgBBBBAAAEEEEAAAQQQQOCwBQ4/Idfu2tw8f9ozQM4xvnOuPceIp+ThSfWJY+WmU47nzG+5b21bHnq76XZsrSgeIoAAAggggAACCCCAAAIIFALjJmS1Rru61tfr28gIiLXcwf3UhcNMaebs6C+//LK80piv9M3t29feQ7788suUOz2Xx8u6ym197O1r3buWk7SLtjfLedp+v+kteu2T4DkEEEAAAQQQQAABBBBAAIGGQNeEnJJdG5WYJ4ZKyKKcZs5Ucbd5M6pbG869h6ho/TIYx/NcRdPQgfrYpIS8eRsrp8zqBszZ2KLXzvE8QAABBBBAAAEEEEAAAQQQiAl0TMjiWtaRNBmsUGS86OFqvzKOPvXsZ4NoGU3fvr0t/rx9/bqaIvYlZHsV7qfqPs/mGGci2led6o05+7pqlbpVtCrh7Ws1ka2b+rp1DrkWj1++rtr+1p0P9zVjq14HR4IXEEAAAQQQQAABBBBAAAEE6gKdErIIrr4MVy+7+XiIhCzD6mvvtbc3t2+bzxfZXi+HrrVM9ssTrnPxvYC6EXSjcDW/rNdXl2nZV4rK2eWr1Zxz/RTmWDO27HWtozxEAAEEEEAAAQQQQAABBBAIC6QnZJvf/MuYw3XYVwZIyLYZ3UL6bfROVqJhjXBrJ29VPK7HWt05kX4DPqLlwaaLupzJc3Gs87yund8IIIAAAggggAACCCCAAAK9BRITsk1oav5z65Amgmi0DFtdo65QhuwpES5WRN9wPla1y2lez56inEjfzTLsp07Pw83r2W8ORwABBBBAAAEEEEAAAQQQ0AIJCblYQyyWBwenUXWZ4d8DJGQRnp0MGa406RVRrJtfTe51I6uvUNG7ZkK25TRfk4XpQtz5atG8IXstK2YbAQQQQAABBBBAAAEEEHjoAi0JeePeHilwHm8yoo5/X375pZtDayWIQNjYz8yyqtlsdfnp0LrnWpm+h5vytsL2El+NGfJYSxol2pneRgqOvOQWEyAastduhTxCAAEEEEAAAQQQQAABBBAoBSIJ2YbDAbJoWVsg/jUGw1btmzG1abO6iPTTl6+bl89qFKqe2KhbGr9+6Vy/2kyPV6U5mdzW1Qi9zQrCO4uO16qLPHRrtIVX7UzvdbOlPIMAAggggAACCCCAAAIIINAQCCRkN9H1nKm1lYpinRxq9yi34gm5vDlxdY8lmTCjQVlNh8udQ9tOJhcNdvNqvcXFYxti6zuLckL1Np9vFKIume3ZLfXrAW+beRIBBBBAAAEEEEAAAQQQQKAS8CVk995Fnrsbba0ngmKvhFw0QE0HNxKjWnftOVG6ni2fqhsalzcj3mw2mzwPZHLR4Hpe9SDsOCF37rWniTyFAAIIIIAAAggggAACCCAQEmgkZBGPvff+DRWU9LwInP0TclVjEZRrM6u1NGuukqXuw+Q/cXm8hFxrW5Jbc6eEXjcP4hkEEEAAAQQQQAABBBBAAIGIgJuQRYIdbGW1rFyUH03IdjLWWfMsi6ptb9QVt01Odi8EnVJaICGrWzhVC5vbWyJ614jBXcqpdS3yMNbryGG8hAACCCCAAAIIIIAAAggg4BFwErKZa22/s5GnqISnYhlSHC52a8+l7nEmJNuMKkoLx/JQglUHl2U+tSWKKsWmvNx0Y98O5Ygikzaj9SaVwE4IIIAAAggggAACCCCAAAJ5nouEnJQke6KFgqhTrIx8nRJycTZxFWhtRr19XUXcSMbV+zTu9qQmkU3qDgdsdZlsk6XVWu7GudCyU9FyHIqkB2LgmvUmlcBOCCCAAAIIIIAAAggggAACMiGbCLerCWTFbWOkuxBaDoVN0c28KvfzbHuzoki/gQBpW+WpURwekTF6ZZz2VCTaFonqVaeKq4d5Ouh9SpTsqdd7CE8igAACCCCAAAIIIIAAAgg0BOwcspksfaquXp34p1Fe2xMySXqCojqb2M7ZevKqmtMNXGwrt/O9bvy2kVtF3E2tiU489tXo7FDg1Eu4fWtPgQ4mZNE8VUuwE4rgZX3qfIte1xrJQwQQQAABBBBAAAEEEEAAgRYBk5CdHGjWFcc3PBG3pbq8yIk2Az8tbrv09vb29u3b1y+rnPn09VuzYrkeFcWls15Wt2u61UeLYt11zCb8q2iqanyraiyqLDv49OVrk8wbNZYz37ZwtYi6KqJotL6U1+tbG8UDc7mN/K/6oJpStsa2od4IUXJyr9uHgj0QQAABBBBAAAEEEEAAAQSEwPgJWWXkSPAuUreN6/WoKBJyqBBfbrcJs3mUms6Vy7/ddF1ZqRY5IblWThGJbS2BhFx8QeBOktfKKR82lnPbkr37F5PSjVOfxTCziQACCCCAAAIIIIAAAggg0Cqwj4RcnI9s5ktN5FOzu2/LRdCRhFzcCDgQVp++fF0V4On35q24HZSpVC92jtSoy/LdgrhcL62zqc2x4YSsOn/79nUobz/19yF6SKzXuvH8RgABBBBAAAEEEEAAAQQQaBMwCbltx128vtlUK4xvb2839fODWyrcyIPTj5dHdayxapAswT2pWcwze+eh6z1ySlIC7Q3astf1mnmMAAIIIIAAAggggAACCCDQFNhrQm4256Cf0avH3euEHXSXaDwCCCCAAAIIIIAAAggg8IAESMiDDba5HljjLOLBqqAgBBBAAAEEEEAAAQQQQACB3QmQkIeytSchN64uNlQVlIMAAggggAACCCCAAAIIILBDARJyAm77CcL/z97960Zu3X/jV2FEuoIn1xF8KwGr2teQMim0ULX1z7Dz5ArWMrAO0qU1Fq4eA5rCQAz3SRn7C40BVw6wLn0D8wNnhocf/idnOBRHei0WEWeGPH9ehxvrPeeQLG709cknnwy6CHlAtXYhQIAAAQIECBAgQIAAgTkFJOR+7Wx2uON+0R9KTzk2gdwPag8CBAgQIECAAAECBAgsUkBC7h+WdIHxJ5988sUXX3xV/Pmi8tCm7aOV+wu0BwECBAgQIECAAAECBAgsUEBC7h+UmJDTg5TrG198lT8Xub9IexAgQIAAAQIECBAgQIDA4gQk5AFD8iFbSF2ZLo4J+Ysvvhr9POcB1dqFAAECBAgQIECAAAECBOYUkJDn1FYXAQIECBAgQIAAAQIECCxXQEJe7thoGQECBAgQIECAAAECBAjMKSAhz6mtLgIECBAgQIAAAQIECBBYroCEvNyx0TICBAgQIECAAAECBAgQmFNAQp5TW10ECBAgQIAAAQIECBAgsFwBCXm5Y6NlBAgQIECAAAECBAgQIDCngIQ8p7a6CBAgQIAAAQIECBAgQGC5AhLycsdGywgQIECAAAECBAgQIEBgTgEJeU5tdREgQIAAAQIECBAgQIDAcgUk5OWOjZYRIECAAAECBAgQIECAwJwCEvKc2uoiQIAAAQIECBAgQIAAgeUKSMjLHRstI0CAAAECBAgQIECAAIE5BSTkObXVRYAAAQIECBAgQIAAAQLLFZCQlzs2WkaAAAECBAgQIECAAAECcwpIyHNqq4sAAQIECBAgQIAAAQIElisgIS93bLSMAAECBAgQIECAAAECBOYUkJDn1FYXAQIECBAgQIAAAQIECCxXQEJe7thoGQECBAgQIECAAAECBAjMKSAhz6mtLgIECBAgQIAAAQIECBBYrsBZJ+TfHr//70Px97fHn58W+sPjv//zUPz98PjL07bnmdX+YW9Ldc6BXa9WqzH1ZfuvxxxgXwIECBAgQIAAAQILEjggIf/39g//7+J/vsn+fvbfJ+rKb28/+27fhl1L0v/+4bvrz/47e1T+8PbvX1z8+ZOGv3/64vrv/xGVjz1Pfvnn9Z/+v8R7/c2HYws8x+PLCHuNP331cKq+rFd3N1dXV5c398Mj7+ru8urq6ubuXkw+1bAolwABAgQIECBA4JQC55iQQ0RPwbi2cf2P2dL7f25DeEsprrJx/c1/TjmOz7vsD2//UsTjDPaEsXDBknMm5PX9zWWWdXd/7gZOI4ejLi9v7qTkBZ9NmkaAAAECBAgQINAocH4J+eGzfAY7pOLrNK29e/MP372da8X1w9/L4W07kxwnPLeJ7ou3L3Bt8C//efv3r253f4+a9a19B/Gnl+t5ffovC9aruzwa738OnEbeTSDHY8dMPzf+H5Q3CRAgQIAAAQIECMwqcHYJuTSBnC2oDlyPP/93v/p6vuXfpfCWLaiO7cki4nb19d9f5ARynPM8SsAccjirtpvF9zJTT6ev77OV1fHPmLng9er+Lk4+b1dcD5yArvbRawIECBAgQIAAAQLzC5xbQv75f4vp4j/+b4yjhd3PvzW/X+wx3VYMgX/5Z3O9v3xofn+6Viy0pIhzVELebGJRf/7khV6HHIb5RAm5Mnt8OXDuODQs28yuXy5WaAvJFR4vCRAgQIAAAQIElixwxgn5+h+/Pb1sSG5iW3U4As7FkQk5K9q9rAvgkyTkcBXx9gZdQ68+LppVbGVllSaiR9ztqyjFFgECBAgQIECAAIGZBSTk48BDCJSQq5QBZ4qEXC3+Jb8+QUJe3YVbc11eHhOPdyNTCskHTke/5DHWdwIECBAgQIAAgacQmCsh//xbeHDxfx9+PnT6N6yyNofcdcL8ks+4Zs9nPuDZSB8efyk/27mrspbPFpiQSyz/efjlAJlyZ0sFHl1aueyOV5Mn5HiTrenSbDl1u21Xx4j6iAABAgQIECBAYBkCHQn5t4d//Ov6j8WNo6//+K9tsg33yuq/Ida2kMqNpvN7UFfuszUI5Dkk5HBzr7ZLl7cWj9/kz1huuXVzEZOKcj48fPNV9U7a2eORvrgdlpMf//3P28rdkvPnPF//5auHjjtyxzycH1J55FXDywlWXw85cVpYdjceL99frV7cKZzrtYx6p2hSulPXL/+5/Ut+wvz5k+u/ZCM+9AL48vrqKZNsueQDJqbX+a2/xtwwbJSlnQkQIECAAAECBAgUAs0J+fEf/ypuiJUH2ovtxvVn4aPuhPzz/96GgL07vPq/Yx/LJCEXY7cpx6QPD7v7Zren09t/h4MbNvtL6EraUyfk4guCWo/6OlLuWxYdG57IVYrrLd9B7Aqa2rncvINelZu0aR36v3w15DFjpQnkKfNx1rdjCq/cWHuCpd8HaTuIAAECBAgQIEDg5QjUE/JvjQ8cribbXWzuSMghysZjG4J3S0h+/Md38cCh23/418NpRq8jsJWyViXOpSm+olUnmEOuVNr2sqExqVm1JyrtCvlTMS2ZutkcUBeakIN2YGmcZm8Lk0UcDSUkjYaNLucEftRG0aQ/fXXb9ETuolWd4X/biNJa6AOmeXt6EqaRR67fLl3JnN08TETusfYxAQIECBAgQIDAsQLVhFzNpX/87vYf/7u7hPhtnD3uSchhJfb/fHPxx3+9/b584fHP/739YwjATbG22pLyVHZrYG4q6lik7fHnkpC3a6GLC2If/11adN0cbjebSu+u//7P8oLq8vRycwKMVz5vr2GO673/8s+H7Iro2t/2K4ErTSoi358/aetFfaCLJNm01Ly6pLxYrF4qqVRIHpIPcy6Ve8SL5ib9/Z9vt8Jv//5F6SuA5vHKq1/dpZtOH/Z0p7yg1p9xGnnMFLWE3ErqAwIECBAgQIAAgRMJlBNynPj9w3e3lVibNeG3hzi12zKHXAq3bU8t3mzibvXbbsVPW/NwPTa/5ITcsqQ2Rs3mG26Xp39br1j+91f7mPqnL972LNjenq6x2AOuNy7dKuw/8frqoQk5NTiLx20XUZcmzxt9qnH0YOfp/hFXm9TQu/5+7ZpzaHwd05lDQ7hV1mOU7UuAAAECBAgQIDCBQCkhx/XVt9+3lR7mh5sTctihL68WNdaD9M//Ld3++vvty3CB9PVn+8nt8m6/Db07UVv/2t6vBLbddGiYJs3mXetzpA13SwrrflsmLXdNKJJty0LZGJOuO243FYNiU1ItlfNNMf9cl3j85qu3w+74lR17ZEKuVB9KG5iQY7+6DgklXzSNSCznGOdKh455GZt00XJ6bDbhTGudRi7N006/xHrXydJC63GVuFPXMeeJYwkQIECAAAECBMYKhIQcJ5DrebUoOATgxoT8/b/SlG97zM6LSzu3XI2c75f/DI2sTzvnO834M4SrxunHpqaE3G74IR0AACAASURBVNKUx9IhIxJya0baFhYa2fRc4tCe1hyVGjVmo6feMUWV83ZX3C1KDf3qdN5s4j3PvqhfjVzE0aOci5Ydv1U06c+fdJx4xSnUujS9uAh55EXCozoxTy2jmmRnAgQIECBAgAABAg0CISGnsPo/33SGz56EXKyOHhR6i9L64/Rms5GQwyAWMemY5DZtjg3Ne+I55NCvjgy5b2+YZq/H72mco8zR26FJX3Xdmq4fIWbXcbO7Yzoxy0z1mAbZlwABAgQIECBAgECjQJGQByfbItNeNM0hFwun+5ZYbxtUlNYZy/PGS8i5RO/MZ7FjiEkNc8ghHPYnyaLQAVvd9Q4ooLRLKK0eYkt77l6EfvXvHwqvI4Q42jDDXFQdCmlwLvabYCs0qTMhx4XWjRPpR6x/HtMNCXmMln0JECBAgAABAgSeTqBIyCHZfvf2544WFZm2JyHXb6PV+Y6EXEEvlsi2TBGHmHREchuVJCtN7H45bWIMpfUn3vLdufv3D4XXw+00zt1WIz8NTepOyOF+XRLySGS7EyBAgAABAgQIvECBxoTc/UjhUyVkq6wr5988CbmopfVS1Uq7Br/sjJ2DS8l3DKX1J96YkFu+X8jL3f0MFy3XbmYW4ugR30SU6zvyVWjS4ITcfJH53KusT3m185GoDidAgAABAgQIECCwWUxCHnTRsuuQS6dsiElHJDdzyOXbgL2sOeRNTMhjnlVcOhN7X8xTS28z7ECAAAECBAgQIECgR6BIyCe4Dvm72380PbFp99ym6v8Oe0qT65DDgE6ekOuX4Ibaxm+GWd967BxdXChtyBzyZlTyD4XXEaZxHt3hrgNCkwbPITeust7McoXwTFc7d4n5jAABAgQIECBAgMAQgSIhbya/l/X/fDNo4fSQZqZ9nllCbl74uu9tsf65ZZ1wiElHzCGHcDhBjk0j1TcxG3cctB3aOSghh/3robdaY2ecnsa5WuVRr0OTuhNy1+rxXQvW9zdX+Z/L09zNeoYqjtJ0MAECBAgQIECAAIFcICTkTbjA+JjnIYcQ23grr7zqg36Gwgfd2eugSkYcNCqG7csNoWUJCTne7rizPSNYdrsGnAmydyhtUEKO/WqePi06FAJnw3cN3Z8WpYQWTtDfotyGrdCkzoQckn/r1wSruzwgX12eJCKXpqlPt5K7gclbBAgQIECAAAECBEYKxIS8KW5n3fVI5BCkm572tNn89vaP/+9id9vqgVcXD2/0c0jI4fbCXTfH+vDw9y8u/vxJ9vekc8ibTRG3/vzJlNFu2sQYShuWkEv96joklHzRlKULn5aB2J+/sZza7b6Gn+ND9iya1DVk4UzranlxkfDV1dX0CbaUwEcXv76/u7m8zBp2t1oPobEPAQIECBAgQIAAgSMESgl5E/LnxR++u/3+t6aSexPyJi7Yvpg2JIcWnu0ccim5NSfSX/5z+5f/bx+PtyG5MeAVMakr/2w2vckt7vDnT1onG7OzYZvbm2Jk06lSni3/pWmX4e+FRjZqNJQUZlAv/vTVQ3MDQoxs6ftkzg1NPPCtokn70+NDvaBilf6fP2lM/umQ0iroiaeRSxPIY8uODbu6uhp7eOqgDQIECBAgQIAAAQIDBcoJebMp7te1nQS+/uy/j5VnI//8v7d/CFPEzSk6TCPvy/nfh58refu3x+//+/az767/8P9GLMZ+Fgk53kTqIptGDvHml/+8TVPHuwnk3f/+/T+PtSEtYtKRCTk+G2lb3fVfvnr4JbQqu6g4y8bXf9rn9s4UnRpaCp8Xf/ri9pt/Pvz7P6W/Tan18ZfyPrtDvvkq1F7fodzavAkF0XYqvkS92Tz++5+lbyJakn9RyNHOebuO/Vk0KT9JrktnyIeHb/IFCNsd+r5TKE0jTxhEY8Qd/5ynUrrOEvKELTt2BBxPgAABAgQIECDwPAWqCXmz2Tx89t1+jfRupfQu4qaF0+HNzqXU/71tOSSLxJVC/tD9BOZA/zwScrxENk84ccZ4t3399yIT7t/5ppQDi5g0QXIrp9nQqpRLSy1snZINg1UL3qUStlU0Ju2iX6EZ9WNL77SE280w6qyodsOiPe37ZN0Os9zNSwNKNke9KJpUI2oYrwFLvmOUvbq6muaOXeEW1gfNAEvIR50kDiZAgAABAgQIEDhAoCEhb2ozydVAW823372tzDPvG/Lb26aw3Vja0CXTzyQhbyrTyKWwF2Y7Swtla2uAi5g0TXILVz7XclephX/5Z8uK5foZ2Bq8dwWePiFvNrUl66W+7HraCTi1c11p9DuhSV89xGReH7jS3HJHRaU4On6+t1byujwvfdD0byW3H1RGrWHeIECAAAECBAgQINAu0JyQs/1/zpZAN6bZiz9+d/vZv4qp4M4rjR+//9+2yeSs8D9817CQu7258UrpoaG6o7TjPwrhpDHsddTw+O/qFHGW3LKlyKUF1cX9uk6ekLeNzfJkaYFuzJMNq687erj/qLQ8O5Z2UevR7ogi/tXzXts7rXPIuyI/PIRF2tU29GXIoj2dQbpnDvmXD6Xl5ZXV5h0vmxaihyZt72X9y3/eli9cz8+l0qKDvrGqZNqbw2eSK7PHl6Nv0JWa6k5dicIGAQIECBAgQIDADALtCTmv/PH7/z4Uf38rXQ3782+7j6rXKufHhp+/Pf4cy/nvw8/losKuXZvPZg4572S85vaxKQttd/zwuEtQlWuD80JO8TM2LIt2M1Z9iu7sy6zE1Dk7FW8b1pbzm94f8c1L7N1hXSsn2+2trUffQXq92t99Oj1E6vCkfcJTQdEECBAgQIAAAQIEGgT6E3LDQU/4VkjIt98/YTvyqsMcct/NkPJD/HyZAjMk5ElgayH5cvhzltar+7ubFIx3Gx7SNMmwKIQAAQIECBAgQGAegXNLyN//Ky38XkRCDrFHQp7nlD3XWsKpUlnm3f1yxBzyVDTbWeAYdAdeAFy9bDjL1lO1STkECBAgQIAAAQIE5hA4r4QcHiLVefHzHHJZHeE2VN1XqM7VIPUQmEggu/53F5LH3LWruJJ5xMzzRC1WDAECBAgQIECAAIHjBRackPOLnPdXQf+jfMev4Q+IOh5pV0K8yPPf/3n4pvwo3T9tb5g0VV3KIbAAgd0VxQMnkHft3a7Rvrm7H3318gK6qwkECBAgQIAAAQIENgtOyGFBdVpZXWx89t+5R697leyAR87O3WD1EZhAYL0eV8jY/ceVbm8CBAgQIECAAAECJxU4z4T8JEusOxKyJdYnPUkVToAAAQIECBAgQIAAgVkEzi8hX//xXw8/z2JTqaQlIW8fEVzZ1UsCBAgQIECAAAECBAgQOD+BBSfk88PUYgIECBAgQIAAAQIECBA4YwEJ+YwHT9MJECBAgAABAgQIECBAYEIBCXlCTEURIECAAAECBAgQIECAwBkLSMhnPHiaToAAAQIECBAgQIAAAQITCkjIE2IqigABAgQIECBAgAABAgTOWEBCPuPB03QCBAgQIECAAAECBAgQmFBAQp4QU1EECBAgQIAAAQIECBAgcMYCEvIZD56mEyBAgAABAgQIECBAgMCEAhLyhJiKIkCAAAECBAgQIECAAIEzFpCQz3jwNJ0AAQIECBAgQIAAAQIEJhSQkCfEVBQBAgQIECBAgAABAgQInLGAhHzGg6fpBAgQIECAAAECBAgQIDChgIQ8IaaiCBAgQIAAAQIECBAgQOCMBSTkMx48TSdAgAABAgQIECBAgACBCQUk5AkxFUWAAAECBAgQIECAAAECZywgIZ/x4Gk6AQIECBAgQIAAAQIECEwoICFPiKkoAgQIECBAgAABAgQIEDhjAQn5jAdP0wkQIECAAAECBAgQIEBgQgEJeUJMRREgQIAAAQIECBAgQIDAGQtIyGc8eJpOgAABAgQIECBAgAABAhMKSMgTYiqKAAECBAgQIECAAAECBM5YQEI+48HTdAIECBAgQIAAAQIECBCYUEBCnhBTUQSaBD58+erT//O7z34f/3706ZtV077eI0CAAAECBAgQIEDgCQUk5CfEX3rVD7cX+z+3D0tv6wzt++FNjLivvvtpX2c5ABfvpyaVd9gVMkFCPrg9qWE2CBAgQIAAAQIECBAoC0jIZQ+vcoGH2+s8H19cSMibzaYcdF//kEu1vZ9/vvnw7efv37x6V5pGniAht9Xb9n5qjw0CBAgQIECAAAECBFoEJOQWmBf99mMpHl9IyNuzISTPjz79+PMP6RT59nVYRF0k5/R52Fi93+fkaRPywe0JTbNJgAABAgQIECBAgMBGQnYSlAQeH97GyWOrrINOkYTL+fanz/P54XJSDYfmm1Mm5M0E7cnb5ScBAgQIECBAgAABApmAhOw82As8ZjPHYWV1scbaHPKOKCThd18+hhNneO4dvmcovm1zgva0Fe19AgQIECBAgAABAi9TQEJ+meNe6vVj07RxDMiuQ955Ffm2LSGX3y8pb18UJUxxL+uitHK9be/X2+MdAgQIECBAgAABAgSigIQcNZ5q+/Hx8aH85zFOUR7TrFBwe5mPb2tzx9el+WR36tqOweN3H+/vRP3+2zgoxfvlpBr32W0X2XWKhFzUe2h76i30DgECBAgQIECAAIGXLCAhDx394tFHQxYdx8x5/bY57m4v+a1F0zB3e319+9B86K7RsZJ0WB5mmy8obimxVNL17dus2nEdHsp41vulRFp9pFP+4KWPykm13tmGhPzh29fv9sH7d5/9/tW7j1//8FPXqIdCj29PKMwmAQIECBAgQIAAAQKuQx5+DoxJjDFxNgbk6s2iU8CtbTQevmt1rCUdl+1fuxd1+jTbaCwx6902GqdwNqa/wxXPe888CVdvWJ3f5rqanGu9rSTk1fsiG8eHLX/07k24V3atlPTG0e1JJdkgQIAAAQIECBAgQMCdusacAzGPNobMUNiAdBl32QfYQ+6TtVugHS8kvm4rJo/JLfPIofnbzdjAfGK6us9Le71Nwk03rN7fVrqanGs+MSG/zp/8FLNx2m6qpVbc0e2plegNAgQIECBAgAABAi9awCrr4cM/PCIPC5fZraNv3759qF8f/PhQvjC4P6DGGhuTcD6t3JftC45YZH8DiuOO3lqvV4f8Wa+Prrm/gCwJN2XXtverJaaEnJJwtrL6/Zef//Dt6odvP3//8avwaOXyM6WqRW1ft9Xb9n5jId4kQIAAAQIECBAgQGAvICGPOBWGZsbhUbqj8lhZf6yNe29XUjddwfz40HlZc6UxschZE/Lq7vLyavyfu1WlA0t8WUnIWQb+UGln8QynLDx/91PlYy8JECBAgAABAgQIEDidgIQ8xnZYaJwkIJfulDUyIffvPqTTwzo7pKSR+7yUhNw0F72jymaAd5PMA6aRR+ranQABAgQIECBAgACBdgEJud2m4ZMhqXGigBzvJd0feUPD+ndu6FjDW6HIeZ+H/FIScsf8cLpJ9e8++33vtc0NY+ctAgQIECBAgAABAgQOEpCQx7ENiI1hl0Fh9TF7LtNt5/21+ssZW+mAXoci503IA9p2trukVdY9k8P5zbEttD7bodZwAgQIECBAgACBsxSQkMcNW/8E8Yhgmd89K7+1VutPCXncKC1376EJeRMWWr/7Mj2Ba7kd0zICBAgQIECAAAECz0JAQh45jH0ReWhAjuW0JuP8Awl55CgtdvfBCbm4X9dHEvJih1PDCBAgQIAAAQIEnp2AhDx2SGO0rSfXgQE57raNwdfXt9mDn+Kf8MCnej3VVocC+3euHtz8OhRplXUz0fh3D0nIn745h7t0j7dwBAECBAgQIECAAIHlCUjIo8ekKyIPS5Vxr4vrty2PYAp79YfeUTsP63Ioct6EvOTnIQ+ja9/rkIRsDrnd0ycECBAgQIAAAQIEphWQkA/wDNmxnF3DBx2hMuxVPrzclIG77Q4atXO5nrZXociOzrQdfcT7L+Je1j136tpYZX3EGeRQAgQIECBAgAABAocKSMiHyIXwGDNuy9uVGsIc9O1D5bP4clhp+yNG7Rxrad8ORUrI7UzjPhk8hxzu1PX+23F12JsAAQIECBAgQIAAgUMFJOSD5JrSY0i+FzE3Vysoju3aa+N5yFfj/tydw9W6QxPyD29+99nvd387HptcPbW8JkCAAAECBAgQIEDgOAEJ+TC/GId3M8H1d1pKDjt2zSEXQfqiM3Dvagl7d+fulkY1vB2KnHcOuaEtz+atlJB/99nvP2qdHA5LrD/9+PMPz6b3OkKAAAECBAgQIEBg6QIS8qEjFAJklknDy748GXZti8gPt9f5k56yn/2hN5TZv/OwLoci+3o0rEB7bTYxIf/us9+//uGnusrjdx+nCWSPeqr7eIcAAQIECBAgQIDA6QQk5INtw1zwxfV1kWj7E2rMnrV7WT9W0vHuYVBvH2vtfHwMz4aKj4a6LT81Ku1VLyIvM5aUdg9FZo2s/WkvLi/Wz5pAJSH/7rPfv3r/bZD8aRXi8TZC14rwBgECBAgQIECAAAECJxOQkI+gLSXdfM63bVo41hPDdX5cyNj5W9Wf5aIba68eEl63J/em5oQDmzfbi4s9tV0WqCfkNF386tP/k7Z3G+3LsMuFekWAAAECBAgQIECAwEQCEvIxkPVoOTg3Ns0Ul6Po9e3D29vSWxLyMYO1iGNTQs6e9vThy3oqTiH5o9Lc8iIarxEECBAgQIAAAQIEnr2AhHzcEJcncgfn422ljw9vy5cbpzh8ffv2Ybf09jHuIiEfN1gLOLqUkDebzYdvP39Xmzr+9OPX3zVcn7yA5msCAQIECBAgQIAAgWcuICE/+QCXrid+eAwXpaam5dcJN32WdrJxtgIfflr98O3+7wfZ+GzHUcMJECBAgAABAgTOX0BCPv8x1AMCBAgQIECAAAECBAgQmEJAQp5CURkECBAgQIAAAQIECBAgcP4CEvL5j6EeECBAgAABAgQIECBAgMAUAhLyFIrKIECAAAECBAgQIECAAIHzF5CQz38M9YAAAQIECBAgQIAAAQIEphCQkKdQVAYBAgQIECBAgAABAgQInL+AhHz+Y6gHBAgQIECAAAECBAgQIDCFgIQ8haIyCBAgQIAAAQIECBAgQOD8BSTk8x9DPSBAgAABAgQIECBAgACBKQQk5CkUlUGAAAECBAgQIECAAAEC5y8gIZ//GOoBAQIECBAgQIAAAQIECEwhICFPoagMAgQIECBAgAABAgQIEDh/AQn5/MdQDwgQIECAAAECBAgQIEBgCgEJeQpFZRAgQIAAAQIECBAgQIDA+QtIyOc/hnpAgAABAgQIECBAgAABAlMISMhTKCqDAAECBAgQIECAAAECBM5fQEI+/zHUAwIECBAgQIAAAQIECBCYQkBCnkJRGQQIECBAgAABAgQIECBw/gIS8vmPoR4QIECAAAECBAgQIECAwBQCEvIUisogQIAAAQIECBAgQIAAgfMXkJDPfwz1gAABAgQIECBAgAABAgSmEJCQp1BUBgECBAgQIECAAAECBAicv4CEfP5jqAcECBAgQIAAAQIECBAgMIWAhDyFojIIECBAgAABAgQIECBA4PwFJOTzH0M9eEEC375+9/Grdx+/ev/lY2+vP3y7+vBT/2695cyww4cv9/1692Z1gupW7z9+9f7N6+++XH3oLv2nz99//Ordm9fffXsebt298SkBAgQIECBAgMB4AQl5vJkjXq7AT5+/+z+/++z3x/z96NOPX//w00DCxx++fF0Kw9++/jRrwEfvYkLOYnM91K3eb/f89OPPe2LhwLaccrcPX77a9evTUyTkHK2fIt+zxHvKjiubAAECBAgQIEBgYQIS8sIGRHMWLTBBQs7ybRaSB/Tzhze7KB52bohwj999vNvt1XcxeO+b+tFJMueAxo/a5aQJORXem3tz8I/efzuq+XYmQIAAAQIECBB4NgIS8rMZytSRXx8efsz+Pu91ouvV6hTrcZNi88ZPq+/evH4//u+7fYgdEY+3DcjngdPMaj0h19/ZNb3t/eaOPfG7KcSeIM+3fIPQ0OOd9u8++334SqJhN28RIPDEAtn//6+fuA2qJ0CAAIHnKyAhP6+xffz++uL/Xlz8dff3+u2vz6t7u96sV3c3V1dXlzf3Z/Er0uMPb3ZLiLero9/0XQpbHrE8Oubzw9Xcu4t/H9XXD+cHjpgOzQ+Ja8hnmoLOqz5FdbVvGcrCxavc9gQpvajEFgECRwus7i6vrq5u7u7F5KMtFUCAAAECDQIScgPK2b7169vrIh5vQ/LXD2fbmeaGr+9vLrPfjXZ/7oZMI+dLZ6tLkfNUVn2/ueLD3v1p9T7MHveu8m2oJF8svT82T3G7l3kX8vwcjs973fBR2Ku0mZf2vBJyLta7cDoX++j9t48ffur+W3J7qS/SlPuIb2EmtMrHq/rvt3wajzj/J2ybogYIPNxe7P/cjvzPVPivwOXlzZ2UPEDbLgQIECAwSkBCHsW18J1/vA0TyNuE/Le3T7jW+vHHt7df3+7+TjGbvV7d5dF4/3PQNHL5N+ZiAW3b+xMNcnaTrfy2XtmFx6WLhMfU8cObjz79+NX73d2V87y3Tci7Ksp37dqXnJYWF/3trfPDt5+/f/Mqb/MueJxiUrehIflYTFJdSm4x6te3K3UNPGq3Tv4Mbn7WoDzlW6Wvfnq/fZiy5rys/JzZjWxxnre9nx/n5xIEHm6v83x8cTEyIe8mkON/C85kOdES4LWBAAECBAYJSMiDmM5kp4XNIccl37c/Hmm4vs9WVsc/Q+cOwm/M5dXI+7RZ/Q37yIZuNpssasap45Erq7MG/PT4w7er/d8vPw/b+3s+v3sT3kx7Zo932jY/n3k+dMFwiouVGDnOpjzLV8+ox7xTHspSu1Lju8svdS2cJN1HScibTWllRAby1Am5fDKc7N916Szz4mCBx1I8vhidkDeb9er+Li4m2q64HrKg6OA2O5AAAQIEXpaAhPy8xjuG0ou/PvF1yLExxyXkyuzx5aC54zSyxW/MpVC0KW5MXf4NOx2438ieprt9CnExT1XdpXi9yu8svYtSXQ92Sg8BbggYRZt7A1vcIc8q+8Ozueue+4rFp0aFXmyfFLXtQrpJWPHp0K0nTcjbiffme6rt5snjyZCm3LPHJrf/zQ88hwdoDR2kcfvFlRHpxMvPunFFHb138W8kDuVm8L/roxuggNECjw9v4+Txgausd9Vm96MorrgRkkcPhgMIECBAoF1AQm63OddPFnMv66kScrjqbHuDrkFXH4fRC0m4fCVwmmws/4YdDt1upt0GJOSirnxddLm0Dz8Vy97zecumgFH89p9yyJCNfVGDo2lbx1OX23Yo96rlVWjG7iuG9v8tnjL90fbLiPY995PzHV9q7Brf0fLaDukLhZ6vA/IDX2JCfvyQPXa78SRsOoFbTokp3y7+rVUuNJjm7J2yqcraPGYzx2FldbHG+oA55OSZ/behtLDoPO7emNpvgwABAgQWKiAhL3RgnkOzpknIq7twa67Ly7HxOIMsfmNuS8jl9yv46fA8IWerTJsDcD5/1RLPsiT2UbZAersWuishV5qwfRkCZza7m8qp7Zsa3Jhn4pst7Qxih67TzhqVN7g/QSWK/ur2uWjChFxMIPddK76DbUOrjcMzeePxu+Jm7PHkSdv943saiXSetybkzn/Xp2mUUqsCj03TxjEgj70OuVxBKSSPXF5ULskrAgQIECCQC0jIucRRP3993D2COPvfX4tJwiPKnLzAA9vymM9Ib7s2rpApEnK8KcvBv/2kCFT5Vb54v/M36fSL+C4hp3sUVX4v3+Kk/NYwG5nK2d9fN8XChlXWNel85xRLdhuv3n9Ze3xUMf+cR/qitF2XO+LlbtfU1KPS4Fkk5Bx2SE93LEP2LMQn2Prp8UO41Dy7KD2sRDiu/HC5e3uZOVE697LV+2E+ufLP6rgWjTi6+Pdb/hdUvN/573pETee96+Pj40P5z+Mk/5HabDah4PYyH9/W5o6vS/PJI+/UVRuN8reobttVA/IGAQIECIwVkJAHiMWklz9q+OL6++yXjOx2zX9Lzx9OG9e33z+0/w7y+LbhkPyXhF8f3n4dn2m8K/P69sf28gZ0oXOXh9v8GVG7TmU7Nzfj4uJvtw8tz1huVEpcbRvd1yeX11cf/JtP+o25+uiXYREuxcU8cLYu70zXQNZDVGpDkavz4NEfMPI9i4jy7stV/pjl7Y2yd3e63g5z3qnfffb7an/z6fR68yonSOpysWd5ke2rdx+/7s1peUuGd7CortKg4mX6DqJ1qXNvjg07FENZtyrqzLfCgflb+c8k9rvPfp+fJ/ln9Z9hQIvzobLb9n5v6UnaaejTxkfbIagcFF+mUy4dEtr206ppZrh7ZcSunP2XMvngHnmnrjRB3VJ17FB1O3WwOnZ52/pPvGqRT/a6ePTRkEXHMXNetzyvYHvJby2ahrnb6+vbjv9KbTaxknRY/t+p5guKW0oslXR9+zardlyH+8al/F+KQxYa9dXgcwIECBB4UQIS8oDhbs5+X799+L4eZVNI3obJ5sIbE3J2V63HH2+rDzT+a1FgEV9LxTaWtjsq/22mtH/9RZGQL75+2Pz60JT5i2Zc/LW52Gal0P7GkNyZkEsTyAfn47Dctxpd8qBS/Q27bJTCTzi8SFbl38JTfivPIecVlRJgerM8A1aufJNiwPbY/IrZ3eRYllr3V/Bmi64/ZIem1m5XYlduxJU3r29uLRWya3CaNo9Za7/Se1tppc37l8ODSqKYd5X15/lt1Urj0tyZ7Abjn2+1m3fOOzskMaYxbfwWYzuIzVf8VvzbDt/1INaSDsxO9XDapPfTRnNi3z5y7PV33z6m4R7T3zbRSgvL/5TaDgrv520I/zC3n+anU/e/61DQAjbHJMaYOBsDcvVm0Sng1jYaD99xxFrScdn+tXtRp0+zjcYSs95to3H6ondMf4cMz2T/sRhSmX0IVcYfAQAAIABJREFUECBA4LkLSMiDRvhxu9g4e7pvR4JtSIDtjyN+3C7MjtPF13/rzNt/vbj+uvEb/0kTcl+g3ffx64c62/QJubR27qhpge1vzE1Li/eBs/obdrl3KS6WdysWM4dfxBtDVB5rPy1Pe+a/x7cGgw/f7iLZLotuH2aSF1VE3P2jd/LYVrQqO6oaOPPDOzN5jNkfffrmdX5f6xSi4kaTas6XB5jWDuY7bhJFtcFpj7SRhMuY6fP8O4Ja34s9dgO63eGn3b3HyyNb7FneSlWXv/7Y7ZR3YTtYlS8mysXkLdwxtlRdGsfdnpVHVadRaClhW+mH7WPDwnRxdiO0T4v7oqVC0sZH74Y9nCwf3CHfCFT7v3+99yyq7h/9cknH/bsul/XUr2IebQyZoYED0mXcZR9gD7lP1m6BdryQ+LqtmDwmt8wjh+ZvN2MDm79zrR7R8zpMIx98PU5PFT4mQIAAgRcjICGPG+qGOJoF17DwuDIP3DLxm9f64+1FvsI5BexSEs5ndNvLaWhSXtTAXzzCHHKRkK/L/Xp8KK39bio5XrH848PDj6Xl4tffZ+/U/0a6HGX/c3WXblI67ulOlXKyl1neaMpybe+XimhJyJuQ61JaSyGq4Z1qkskzVUOA/FB65GyY1ssjbpGQs6Y+/vDm8x+2G/mk6Kv3b3bBo1RpnmpCpC/1NL1IXU7pJZuufL9/MvPn70spqzWL5tU1dDDVtNtIFP0ZqS5cKWs/i97aqjygFjvkD5HeLTwuiZXKzqsu4+e7FHmv6UzL98p+Fum3aEP8fLf9w5tX7958Hqdt830ef/gyptx+3lBjGtByEs6/Z2nuWl5x/JkP7lMm5OP+XcfeLGB7eEQeFi6zW0ffvn37UL8++PGhfGFw0/+bl0FijY1JOJ9W7sv2RbGxyP4GFMd1bMVp5GOWHHVU4SMCBAgQeCECEvK4ga7G0ebLg0u5t/O//qU9Ly7+2ni98eND50XIj+XkGealO6suOl5NyNdfN17ZFvs+6EnLcVa5czV10ZSwtZxfd1JcbMhO25wQAmcpJr3+4duuY1MsbJjRzcPYpx+/Lt1guTkh79lSgVnO3O8Z2lYs2G7oSJCPc8i7QJUFubS8dr9n0dPWtb55iOqPcKWWl5tSfVXI7FaVVz+vB+DaHrtBqabTog3p243KkXnVLTEyjXW43LdSwvZlXtGQ2eam47fv5bbDCiky+W5AGy/6ffwhXM3eWnH+QWxAwwmc79b589hV1p2Fn92HQzPj8CjdQRAr64+1ce/tSuqmK5gfHxoXObU0IhY58D9ULSUVb0/5pWpRqi0CBAgQeIECEvK4QY8pcX+zrsYCHr4uLtztCoelhDwodjZWF98MuXTgLx4xITdG9H3xQzuVtya05KILId+/9LP0DI+jlliXij3kRUo+jcHycffopqzg/ZLdNE2XNmJMLVqQJ6XmAPnhy1fV9a4/PcbHKRcF7bdSO3fV7XNgiHP7d/rnacsXM1cWhxf1FrmrmjZ3++QhqrmDRTlxNr5pAXPcs7gYuC3HlhqfhqC+0dDm1OCAFirv/HoiXO7ePa0aY2HziRGqbN8M+M2tjYcWO7d+nRF3H7KdW3V3trekY+7U1Vv4me0wLDROEpBLd8oamZD7dx/iPqyzQ0oq9ikttH7a/2gUjbJFgAABAucoICGPG7WQkNuvMc6KDNG3fYH04N3GNDLk0vEJubNToeRBiXfs/qVeFhchP/lFZSl5Nibkfavb734U1kiXelgs0h44BZdnkpZYlc9w5gF4l8TCit884A2oLnW5O1DFsNeAkzf4bBJyPv/ckvpywNZEWgTRhvi9H/xi7j0MTfnEGPQq1NXanlTQqJ3TUZ0b+eC2WHUe68NmgSGpcaKAHO8l3R95Q8P6d27uW/XdUORxz0OOBS/ovxqxWbYJECBA4OwEJORxQzY4If/6trinV9N9rfbVDgzSYxoZculzSchPPBuQ4mJDCMxGpmHqeBuQ4o2mm27d1D2HXBvzATPA2dWkRSPz8veJOo80LQG7VF/qcnvS2+6fV9EcpPManyQhf/Tpx6/ev3nd9Hd3y6uWrhVhspDc2+w/6uhOcmtfaF2U3/rVSWkofnr84cvX7z9uu01XFlAl5JLYGb8YEBvDLoPC6mP2XKbbzvtr9ZczttIBQxCKnC4hL2jl0QACuxAgQIDAcgUk5HFjMzghb8LSZQn5r4PmnONQLGm9XIo9tciULQ8unreUrUauTOSGCcN3tfXDebxsTlx5vKwvD258p3zjpR1l3phtgsoDduvi5MifutwSI9O+nXkvdOHVu487/xZ3V85uttz5d9f9jgnYvKc18LzVPTvkza72vXu8toXHSfXmbyLywgdMvZbu1tY46HsKCTkf2XP/2T9BPCJY5nfPym+t1fpTQj7380b7CRAgQGBqAQl5nKiEvL++esh1xWE2+zkm5FKAefV+N0uch9J8qXN6iO52rq+c2boTV4hSHekofVSNc9vzulho/UM+/9mfprIjByfk+BVAbZ58ZBdSX4ZsnDAhx+7HFend47X7P5J8n7ap3QTbPsm8LSiU06thDnln/xz+ty8iDw3IsZzWZJx/ICE/h1NHHwgQIEBgSgEJeZzm4IRslfVmc0xC3sQryha3yjpb+PpuP+350acfvw4369o9wbicV0OMLJJzuD1VjGHpfPzw0+qHb/d/82c4ffT+y+LN3af5o26bJ6JrQathGjzVGDZSkCt3JOyx32zp2u7Ts03I8YFMhViO2Tw53ABSn64PU+7xTKi6Frvt4vFH7z5+nT9qKz8Bigc+SchVvzN+HaNtPbkODMhxt20Mvr6+zR78FP+EBz7V66kChgL7d64e3Pw6FHmKVdZPfveK5l57lwABAgTOREBCHjdQgxPywAuMB+42ppEhlz6X65Cf+NmWKS5mYenDt5+//zhN69XWNtfnkHdjF5JkWm6dJ67mcFuMeSqznrj2D3DqnVDdB62uVFbUN/kccl8Hw5cF/S3s0tj1YTdeHdm+d4esnDzeF/kzf6czIReP1Gq4NjsvoXuJdTrfdhPRteds7XpZpOiihaUxjC9G7RwPbN8e1pf2433SLNAVkYelyrjXxfXblkcwhb36Q++onZv7VX03FDldQo7fqz7xfzWq/fWaAAECBM5KQEIeN1xDE3KIqZ0LjCXkNv8F3XMlJZbXP5Tzz/v682NTfisvqM56GUPydkHywIScR5GGYDakhPzwhsDWZh+XGfdE1lqnYpl51WeZkLfj9eq7MMR5d4pZ5djZYrs1jqYTqXOJdevhRQ3Z1sDddgeN2rlcT9urXKM77bcd7f12gZAdy9k1fNARKsNe5cPLNQ7cbXfQqJ3L9bS9CkV2dKbt6Ob3l3T3iuYWepcAAQIEzkRAQh43UAMTcrhN1187J3Il5Fb/9f3NVf7n8knXWadgs41GWSYsr6yOXehIyNtUs12bvZ/0G5Jv8yDUNEuc6mqYWy7alGppfaxxsW/aSl3umInd7hyiV32teFoo/uGnVHLzRtHI+jcLtSM+bJ8L3V7mrvEdLe/doVZl9ka6C1dfQo5XccehCVYdV4PnFJ0pWkJuHKJn8mYIjzHjtrxd6XSYg+78T8+w0vaFj9q50qCWl6HIqRLycv6T0dJnbxMgQIDA2QhIyOOGalBCjhPIFx03sh7+2OQxjQy1d/6GVJQZ8vxynoe82azu8oB8dfmkETnFxX00+hDmFTPFnx4Ly30Kao9n377e39MrLC2uZ8u8wJTKdsukX717k9bcpo8a5pbzw+PEddu9o4p9w1bqcntHtnuHicTOZoSiGzfzWNhTXeOxtTd7A3DvDrUiszfyo2LobdyxWKEd51fTePVM5uekTd+JxOqG5e39EaN2jrW0b+ftjH1s39snYwSa0mNIvhcxN1fLLY7t2mvzDJ+HXFp2ZI119cTwmgABAgTGCEjIY7Q2m5CQ/3r99temg+M9utr2SceZQ04U9Y3iorKrq6sn/I0nxcXGycOYfML1ybUbO9f7l2Jhe0LeHvTTKr8d1/5y4ndv0rXQ3deg1ts2MMemLnfmn7DEeswEdV1ikyh6FnU3HFp/K4+yrdPRvTvUyxyXkOOK+n2PolVrw7J6c4qeOeQYUDtmpPc9WW5CfszP7VcN1yw0jsOJ31yvV9s/6xPX01l8jMO77znr77QUEHbs+oa0CNIXnYF7V0vYuzt3tzSq4e1Q5DRzyKVvVJ/wPxcNffUWAQIECJydgIQ8bshiQr64+NvtQyUk/xrmY/960TOB/NznkDch/1983XLDmC7/0qq5p5tGTnGxMSHHSJMS8qAgmmeh/st0M6RqTs6ya2eefMxDVLZbXldP7spHI3V516Nws+58j7DqOGtJf0grDmzYypvX3aOGA5ve6g3AvTs0lZrWtHfm23Rkjr+fMQ4v+4Y7pNm2r05+ePPq0/gE6d6vY0KZR45UUwf7epSOqW5UvsE5uJxquQe/Xt3dXF7ulq5k61aeMCWHAJll0vCyL0+GXdsi8sPtdf6kp+xnf+gNZfbvPEw/FNnXoyEFliaQn+6/FUOaah8CBAgQOAMBCXncIJUT8l8vLv56ff3124cfHx5+fPv26+uL/7t/XPBF9lHz7yePvz5s99/+7/fFIXk54dOs2IdqCC8a/Pi426H8v6EZ12/LH7WUFlL9pKusN6Xp9OwLhbffV3sXFigXHSu2StPIT/V7T4qLzQl5m11fv3+z/Zs9jamnT6l3KRa2BaG0Z9r48G16ytQuu7bNvKV4XETiPKT1Ld/NKktdLjJ/aYrvp1X+AKo8QqcmHrSRKDoz/8Ci641PvYgb49J4auHQhBknjT9+FZ4N9vmHnn7E9n/07su0rn57WOkp3LvuNA9ougg8eypYfDTUm8/TU8RKG+3Xin/InzoW9w8nQNbI+NF2e8C/goIo78iwbx96/A7+uJSyrq6unur/cLYdCHPBF9fXRaLtT6gxe9buZf1YSce7h0G9rY/W42N4NlR8NNRt+alRaa96EflAxJLS7qHIrJG1P+3F5cWGn+XvUk0gBxqbBAgQIHCQgIQ8jq2ekGMkjtu16eW8ooev427929fft/2uEJJtFsgH/W0qLZQzbUIuLUpvbF7LSvXcarOJv/pcXV09yR27UmJpSchFa8dtpdA1KCGX5pA/evdxmkWs3zYsTs3F6d/UkeZMFVqf9oyRcred6k0fTTD1lygWm5DT9wuDBmtLmR+SoDqXrAf9XCMemDJ2fDNuVwN/U+1x/8p2xyqAeDpVjmp72XuCbXu7tIRc+j4uS8hPG7VKSTef823+2jWcPNk95WL63B8YMnZeVPVnuejG2quHhNftyb2pOeHA5s324sp9zV6FW1g/9fca9cZ5hwABAgTOUkBCHjdsMSFfX5dmjIsEeP11w1fyqZ6XlJA31WnkaozvTci7X3/CLbue4JfWFBdfvdtNFE/1v/vnKvclzJ8ey6tq9/PGYT65WNT94dvP8+nKpjtCFZmknqvTGRrnkCsrtOuJ6KPS3HIsY8x2ngmrMW9MGWnf3Xh99OnHr/YT+23j1bs4ORVZuI35lqQ4auc2LDduKy2PeAP7px+//uHL13GtdeXLhTNIyMXtwfc+w799SCMz5cai5pAbk+7g3Ng0U1yOote3D29vS2+dZ0Jel77XeNp7Ok55MiqLAAECBJ5UQEIexx8Scjbd+vjw/e3131I23q64/rVtyndf08tKyJvN5teH278Vi8nLc90DEnKW1+7yiwOzKYLLm5lnklNCrgeVSd5pS8iPH75Nd+TaR4hwL+vd6fT43ZvX3+3Wx5YnmbME1bhuthTbXr2vLOLdn6Spy/vIWg7e+8Z8+nFe9bh/RA17nyQhH7Rk98OXr999/Cr7W+TqNG0+OsCXY2rxRUYDQe2t2uink60Ytay1+wuSq20rV52Obdt4ijnkrMuLulNXXLFy+cQzyNvzoTyROzgfb499fHhbvtw4xeHr27f7u0I8xl3OMCFXZo+XMGS1f8feIECAAIFzFJCQx41aJSGPO9jeBwuUfxPa3tp6vtvopLjYli6OfL8hIeeJMZX80bs3nzcn3q3ph/J0Yi1Il+HLIXkfsMu7NL6Kl7a2P4648dCeN/P+VmNez2HNH+dzyAcl5HAb6oSfNsZMIDe3bfy7Pz3GS3wb2fPrhHu+mxtf90s7YnW3v03X0948f1L20vXED49N50h+nXDTZ5O2ZdLC1uG2artFRjN/czppbxRGgAABAssSkJDHjYeEPM5rwr1rITmbS37Cm80e37UUC5sWl6aLP7cTho2zwaUWpBjfdu+u0t75nagbwnllv3leJorKUuGDal+9308Crw46PMmnYLy9WXfnNxQHVeSgZQmE/4cxGbmsoam0Zr26v7tJl97k8fis/2NQ6aGXBAgQIPDEAhLyuAGQkMd5Tbv3dtYg/mL0pDebPbpvaUFvU0LOHu/UMWncUPm3n/dMHdeO+fDTUmaNEsW7wyZ+a13zBoGRAnGJtdnIkXiz7h5H6kmuu5m1tyojQIAAgacQkJDHqUvI47ym33udZg8WcaHg9B1UIgEC8wtkM8i7b9/O+3u3+eWeoMbizhRnv5LoCfRUSYAAAQL9AhJyv1HcQ0KOGk+1vbsCzS+yT+WvXgLPTSBfYu1myGcxstvhurm7P+/rbM6CWiMJECDwMgUk5HHjLiGP8zrh3muXnZ1QV9EEXpJAWrj7BE+Te0nO0/XV//9PZ6kkAgQIEKgJSMg1ks43JOROHh8SIEDg7AT2q3bdoOvsRk6DCRAgQIDAKQQk5HGqEvI4L3sTIEBg4QKru90Nn+6tS1n4SGkeAQIECBCYRUBCnoVZJQQIECBAgAABAgQIECCweAEJefFDpIEECBAgQIAAAQIECBAgMIuAhDwLs0oIECBAgAABAgQIECBAYPECEvLih0gDCRAgQIAAAQIECBAgQGAWAQl5FmaVECBAgAABAgQIECBAgMDiBSTkxQ+RBhIgQIAAAQIECBAgQIDALAIS8izMKiFAgAABAgQIECBAgACBxQtIyIsfIg0kQIAAAQIECBAgQIAAgVkEJORZmFVCgAABAgQIECBAgAABAosXkJAXP0QaSIAAAQIECBAgQIAAAQKzCEjIszCrhAABAgQIECBAgAABAgQWLyAhL36INJAAAQIECBAgQIAAAQIEZhGQkGdhVgkBAgQIECBAgAABAgQILF5AQl78EGkgAQIECBAgQIAAAQIECMwiICHPwqwSAgQIECBAgAABAgQIEFi8gIS8+CHSQAIECBAgQIAAAQIECBCYRUBCnoVZJQQIECBAgAABAgQIECCweAEJefFDpIEECBAgQIAAAQIECBAgMIuAhDwLs0oIECBAgAABAgQIECBAYPECEvLih0gDCRAgQIAAAQIECBAgQGAWAQl5FmaVECBAgAABAgQIECBAgMDiBSTkxQ+RBhIgQIAAAQIECBAgQIDALAIS8izMKiFAgAABAgQIECBAgACBxQtIyIsfIg0kQIAAAQIECBAgQIAAgVkEJORZmFVCgAABAgQIECBAgAABAosXkJAXP0QaSIAAAQIECBAgQIAAAQKzCEjIszCrhAABAgQIECBAgAABAgQWLyAhL36INJAAAQIECBAgQIAAAQIEZhGQkGdhVgkBAgQIECBAgAABAgQILF5AQl78EGkgAQIECBAgQIAAAQIECMwiICHPwqwSAgQIECBAgAABAgQIEFi8gIS8+CHSQAIECBAgQIAAAQIECBCYRUBCnoVZJQQIECBAgAABAgQIECCweAEJefFDpIEECBAgQIAAAQIECBAgMIuAhDwLs0oIECBAgAABAgQIECBAYPECEvLih0gDCRAgQIAAAQIECBAgQGAWAQl5FmaVECBAgAABAgQIECBAgMDiBSTkxQ+RBhIgQIAAAQIECBAgQIDALAIS8izMKiFAgAABAgQIECBAgACBxQtIyIsfIg0kQIAAAQIECBAgQIAAgVkEJORZmFVCgAABAgQIECBAgAABAosXkJAXP0QaSIAAAQIECBAgQIAAAQKzCEjIszCrhAABAgQIECBAgAABAgQWLyAhL36INJAAAQIECBAgQIAAAQIEZhGQkGdhVgkBAgQIECBAgAABAgQILF5AQl78EGkgAQIECBAgQIAAAQIECMwiICHPwqwSAgQIECBAgAABAgQIEFi8gIS8+CHSQAIECBAgQIAAAQIECBCYRUBCnoVZJQQIECBAgAABAgQIECCweAEJefFDpIEECBAgQIAAAQIECBAgMIuAhDwLs0oIECBAgAABAgQIECBAYPECEvLih0gDCRAgQIAAAQIECBAgQGAWAQl5FmaVECBAgAABAgQIECBAgMDiBSTkxQ+RBhIgQIAAAQIECBAgQIDALAIS8izMKiFAgAABAgQIECBAgACBxQtIyIsfIg0kQIAAAQIECBAgQIAAgVkEJORZmFVCgAABAgQIECBAgAABAosXkJAXP0QaSIAAAQIECBAgQIAAAQKzCEjIszCrhAABAgQIECBAgAABAgQWLyAhL36INJAAAQIECBAgQIAAAQIEZhGQkGdhVgkBAgQIECBAgAABAgQILF5AQl78EGkgAQIECBAgQIAAAQIECMwiICHPwqwSAgQIECBAgAABAgQIEFi8gIS8+CHSQAIECBAgQIAAAQIECBCYRUBCnoVZJQQIECBAgAABAgQIECCweAEJefFDpIEECBAgQIAAAQIECBAgMIuAhDwLs0oIECBAgAABAgQIECBAYPECEvLih0gDCRAgQIAAAQIECBAgQGAWAQl5FmaVECBAgAABAgQIECBAgMDiBSTkxQ+RBhIgQIAAAQIECBAgQIDALAIS8izMKiFAgAABAgQIECBAgACBxQtIyIsfIg0kQIAAAQIECBAgQIAAgVkEJORZmFVCgAABAgQIECBAgAABAosXkJAXP0QaSIAAAQIECBAgQIAAAQKzCEjIszCrhAABAgQIECBAgAABAgQWLyAhL36INJAAAQIECBAgQIAAAQIEZhGQkGdhVgkBAgQIECBAgAABAgQILF5AQl78EGkgAQIECBAgQIAAAQIECMwiICHPwqwSAgQIECBAgAABAgQIEFi8gIS8+CHSQAIECBAgQIAAAQIECBCYRUBCnoVZJQQIECBAgAABAgQIECCweAEJefFDpIEECBAgQIAAAQIECBAgMIuAhDwLs0oIECBAgAABAgQIECBAYPECEvLih0gDCRAgQIAAAQIECBAgQGAWAQl5FmaVECBAgAABAgQIECBAgMDiBSTkxQ+RBhIgQIAAAQIECBAgQIDALAIS8izMKiFAgAABAgQIECBAgACBxQtIyIsfIg0kQIAAAQIECBAgQIAAgVkEJORZmFVCgAABAgQIECBAgAABAosXkJAXP0QaSIAAAQIECBAgQIAAAQKzCEjIszCrhAABAgQIECBAgAABAgQWLyAhL36INJAAAQIECBAgQIAAAQIEZhGQkGdhVgkBAgQIECBAgAABAgQILF5AQl78EGkgAQIECBAgQIAAAQIECMwiICHPwqwSAgQIECBAgAABAgQIEFi8gIS8+CHSQAIECBAgQIAAAQIECBCYRUBCnoVZJQQIECBAgAABAgQIECCweAEJefFDpIEECBAgQIAAAQIECBAgMIuAhDwLs0oIECBAgAABAgQIECBAYPECEvLih0gDCRAgQIAAAQIECBAgQGAWAQl5FmaVECBAgAABAgQIECBAgMDiBSTkxQ+RBhIgQIAAAQIECBAgQIDALAIS8izMKiFAgAABAgQIECBAgACBxQtIyIsfIg0kQIAAAQIECBAgQIAAgVkEJORZmFVCgAABAgQIECBAgAABAosXkJAXP0QaSIAAAQIECBAgQIAAAQKzCEjIszCrhAABAgQIECBAgAABAgQWLyAhL36INJAAAQIECBAgQIAAAQIEZhGQkGdhVgkBAgQIECBAgAABAgQILF5AQl78EGkgAQIECBAgQIAAAQIECMwiICHPwqwSAgQIECBAgAABAgQIEFi8gIS8+CHSQAIECBAgQIAAAQIECBCYRUBCnoVZJQQIECBAgAABAgQIECCweAEJefFDpIEECBAgQIAAAQIECBAgMIuAhDwLs0oIECBAgAABAgQIECBAYPECEvLih0gDCRAgQIAAAQIECBAgQGAWAQl5FmaVECBAgAABAgQIECBAgMDiBSTkxQ+RBhIgQIAAAQIECBAgQIDALAIS8izMKiFAgAABAgQIECBAgACBxQtIyIsfIg0kQIAAAQIECBAgQIAAgVkEJORZmFVCgAABAgQIECBAgAABAosXkJAXP0QaSIAAAQIECBAgQIAAAQKzCEjIszCrhAABAgQIECBAgAABAgQWLyAhL36INJAAAQIECBAgQIAAAQIEZhGQkGdhVgkBAgQIECBAgAABAgQILF5AQl78EGkgAQIECBAgQIAAAQIECMwiICHPwqwSAgQIECBAgAABAgQIEFi8gIS8+CHSQAIECBAgQIAAAQIECBCYRUBCnoVZJQQIECBAgAABAgQIECCweAEJefFDpIEECBAgQIAAAQIECBAgMIuAhDwLs0oIECBAgAABAgQIECBAYPECEvLih0gDCRAgQIAAAQIECBAgQGAWAQl5FmaVECBAgAABAgQIECBAgMDiBSTkxQ+RBhIgQIAAAQIECBAgQIDALAIS8izMKiFAgAABAgQIECBAgACBxQtIyIsfIg0kQIAAAQIECBAgQIAAgVkEJORZmFVCgAABAgQIECBAgAABAosXkJAXP0QaSIAAAQIECBAgQIAAAQKzCIxKyOv1Kv5Zr9eztPGlVJLrUp1zxDP1MfVl+xuhMWL2JUCAAAECBAgQIHA+AgMT8vr+7uaq6c/l5c3N3UpUPnbE1/c3l5cJ+Ob+RWawMsJO4/LyblSAHTMQ69X2rL4cw726y4bp5u5eTB5DbV8jJD8zAAAgAElEQVQCBAgQIECAAAEC5yEwJCGv7kJ4SymusnFzf7Igcx6Sx7Qyi4bR85Sx8Jh2nvjYORNyua6hKTwcdXmZfTV0YhHFEyBAgAABAgQIECAwq0B/Qt5NmsX8ls2hlTPz5ahpuFk7eMrK1qv7u/zPUbO+1e8gXrLnzem/LFiv7irn88Dzt/5vYcz08ylPRWUTIECAAAECBAgQIDCFQG9CLoW3yqzZOouI2errE66EnaKTpyojzigOnYVsbEtWUMxsL3QOOdikLDo5xfq+er1A5awOrahvbs/48tdDN0cNfb0K7xAgQIAAAQIECBAg8GQCfQk5hsC2+bIXe8euiHNkTApFZVP0R81IP9nJNGHFJ0rIldnjA+fqs+uXS99oCMkTDr2iCBAgQIAAAQIECDyhwIiELLZVxynE2ilm0d3LugA+SUIO45UtfDgq12ZlxWl//zqKwbNFgAABAgQIECBA4GwFJOQjhi4krikS8hEteXaHniAhl64XmGLxdikkHzgd/ewGTocIECBAgAABAgQInLXA2Sbk0rOZD7il8LpUwGHPq1pgQi736rBulU7oUoEHOJcKG/5i8oScCsxmjwfemKu/ueXUbR65X8weBAgQIECAAAECBBYtcIqEXMSG7iSS7pnUllhSqgnlNNwqaZd5Bj56Z3d8XB+btrdPdm4frZCH0yG9G3PNLTez7JrXeyeqUzi3Ow76pGhSEsyu/i1usnUz6jnc5bGbMsmWSz7yavRBNHYiQIAAAQIECBAgQOBkAmeSkLOYlCWk7kTal0/6S+h6yG05C3W3JH2a8l19BNMXBGnntNHXkXJhtRtHpXLSRtt3ELuCynG0X2lc88qNHfiq3KRN29Bf3twNualZKm17+fGQIwY2M9vtpIWPaIddCRAgQIAAAQIECBA4WqBIyB2BLQWt+kbT9ZzTzyHX6218p6kxSSgLuPWjLi8bUndzAlxoQi60Y+8qD6zuXlocM14spG270zmBH7WRmnR5eXd31zBwqW3d4X/biBJR8+Ae09hwYgxozDE1OZYAAQIECBAgQIAAgdMKnF9Crqyu3U6gFgmqLf9U8v/N3f2qdFFtaeK0JQHm95pe5X/u71IQvby5z98t/1yXqomDWWlSinxXV1dtvYiH77ZTkmxcal5ZUh4Wq5dKioWkZhzmXCr3iBfNTbq73ynf390k+W3HO8FWd6lTbQJHtDQ7NLZ2yiXcRzbL4QQIECBAgAABAgQIjBQ4p4TctqQ2Rs3mfBJm+bb5syW15lEqmwlcDYAMxXaspm4tqJK4Q97uDHyhvLzB+5TY3K2slSkiNvrEgJcV1bJ0ud85NO3IzWqTLuuXmff3a9eGWFRj949sanZ4HIhT1TFBMxVBgAABAgQIECBAgEC3QJGQN5XAtpsKDbEtm3dt+FOfJC0WtXZP2aXE1bY2tZRt6hEp9Szmk6ZwWSqn8yrU9X11cjlV0rBxZEKulBhKa+pEZe/sZexX1yGh5MYRieV03darz7mhiYe+FZvUdnpsAfbhv2Xaf7PZlIJ0l9KhTc2Oi8KHfFlyTN2OJUCAAAECBAgQIEBgMoGQkBvLDL/6D54bmz4ht2ekbaNDI5viSWhP08eN/R70Zk+9g8oodgqlDQtyoV99Y5MCZ6Nk96eNLZwWsqgi30pNurq66uhc+pKlfWl6UGr8eiCv8bif89RyXBsdTYAAAQIECBAgQIBAn8ALSMgheU6c66YtOZQ2KCGH/Tsy5P4ECNO/9cJTHG3Mz8UpFGqcWLKoI7W3d3J4u2doUgtCzK71rtcqPvCNrB1pKfvpqjmwdQ4jQIAAAQIECBAgQGCYwAtIyCEctoSoYVT1vUI8myAxhtIGRazQr/79Q+F1hDNOyNlK8zxL1zs23/pnCbn+z8M7BAgQIECAAAECBM5P4GUl5P4kOWoEQ+ycPyEPWGAcOtPZ1HNOyEU0bV5DHTs+wSAF0tJm0Yz29d6lA7wgQIAAAQIECBAgQGCBAs8/IY9LkqOGKKav48N3KG1IYalfPUuj9z0Kc6210p9JQm4OwKHjzTuMGvK2nYuEPGw42srxPgECBAgQIECAAAECTynw/BNyfBJPLRseRx8y7QThK5Q2pJ0pIQ+atAyF15v6TBJy4yrruAy7eZb5uHNgf3TM4c3tmKQahRAgQIAAAQIECBAgcFKBl5WQJ84unbFz9LCF0oYk5HHJPxReR3jWCTnr+cnvoRV42587NfqMcAABAgQIECBAgAABAjMLnDgh1+crQ//SLGjbwtRpkltML4OiZ2hi9+a0JYfSBjUz7F8PvdWGd97WaxrnapVHvQ5N6sYIk7ctO6bT7OrqqvN8PLzBM1RxeOMcSYAAAQIECBAgQIDAYIEXkJBL62xbUtRgr9KOIaNOEL1CacNaGcJhX0QOgbNh1+5Piy6HFk7Q36Lchq3QpE6MkPwbOrYrOOxzmgnezCVNU7c2o6GX3iJAgAABAgQIECBAYFkCp0jIpcDQnm/Wq7ubXa447RzyJovIKcBMGe2mTYyhtHa00tkT+9V1SCi58VLcVE7bQOxrjeV01Vdq5GEvUpM6J36zBnWfQtvai68Srq6upk+wpQQ+ffGHATqKAAECBAgQIECAAIEDBE6RkAck0iwdF6m17V5TKSYdm9xCtOvLSNuWDY05RfTKJifXB/iHQ0Ijh8bPUjZra0ARI9v6Pplz6M2Rm6lJuwDc2LfS2ubOISvtOeV3JPsHLp/k+5cjBR1OgAABAgQIECBAgMB4gZMk5HgTqW36DdlxvbrPp45TrtjNE4ad9v1IMenYhLzZxIyUBcWbu9W6XOE6y8Y3l/vc3hm4EnMpfF5e3tzd368qf8qV7I5crys7bV/e34Xa6zs0FVSZHr/MepUal6W3DLv4JqJxAnkTCjneOdZ+zHYa+nSSlPu2Xt3vFyDkEbq7tuK7jM5J6e5CGj6N51WPXsPR3iJAgAABAgQIECBAYFkCp0nI4dLflHDqGzd3RSbcfVrJpSkm9WSPMPvaPkFYSrOxMSmXxjcHzgnHgBQPT9uVHu0GP/Ur7da70RZut/G2yMAd5XQYpvZ07JO1fJDzNOd3alK9R/Xxah/0ojGVkRo6S18U0LQVQKYN3k2VeY8AAQIECBAgQIAAgZMLnCghZ8Gtnm3SO9l063a2s5JbKnkyxaSJkltx5XNqSePG5c19eS62Yxhag/eu5EqPdgWlfjXW3vhme0LOZorjRHHz4V3HF6viJ3Lu4Br6USLaflVxX0/FqZuDl7eXRqqnp0OauS7PSw+J6UOKtQ8BAgQIECBAgAABAk8ncLKEvA9u1enN7VLkUvxM9+uqXyUbYlJj0szZwlRef07ZLqZO+aqy0bD6Oq+k/WdpeXa1wPvSsuddIalflZ07XnYm3LSeuqq9K7C8PrmhH6k9Pbmx27l57Xh9uXjtnQahGNq3073Zqupq77bnUtPBDV1M8EUh269pWnft+SBQZLPHfcPTU5qPCRAgQIAAAQIECBBYhsAJE/KugzE3Va78DQL5Xu17hJ2n2cyrzAPbjFVP04HGUiq9mrNTnasGOsJ/55cf5U7G3h3WtXKy3X4pU/q+plxf86vtnH2RtNvuM9d8sHcJECBAgAABAgQIEFiwwIiEPM2lmwu20LSjBGZIyEe1Lz+4FpLzJf/5Dh0/m+4zV7k7WsfRPiJAgAABAgQIECBAYOECfQk5xB4JeeFj+cTNC6dKx4xx/aMRc8hT9bB25Xb/4vxt1ZXL5o9apz1VX5RDgAABAgQIECBAgMB0At0JOZtu20UaV1pOZ66kJQis01PHxpzbxd25Rsw8L6G72kCAAAECBAgQIECAwACBkJDjRZ6r1eq+/CjdgbNsA6q0C4GFCOyuKB51am/XaN/cDb/Z+UK6qhkECBAgQIAAAQIECAwQCAm5c5XsqBQxoF67EFiIwNhbfo3dfyHd1AwCBAgQIECAAAECBPoFBiXkMctQ+6u0BwECBAgQIECAAAECBAgQWKBAf0LePiJ4gS3XJAIECBAgQIAAAQIECBAgMKVASMhTFqssAgQIECBAgAABAgQIECBwZgIS8pkNmOYSIECAAAECBAgQIECAwIkEJOQTwSqWAAECBAgQIECAAAECBM5MQEI+swHTXAIECBAgQIAAAQIECBA4kYCEfCJYxRIgQIAAAQIECBAgQIDAmQlIyGc2YJpLgAABAgQIECBAgAABAicSkJBPBKtYAgQIECBAgAABAgQIEDgzAQn5zAZMcwkQIECAAAECBAgQIEDgRAIS8olgFUuAAAECBAgQIECAAAECZyYgIZ/ZgGkuAQIECBAgQIAAAQIECJxIQEI+EaxiCRAgQIAAAQIECBAgQODMBCTkMxswzSVAgAABAgQIECBAgACBEwlIyCeCVSwBAgQIECBAgAABAgQInJmAhHxmA6a5BAgQIECAAAECBAgQIHAiAQn5RLCKJUCAAAECBAgQIECAAIEzE5CQz2zANJcAAQIECBAgQIAAAQIETiQgIZ8IVrEECBAgQIAAAQIECBAgcGYCEvKZDZjmEiBAgAABAgQIECBAgMCJBCTkE8EqlgABAgQIECBAgAABAgTOTEBCPrMB01wCBAgQIECAAAECBAgQOJHAqIS8Xq/in/V6faJWvcxic12qc45/pj6mvmx/IzRGzL4ECBAgQIAAAQIEzkdgYEJe39/dXDX9uby8ublbicrHjvj6/ubyMgHf3Mtgx4oOOH692p7Vl2O4V3fZMN3c3YvJA4TtQoAAAQIECBAgQODMBIYk5NVdCG8pxVU2bu5HzcSdGdOJm5vl4+h5eXlH87Tm5a8khnKHoy4vs6+GTttIpRMgQIAAAQIECBAgMK9Af0LeTZrF/JbNoZUz8+Woabh5e3jC2tar+7v8z1GzvtXvIF6o5wmHqlT0enVXOZ8Hnr/1fwtjpp9LbfCCAAECBAgQIECAAIEFCvQm5FJ4q8yarbOImK2+fqFTnnFGcegsZOM5YA65keUkb67vq9cLVM7qzlq3Z3z566Gbo4a+szYfEiBAgAABAgQIECAwr0BfQo4hsG2+7MXesSviHBmTQlHZFP1RM9LznkFnVVtl9vjAufrs+uXSqngh+azOAo0lQIAAAQIECBAg0CowIiGLbVXFEGunmEV3L+sq8MSvw3hlCx+OyrVZWXGptn8dEw+W4ggQIECAAAECBAg8hYCEfIR6SFxTJOQjWuLQfoHS9QJT3AutFJIPnI7ub7Y9CBAgQIAAAQIECBCYT+BsE3Lp2cwH3FJ4XSrgsOdVLTAhl3t1WLdKZ1+pwAOcS4Ud+qIyWNkTicc2Jd5ka7o0W07d5pEPHWDHESBAgAABAgQIEFiIwCkSchEbum8RnO6Z1JZYUqoJ5TTcKilbMTv40Tu74+P62LS9fbJz+7iEPJwO6d2Ya265mWXXvN47UZ3Cud1x8CfbPlXumh7Bd4/iHlRceeymTLLlko+8Gn1QX+xEgAABAgQIECBAgMDJBM4kIWdBM7s/UgxI9e2+fNJfQlfSLmeheu2N73Qk5PQFQf3Avo6UT4fajaPqBbZ9B7ErqEjI0ziXm3fQq96xTn0cEndTB7eXH098G7STFn4QnoMIECBAgAABAgQIEDhQoEjIHYEtpZH6RtP1nNPPIdfrbXynqTHJJQu49aMuLxtSd3NAXWhCLrRj7+pTrx0hOWa8WEjbdqdzAj9yo6FfN00jeHV11TxeRf2lovp2Lg4buhVOjA7koaXZjwABAgQIECBAgACBpxM4v4S8XQtdXIW6nUAtom9b/qnk/5u7+1VRxmZTnqBuSYD5vaZX+Z/7uxREL2/u83fLP9svmK00KcbRtl7Uz5MYbusT4JUl5WGxeqmkWEhqxmHOpXKPfLG6u7m5u79vuOZ4vbpP8v2P417dpU61CRzd0uIMHDKnfWR1DidAgAABAgQIECBA4EQC55SQL2/uGhfIxqjZnE/CLN92yrEUjgvZPEplM4Gr4u3WrVBsx2rq9sPLWTrk7aEJOW/w9krsu3LmT9VmrUwRsdGnkpAPd051zrAR+97Yq7wNsXedO+YHHPBzcGMOKNshBAgQIECAAAECBAjMJlAk5E1tijQLcCG2ZfOuDX/qk6TFotbuKbuUbNvWppayTVsA3Gw2MZ80hctSOY0hO/de31cnl/NPmn4emZArRYbSmjpR2Tt7GfvVdUgouXFEYjldt/Xqc25o4gnfGnialb4g6FI6pqlR+JAvS46p27EECBAgQIAAAQIECEwmEBJyY5nhV//B828Do8tmeEJui9D7JodGNsWT0J6mjxv7PejNnnoHlVHsFEobFuRCv/rGJmXgRsnuTxtbOC1kUcWIrYHdD7s1fj0wosaOXeeppaMBPiJAgAABAgQIECBAYAKBF5CQQ/KcONdNW3IobVBCDvv3BeTSNHu98GUn5HV2NfXdTdttuvpuTx2za73rE/wT2haRDUZayn66aqZqrnIIECBAgAABAgQIEGgUeAEJOawN7k+SjUhtb4aMOkH2DqUNilihX/37h8LrCEtNyP1P59qF0q654dDxlhuwtY3uqPezaiTkUWR2JkCAAAECBAgQILBAgZeVkPuT5Kghiunr+KJDaUMKS2vUBzzuaJOtaL/cR7h6mF9iQg4NTsmzbUNCHnXa2pkAAQIECBAgQIAAgTaB55+QxyXJNqfG90OKq8fOxiO63gyljUrIjZcW1yoKi41rpS8vIRetzWeJb+6yBz/FPyHz16fFi/4XRc0zhzxsOIr22SJAgAABAgQIECBAYDkCzz8hxztd17LhcQMRMu0TJuTnN4ecEvvuGuOWp1iF6Ds0IXftd9ypEBrTNaN9XCWOJkCAAAECBAgQIEDgxAIvKyFPnJCeNCGPS/6hqXWElEh75j9DIRN8I9B6Zoe0WW9rcdTA3bJGp+XZE39FkhoTZU5Jkyq0QYAAAQIECBAgQIDAKQROnJA700Ja/9wWzKZJbjG9TJuQpi05lDaomWH/riC5O2s6b+s1jfNUp2foV6fDwIRcPFQsm5HuLPHgHqQz+XRVHNw2BxIgQIAAAQIECBAgMFzgBSTkTYhS0yakkOUmKDiUNizHhX71ReTuDNz9aXEyhRZO0N+i3PJWHubbvjfJ9x7c/bzALL6epN2ZS5qm7huKvPl+EiBAgAABAgQIECCwPIFTJORSYGgPe8WzfNqy0FTJLZUz8RTftIkxlNaOVjqDYr+6DgklN14km8ppG4h9rbGcrvpKjRz9ItTSVUnMvT2ptMjSV1dXPfuObm7pWdM9gAcU7hACBAgQIECAAAECBGYUOEVCziZt05Ra86Rdlo6LfdruNZXK6QkeIVO1VFfc97gvI21bNjRFFdErm5xcHzduoRddyTBWElNiawOyctNwNPZsMufYtsO3g2obRHb6FJ1qjP2x/tIq6OZTJO4+arvEO3HZoxpiZwIECBAgQIAAAQIEjhY4SUKON5Hapt+QHder+7ubFNjSRmO+mzC5xYyUheSbu9U6tGqz2ayzbJxyV2OSrGmX09HlTfWBRKtVY2xer+NTi/Lt+yL13ZSfa7Tdo9zavCmJaLuEOOtV/kn2c4vdnyRTIcd+ExHrPmI7tSfr1M19tU+186en2VlLitQ97TqCeF4NaMYRKA4lQIAAAQIECBAgQOD0AqdJyOVAkmJwZePmrsiEu48quTQlpZ7sEWZf2yfxSmk2tiSl4vjmwDnhGJDi4Wm70qPdgKZ+pd16N9qnSUvZr6OcDsPUno59spYPcp7inA0VpR7dhJnw9Gbc6L7GuDJSbZPT41pfbmf7uTeuVHsTIECAAAECBAgQIPBUAidKyKWLM2OM2W1fXu5nOyu5pZInp05uxZXP9SbFd2rzlh2j0xq8dwVWerQrKPUrVtq93Z6Qs5niypL1elHd0Te1p3u3+RLydtK38ZuL1LXtKXR/F9da9yTU0kj19LRjwNNH69J3E935PB1kgwABAgQIECBAgACBJQucLCHvg1uxxHeXbbJgU142uwqLZit58iTJbbuYOgWtykbD6uv+0Sstz64WeF9a9rwrLPWrsnPHy66EnBW6W09d1d4VWF17XetRak9PbgxTpg1ptHnteL6GvONng9C2iS0L8rNF8ukcWmdr03fdHJBRK5n25vCZ5ECxW9/eNM41aG8QIECAAAECBAgQILBsgRMm5F3HY26qXPkbZPK92vcIO0+zmVeZR7cZq56mA42lVHo1Z6fCbcM6on79o8rXIrVulbvU2KP8uu62rF2UWU6229u2lS9zLnZt3drO2Ze+jDg8abdW4gMCBAgQIECAAAECBJ5AYERCFgOeYHzOqMpTJeSpCWohOV/yP6Cipmntyt3RBpRiFwIECBAgQIAAAQIEFirQl5BD7JGQFzqGC2lWOFXqE8Ud7/TNIZ+ge7UrtxsWjTdVW7lsfnstdNN+3iNAgAABAgQIECBA4DwFuhNyNt22yzY9V6ieZ+e1+gULZFcwjz+3iyuZR8w8v2BlXSdAgAABAgQIECBwXgIhIZev91zdF/dA2t6LyBTyeY2s1vYL7K4oHjiBvCtuu0a7uFNYfx32IECAAAECBAgQIEDgfARCQu5cJTsqRZxP97WUQOO9vzpYxu7fUZSPCBAgQIAAAQIECBBYlsCghGyJ9bIGTWsIECBAgAABAgQIECBA4AQC/Ql5+4jgE9SsSAIECBAgQIAAAQIECBAgsCSBkJCX1CxtIUCAAAECBAgQIECAAAECMwtIyDODq44AAQIECBAgQIAAAQIEFiogIS90YDSLAAECBAgQIECAAAECBGYWkJBnBlcdAQIECBAgQIAAAQIECCxUQEJe6MBoFgECBAgQIECAAAECBAjMLCAhzwyuOgIECBAgQIAAAQIECBBYqICEvNCB0SwCBAgQIECAAAECBAgQmFlAQp4ZXHUECBAgQIAAAQIECBAgsFABCXmhA6NZBAgQIECAAAECBAgQIDCzgIQ8M7jqCBAgQIAAAQIECBAgQGChAhLyQgdGswgQIECAAAECBAgQIEBgZgEJeWZw1REgQIAAAQIECBAgQIDAQgUk5IUOjGYRIECAAAECBAgQIECAwMwCEvLM4KojQIAAAQIECBAgQIAAgYUKSMgLHRjNIkCAAAECBAgQIECAAIGZBSTkmcFVR4AAAQIECBAgQIAAAQILFZCQFzowmkWAAAECBAgQIECAAAECMwtIyDODq44AAQIECBAgQIAAAQIEFiogIS90YDSLAAECBAgQIECAAAECBGYWkJBnBlcdAQIECBAgQIAAAQIECCxUQEJe6MBoFgECBAgQIECAAAECBAjMLDAqIa/Xq/hnvV7P3NrnXV2uS3XOcc7Ux9SX7W+ExojZlwABAgQIECBAgMD5CAxMyOv7u5urpj+Xlzc3dytR+dgRX9/fXF4m4Jv7F5nBygg7jcvLu1EBdsxArFfbs/pyDPfqLhumm7t7MXkMtX0JECBAgAABAgQInIfAkIS8ugvhLaW4ysbN/cmCzHlIHtPKLBpGz1PGwmPaeeJj50zI5bqGpvBw1OVl9tXQiUUUT4AAAQIECBAgQIDArAL9CXk3aRbzWzaHVs7Ml6Om4Wbt4CkrW6/u7/I/R836Vr+DeMmeN6f/smC9uquczwPP3/q/hTHTz6c8FZVNgAABAgQIECBAgMAUAr0JuRTeKrNm6ywiZquvT7gSdopOnqqMOKM4dBaysS1ZQTGzvdA55GCTsujkFOv76vUClbM6tKK+uT3jy18P3Rw19PUqvEOAAAECBAgQIECAwJMJ9CXkGALb5ste7B27Is6RMSkUlU3RHzUj/WQn04QVnyghV2aPD5yrz65fLn2jISRPOPSKIkCAAAECBAgQIPCEAiMSsthWHacQa6eYRXcv6wL4JAk5jFe28OGoXJuVFaf9/esoBs8WAQIECBAgQIAAgbMVkJCPGLqQuKZIyEe05NkdeoKEXLpeYIrF26WQfOB09LMbOB0iQIAAAQIECBAgcNYCZ5uQS89mPuCWwutSAYc9r2qBCbncq8O6VTqhSwUe4FwqbPiLyRNyKjCbPR54Y67+5pZTt3nkfjF7ECBAgAABAgQIEFi0wCkSchEbupNIumdSW2JJqSaU03CrpF3mGfjond3xcX1s2t4+2bl9tEIeTof0bsw1t9zMsmte752oTuHc7jjok6JJSTC7+re4ydbNqOdwl8duyiRbLvnIq9EH0diJAAECBAgQIECAAIGTCZxJQs5iUpaQuhNpXz7pL6HrIbflLNTdkvRpynf1EUxfEKSd00ZfR8qF1W4clcpJG23fQewKKsfRfqVxzSs3duCrcpM2bUN/eXM35KZmqbTt5cdDjhjYzGy3kxY+oh12JUCAAAECBAgQIEDgaIEiIXcEthS06htN13NOP4dcr7fxnabGJKEs4NaPurxsSN3NCXChCbnQjr2rPLC6e2lxzHixkLbtTucEftRGatLl5d3dXcPApbZ1h/9tI0pEzYN7TGPDiTGgMcfU5FgCBAgQIECAAAECBE4rcH4JubK6djuBWiSotvxTyf83d/er0kW1pYnTlgSY32t6lf+5v0tB9PLmPn+3/HNdqiYOZqVJKfJdXV219SIevttOSbJxqXllSXlYrF4qKRaSmnGYc6ncI140N+nufqd8f3eT5Lcd7wRb3aVOtQkc0dLs0NjaKZdwH9kshxMgQIAAAQIECBAgMFLgnBJy25LaGDWb80mY5dvmz5bUmkepbCZwNQAyFNuxmrq1oEriDnm7M/CF8vIG71Nic7eyVqaI2OgTA15WVMvS5X7n0LQjN6tNuqxfZt7fr10bYlGN3T+yqdnhcSBOVccEzVQEAQIECBAgQIAAAQLdAkVC3lQC224qNMS2bN614U99krRY1No9ZZcSV9va1FK2qUek1LOYT5rCZamczqtQ1/fVyeVUScPGkQm5UmIorakTlb2zl7FfXYeEkhtHJJbTdVuvPueGJh76VmxS2+mxBT59+fwAABYzSURBVNiH/5Zp/81mUwrSXUqHNjU7Lgof8mXJMXU7lgABAgQIECBAgACByQRCQm4sM/zqP3hubPqE3J6Rto0OjWyKJ6E9TR839nvQmz31Diqj2CmUNizIhX71jU0KnI2S3Z82tnBayKKKfCs16erqqqNz6UuW9qXpQanx64G8xuN+zlPLcW10NAECBAgQIECAAAECfQIvICGH5Dlxrpu25FDaoIQc9u/IkPsTIEz/1gtPcbQxPxenUKhxYsmijtTe3snh7Z6hSS0IMbvWu16r+MA3snakpeynq+bA1jmMAAECBAgQIECAAIFhAi8gIYdw2BKihlHV9wrxbILEGEobFLFCv/r3D4XXEc44IWcrzfMsXe/YfOufJeT6Pw/vECBAgAABAgQIEDg/gZeVkPuT5KgRDLFz/oQ8YIFx6ExnU885IRfRtHkNdez4BIMUSEubRTPa13uXDvCCAAECBAgQIECAAIEFCjz/hDwuSY4aopi+jg/fobQhhaV+9SyN3vcozLXWSn8mCbk5AIeON+8wasjbdi4S8rDhaCvH+wQIECBAgAABAgQIPKXA80/I8Uk8tWx4HH3ItBOEr1DakHamhDxo0jIUXm/qM0nIjaus4zLs5lnm486B/dExhze3Y5JqFEKAAAECBAgQIECAwEkFXlZCnji7dMbO0cMWShuSkMcl/1B4HeFZJ+Ss5ye/h1bgbX/u1OgzwgEECBAgQIAAAQIECMwscOKEXJ+vDP1Ls6BtC1OnSW4xvQyKnqGJ3ZvTlhxKG9TMsH899FYb3nlbr2mcq1Ue9To0qRsjTN627JhOs6urq87z8fAGz1DF4Y1zJAECBAgQIECAAAECgwVeQEIurbNtSVGDvUo7how6QfQKpQ1rZQiHfRE5BM6GXbs/LbocWjhBf4tyG7ZCkzoxQvJv6Niu4LDPaSZ4M5c0Td3ajIZeeosAAQIECBAgQIAAgWUJnCIhlwJDe75Zr+5udrnitHPImywipwAzZbSbNjGG0trRSmdP7FfXIaHkxktxUzltA7GvNZbTVV+pkYe9SE3qnPjNGtR9Cm1rL75KuLq6mj7BlhL49MUfBugoAgQIECBAgAABAgQOEDhFQh6QSLN0XKTWtntNpZh0bHIL0a4vI21bNjTmFNErm5xcH+AfDgmNHBo/S9msrQFFjGzr+2TOoTdHbqYm7QJwY99Ka5s7h6y055TfkewfuHyS71+OFHQ4AQIECBAgQIAAAQLjBU6SkONNpLbpN2TH9eo+nzpOuWI3Txh22vcjxaRjE/JmEzNSFhRv7lbrcoXrLBvfXO5ze2fgSsyl8Hl5eXN3f7+q/ClXsjtyva7stH15fxdqr+/QVFBlevwy61VqXJbeMuzim4jGCeRNKOR451j7Mdtp6NNJUu7benW/X4CQR+ju2orvMjonpbsLafg0nlc9eg1He4sAAQIECBAgQIAAgWUJnCYhh0t/U8Kpb9zcFZlw92kll6aY1JM9wuxr+wRhKc3GxqRcGt8cOCccA1I8PG1XerQb/NSvtFvvRlu43cbbIgN3lNNhmNrTsU/W8kHO05zfqUn1HtXHq33Qi8ZURmroLH1RQNNWAJk2eDdV5j0CBAgQIECAAAECBE4ucKKEnAW3erZJ72TTrdvZzkpuqeTJFJMmSm7Flc+pJY0blzf35bnYjmFoDd67kis92hWU+tVYe+Ob7Qk5mymOE8XNh3cdX6yKn8i5g2voR4lo+1XFfT0Vp24OXt5eGqmeng5p5ro8Lz0kpg8p1j4ECBAgQIAAAQIECDydwMkS8j64Vac3t0uRS/Ez3a+rfpVsiEmNSTNnC1N5/Tllu5g65avKRsPq67yS9p+l5dnVAu9Ly553haR+VXbueNmZcNN66qr2rsDy+uSGfqT29OTGbufmteP15eK1dxqEYmjfTvdmq6qrvdueS00HN3QxwReFbL+mad2154NAkc0e9w1PT2k+JkCAAAECBAgQIEBgGQInTMi7DsbcVLnyNwjke7XvEXaeZjOvMg9sM1Y9TQcaS6n0as5Oda4a6Aj/nV9+lDsZe3dY18rJdvulTOn7mnJ9za+2c/ZF0m67z1zzwd4lQIAAAQIECBAgQGDBAiMS8jSXbi7YQtOOEpghIR/VvvzgWkjOl/znO3T8bLrPXOXuaB1H+4gAAQIECBAgQIAAgYUL9CXkEHsk5IWP5RM3L5wqHTPG9Y9GzCFP1cPaldv9i/O3VVcumz9qnfZUfVEOAQIECBAgQIAAAQLTCXQn5Gy6bRdpXGk5nbmSliCwTk8dG3NuF3fnGjHzvITuagMBAgQIECBAgAABAgMEQkKOF3muVqv78qN0B86yDajSLgQWIrC7onjUqb1do31zN/xm5wvpqmYQIECAAAECBAgQIDBAICTkzlWyo1LEgHrtQmAhAmNv+TV2/4V0UzMIECBAgAABAgQIEOgXGJSQxyxD7a/SHgQIECBAgAABAgQIECBAYIEC/Ql5+4jgBbZckwgQIECAAAECBAgQIECAwJQCISFPWayyCBAgQIAAAQIECBAgQIDAmQlIyGc2YJpLgAABAgQIECBAgAABAicSkJBPBKtYAgQIECBAgAABAgQIEDgzAQn5zAZMcwkQIECAAAECBAgQIEDgRAIS8olgFUuAAAECBAgQIECAAAECZyYgIZ/ZgGkuAQIECBAgQIAAAQIECJxIQEI+EaxiCRAgQIAAAQIECBAgQODMBCTkMxswzSVAgAABAgQIECBAgACBEwlIyCeCVSwBAgQIECBAgAABAgQInJmAhHxmA6a5BAgQIECAAAECBAgQIHAiAQn5RLCKJUCAAAECBAgQIECAAIEzE5CQz2zANJcAAQIECBAgQIAAAQIETiQgIZ8IVrEECBAgQIAAAQIECBAgcGYCEvKZDZjmEiBAgAABAgQIECBAgMCJBCTkE8EqlgABAgQIECBAgAABAgTOTEBCPrMB01wCBAgQIECAAAECBAgQOJGAhHwiWMUSIECAAAECBAgQIECAwJkJSMhnNmCaS4AAAQIECBAgQIAAAQInEpCQTwSrWAIECBAgQIAAAQIECBA4MwEJ+cwGTHMJECBAgAABAgQIECBA4EQC55iQf314+DH7+3gik2UUu16tVstoyfNoRea5fh5d0QsCBAgQIECAAAECBE4kcG4J+fH764v/e3Hx193f67e/nsjlSYtdr+5urq6uLm/uRbqpBmJ1d3l1dXVzdy8mT0WqHAIECBAgQIAAAQLPT+C8EvKvb6+LeLwNyV8/PLMxWd/fXGZZbvfnzjRyGN9dys2+OxjrElQvL2/upOSgapMAAQIECBAgQIAAgSRwXgn5x9swgbxNyH97+4RrrR9/fHv79e3u7xSz2evVXR6N9z9NI6czdTevvnMZm5BTtE68pucTrA0CBAgQIECAAAECBJLAeSXkhc0hxyXftz8m08M21vfZyur4x1xnLrlfdp5wxibkzWa9ur+Lk/PbFdcm6HNgPwkQIECAAAECBAgQ2AqcV0LebGIovfjrE1+HHBtzXEKuzB5fmjvO/33uom3KxruN8Ql5W1wWtIsV7EJybuwnAQIECBAgQIAAAQJ7gXNLyFmzF3Mv66kScrhKdnuDrrFX2T7Ps3mdBdrqvPpRCTlzyqxj3rbc+nmePXpFgAABAgQIECBA4CCBc0zIB3X0FAdNk5BXd+HWXP9/e3eP2zYSxmGcixQSkFsESJ+Whe6xRWoBOsXqAIGgyjdIp5qqfYDUBqRigaRTuwfgYkgO553hfFGibYl+goVNisPh8Edv8dc7JBdXlkdf4/Terc/zYEa0zLTXPKnLOhUrJFOut2xYQQABBBBAAAEEEEDgYwtkJuTLqX0Fsfp5meTZWJN3eOV1POmKdHNq4zqZIiHLh0jdTVo7n9Xbg+W/81TvnRIdh/u0i+oqEi9Wsp5889cI9rcS1JHH/d3TGgEEEEAAAQQQQACB2Qo0CVkmPf2q4aJ8VklYPa75qX//cL9Qrp+rcFA+7Ty7rLv3Ml2q3UG+07jts1y/hPu7Vb9a63dEtSel+vMPoyie1lXgHctepZ4rtBC/P9mOgqOSmozW6WnZ4kDBe5ybW36dx1nJ4u1ilXh22PBhY8vlUo/N86ys9k5gX/a2yrzdS4zFg75vTsjtbGsz3VoP8ta/NPZHAAEEEEAAAQQQQACBhxYIJ+TisKueh1G2D8lNmPSfuzchq6dqnV7W7guNt6ZDE1+tbr29tXvp1G21H66YhFwcqvpS+TK/GUax9Xf7CglZptxgcB2eT/vJmMQos6s3h8t3KclUPFz27t6OSB6l31G1Hzwiq9/a3He994RkVeVtonG/bcz5hszk5zfhy45YRgABBBBAAAEEEEAAgbkIdLOsT81kY/V230iC9ZRJw68jPjUTs2W5uHyK5u1tUR68delJE7II5J7T6bceuoK3vMzTJ2Rrru/oMmZOWViPX6bBwIGswbQJdmU/1KqPtYEemoO1E7TFjcSL1SpSl+6eTNbHYD1gz++pE3Lz0K6ujHw389s9581HCCCAAAIIIIAAAggg8GYC7n3InjiqgquYeOzUgQOFX30CL+tCz3DuE6mVhHVFN9yPZ0i6K3+xVx+7/y1qyH0G3pb2eZ0qa+63r2d5x/JLVb1Y08XLZ/XJ8D9J1w+oXZCRL1KZdfYyq2YqcirgmfQbexKYenT0Zr8/Du8PPh/3MuVmTHI2R+xz9cKao9294nhE5VxyxTK6AUouyS8OrrkCyQPQAAEEEEAAAQQQQAABBB5KIJWQ/bcHW7nXFyZ7A6tlUWy99xufquhNyCc7eYq6dPTQ/RhqNyGXh53vpmcZxbPetCyryvH7jc1YzNLt8Uz2EMuMY6rNZnzOkgyo6TTpJmQrHeuez8djTvG4ay4HEDtb3XvOb9ln+qRyeqQNAggggAACCCCAAAIIPLBANCGH67p1dTA37sbCoZWQs2JnElPk0isSsjeid8fMPSk9RDGSIoag21u/TQVYPM7KapFekQEvHBrl7cE3xEATejMKv6axehyX70bj9Nk5LfJO1tkpsSq/O8iojCd6YzMCCCCAAAIIIIAAAgg8uEAkIYfvMVbnLKJvJEjnNhujKHLp+IQcPSnRc1biHdveOkuTIVNzpK3d7BXZSSgimyh+w4HquhbHSkfeUY3tcwqtvUZClieVkftDQ+NzBBBAAAEEEEAAAQQQmIfA1Qn5sjPP9PI916rjyQzSYzBFLp1LQg6F2zRLxkTrsWH1rN7LtFHP1+pvIXYWMrLk2IOmz7R+lYRsvj64vpKfMXaaIIAAAggggAACCCCAwEMIXJ2Q5c29JORtVs1Z/kVMNL83PYN6RLDsnp7l5OHhKglZXkmWEUAAAQQQQAABBBBAYDYCJGRxKUV1Oivxjm0vDmW/auj6GrLVj2/yc0aRuRmWSOzDSOx8QkKWV5JlBBBAAAEEEEAAAQQQmI3A1QmZWdZ1fUtCtu6AvSEhNxG5TbC+24zFbOfYk6hMs66r1WqjXvwk/5kXPs0yIfv0ZvO/OSeCAAIIIIAAAggggAACWQJXJ+TMG4wzm2WNtWskculc7kP2FX+zSWITrfOmWMs682K1D7yCyaToGSVkcVIZZ5V9TWiIAAIIIIAAAggggAACDylwbUIWMTU6IZmEHPqzmPAZUSLm2VlbRt9wnTq4uz30zGbtTqMa28cJreWl/dDe/s/F3PJFrMbu35tPEUAAAQQQQAABBBBAYGYCVybkav1P/z7kaCGXhBz8g5G13xvTWZ+E7anCeTFVpMRwip7n254mvATBy8wGBBBAAAEEEEAAAQQQeByBqxKyLCAXkQdZ5782eQyYOHo0nJs+RZ6/n/chqxcM90/AurWAKbvSMVfGP7u0bGTUkt7XTtd2m7bdonv/U8Z85LxwPjxI5BM9zuVyeeMXCvogVhk/RqR34DcCCCCAAAIIIIAAAgjMWyCSkLfl7uI7efmMrlCbfj9qyD3FcMHEyOVyeVtCM2FPh+3hJ8MBNJ9k1pBlQE2P1ZxaRpwODMz5WA5AfwvgNBm3KjucbJTjhkBrBBBAAAEEEEAAAQQQuCuBWEIuiqd15YTki6jHbotEAXnuNeRa5P/iUJ1GX1lZ5tXJdnQn3Q4i76kAK1ZTFVeRZkPJ87hZ6QKyKuHOISGbbxCmK0pfe+3YDwEEEEAAAQQQQAABBO5DIJ6Qt0WxLcvDrnqpqpfd7lAW5vbjotj6JzmfLlXTvvn5bHbR/YitqtvKDeEG5nRqG9g/xTDKnb0p0JtI9ZPOsq6tcrr6QmH37J5dIjabdHpzTjORb7FYrVZ6RnRenDXzvd1nWZ+Pm1W/tXsXlLfP81m8G0q+GmpjvzWqb3U2V9pZkj31zfdmGOqB24N/4e6c3tWq/d1EOvF7uuAjBBBAAAEEEEAAAQQQmJ1AOiH3T+RyFgblZW1THZyWidXyOZQiRbJVWT3rP19vop9pE3J92j3FRxWYqa6t7Ki2XC5DRVyzQ2RJ1I37TJsqIDfdiYnW/Y59xu4/cRbcorfv6M4uctWbstuTk/FV7hJZTt1EbavZ55tFZHfAGgIIIIAAAggggAACCMxSIJaQy9KqGJsoWB52oVBb1/VHSsi1W0Z2Y3wyITcZuav3qjJyJDim/wBNGbkNkyN6s+dRD7PoYrHaHPcbOdfaSZaPkpDPdt3eOYs0Mi0QQAABBBBAAAEEEEBgtgKRhKzKrafqeV2aMmkz4/oSScfK6WMl5LquL9X6yUwmt2vdGQnZepFSG5KvryTbMXXc7OHzcT+YUN1G5dVmf2wnMZ/3GzN/2x6mfehhxnY+iXwV8Io1ZKd6HBnEbP+X58QQQAABBBBAAAEEEEAgKJBIyMH92DCtgJ3cmkdbd5l02uNk9GbdT3w8+27v1fcJ+7ZlHOGdmqg7qkUN/NY57e90FhwWAQQQQAABBBBAAAEEXk+AhPx6tiN7HoRkNa/5sTLoyDN+u+a+8ji4b+fPkRBAAAEEEEAAAQQQeBABEvI9XaimyilnI3OT7CSXx5m23dxTPUnHdIIAAggggAACCCCAAAKzEiAh39vlVHf6tiE5/ZytX7/qHz/qX78858AmC8U8nYvKvAXDCgIIIIAAAggggAACCAgBErLAuJvF9o7ZRAH558/606e6KNTPnz+tsX/wTZZFt9LMYTdPHPM14TMEEEAAAQQQQAABBBD46AIk5Lv9C/A+I0uP9s+f+vPn+q+/6r//Vj8/f65//+62sUkj2b+jnnZT1hBAAAEEEEAAAQQQQOBjCpCQH/O6f/+uqsffv6vRt8tlWf/3n1n9yJse85IyagQQQAABBBBAAAEEEHh3ARLyu1+C8QNYr7u68Z8/aufLpf7yRQXmr19rNl0u40HZAwEEEEAAAQQQQAABBBBQAm5CRuUBBIb3Hv/7b/3tmwrJbHqA68cQEUAAAQQQQAABBBBA4E4FSMh3emEYFgIIIIAAAggggAACCCCAwBsLkJDfGJzDIYAAAggggAACCCCAAAII3KkACflOLwzDQgABBBBAAAEEEEAAAQQQeGMBEvIbg3M4BBBAAAEEEEAAAQQQQACBOxUgId/phWFYCCCAAAIIIIAAAggggAACbyzwPx16HWXyuhbSAAAAAElFTkSuQmCC;sketch=1;curveFitting=1;jiggle=2;" parent="1" vertex="1">
                    <mxGeometry x="235.99770996093753" y="953" width="1291" height="990" as="geometry"/>
                </mxCell>
                <mxCell id="28" value="" style="rounded=1;whiteSpace=wrap;html=1;fillColor=none;sketch=1;curveFitting=1;jiggle=2;" parent="1" vertex="1">
                    <mxGeometry x="317.5" y="1007" width="217" height="61" as="geometry"/>
                </mxCell>
                <mxCell id="29" value="" style="rounded=1;whiteSpace=wrap;html=1;fillColor=none;sketch=1;curveFitting=1;jiggle=2;" parent="1" vertex="1">
                    <mxGeometry x="317.5" y="1122" width="217" height="61" as="geometry"/>
                </mxCell>
                <mxCell id="30" value="" style="rounded=1;whiteSpace=wrap;html=1;fillColor=none;sketch=1;curveFitting=1;jiggle=2;" parent="1" vertex="1">
                    <mxGeometry x="317.5" y="1474" width="265.5" height="61" as="geometry"/>
                </mxCell>
                <mxCell id="31" value="" style="rounded=1;whiteSpace=wrap;html=1;fillColor=none;sketch=1;curveFitting=1;jiggle=2;" parent="1" vertex="1">
                    <mxGeometry x="376" y="1883" width="105" height="60" as="geometry"/>
                </mxCell>
                <mxCell id="33" style="edgeStyle=orthogonalEdgeStyle;html=1;fontSize=40;entryX=1;entryY=0.5;entryDx=0;entryDy=0;sketch=1;curveFitting=1;jiggle=2;" parent="1" source="32" target="28" edge="1">
                    <mxGeometry relative="1" as="geometry">
                        <mxPoint x="1320" y="1059" as="targetPoint"/>
                        <Array as="points">
                            <mxPoint x="1302" y="1037"/>
                        </Array>
                    </mxGeometry>
                </mxCell>
                <mxCell id="34" style="edgeStyle=orthogonalEdgeStyle;html=1;fontSize=40;entryX=1;entryY=0.5;entryDx=0;entryDy=0;sketch=1;curveFitting=1;jiggle=2;" parent="1" source="32" target="29" edge="1">
                    <mxGeometry relative="1" as="geometry">
                        <Array as="points">
                            <mxPoint x="1301" y="1152"/>
                        </Array>
                    </mxGeometry>
                </mxCell>
                <mxCell id="32" value="function_a中的局部变量" style="text;html=1;strokeColor=none;fillColor=none;align=center;verticalAlign=middle;whiteSpace=wrap;rounded=0;fontSize=40;sketch=1;curveFitting=1;jiggle=2;" parent="1" vertex="1">
                    <mxGeometry x="1038" y="1079" width="527" height="30" as="geometry"/>
                </mxCell>
                <mxCell id="37" style="edgeStyle=orthogonalEdgeStyle;html=1;fontSize=40;entryX=1;entryY=0.5;entryDx=0;entryDy=0;sketch=1;curveFitting=1;jiggle=2;" parent="1" source="36" target="30" edge="1">
                    <mxGeometry relative="1" as="geometry"/>
                </mxCell>
                <mxCell id="36" value="function_b中的局部变量" style="text;html=1;strokeColor=none;fillColor=none;align=center;verticalAlign=middle;whiteSpace=wrap;rounded=0;fontSize=40;sketch=1;curveFitting=1;jiggle=2;" parent="1" vertex="1">
                    <mxGeometry x="1087.5" y="1489.5" width="428" height="30" as="geometry"/>
                </mxCell>
                <mxCell id="39" style="edgeStyle=orthogonalEdgeStyle;html=1;entryX=1;entryY=0.5;entryDx=0;entryDy=0;fontSize=40;sketch=1;curveFitting=1;jiggle=2;" parent="1" source="38" target="31" edge="1">
                    <mxGeometry relative="1" as="geometry"/>
                </mxCell>
                <mxCell id="38" value="在函数外无法访问函数内定义的局部变量" style="text;html=1;strokeColor=none;fillColor=none;align=center;verticalAlign=middle;whiteSpace=wrap;rounded=0;fontSize=40;sketch=1;curveFitting=1;jiggle=2;" parent="1" vertex="1">
                    <mxGeometry x="790" y="1898" width="729" height="30" as="geometry"/>
                </mxCell>
                <mxCell id="41" value="" style="shape=image;verticalLabelPosition=bottom;labelBackgroundColor=default;verticalAlign=top;aspect=fixed;imageAspect=0;image=data:image/png,iVBORw0KGgoAAAANSUhEUgAAAu4AAAFRCAIAAACkC7+gAAAgAElEQVR4Ae2dv44cN7aHJzDuzBPYz2FsNIAmVuhNHXqDMTqa+C5s332C8RiQDGdODUHRCpgOBFhQaMAO7TW6BSixDIwXMLDCBgYc9AWrushzWCSLVc3uaXZ/A0FTf1iHhx9rmr8+PMU6WfEDAQhAAAIQgAAEqiVwUq3nOA4BCEAAAhCAAARWSBluAghAAAIQgAAEKiaAlKm483AdAhCAAAQgAAGkDPcABCAAAQhAAAIVE0DKVNx5uA4BCEAAAhCAQKVS5u3i5a+37t/bxev77cq7xQ8/3rp/d4s39+vPgdV+t2YL1V127HI+n4+pz5RfjrmAshCAAATKEBglZX69fP+fJ395Zv59+muZ+kdbeXv96Yu1D60n9v/3X5x/+uvONc3d9VdfnPzt74F/H31x/tWPaJrRPexd8Obb84/+1+I9f3bnnWd3CwSW89nF2dnZ6cVNvjaZz07Pzs4uZjfomS30CCYhAIEUgbqkjNBSVsH0Ns6/3pnM+vFSjLJ2uPU2zp/9mOoBzqUI3F1/5nSMAfvRN7ep8pzbmMDy5uLUiJL2Z5YZmBFXnZ5ezJAzG/cDBiAAgXwCNUmZ20+7mJCQL+c2UNQefP/F9a4mm26/0qNsE5uRIYRm6P3i+ginRd78eP3VN5ftv43iKD2x+NFR8sz/g96s5HI+6zTM+ndmYKYNychrxwR0NnOaqyEAgaMnUJGUUSEZM5ckOm/x+tf1xNPuZr7UKGvmkqQ/ZixvJp6+OsqQjJwV2ogAURlxV215c3ljJpXkz5joynJ+M5PhnGayKTOks+WGYR4CEDh0AvVImdc/uwDMhz9L3eD66PXb8HFXotyWHK0/+zZc75u78PFyXuypJQlnIymzWklTf/s7uTJb6nEvHnOaGY3xvDE5Nm5yCjXj4WEXAhDYEoEqpcz512+3hGOEWTHEMr763ASckw2ljDHNE0w+4ML7ItOlyfbNzZAJuWFsqdDOiNThkD2OQQACEBgigJQZIhQ7L0ZrpIwPScApIWV88+wXJTCfiTzf09NNdEzrl1IzEwM8RVuIMQhA4LAJbF/KvH4rFoD59fb11ICKmGAiKpO6Kd90MQyzzs2ER5fvFm/0GjmpyiLn9lDKKCw/3r6ZQEY3Vhnc2Jq2nb3ndZbp8bFzmjJjt5zs0PKIHODsHqUgBCAwgUBQyry9/fr78w/d40LnH37fSBCReDucXdsY8R4v6p488pJ2s/w+BCkjMoVj6TUNi8Wzbq2ayAM77uEpZ+fu9tk3/vNT5unlLy7zBM3ih28vvSefu/Vyzj/75jbxHJYULt0l3hPpgd0CE085N04ES/u4mU7W7pvbBud+LaOPNEnlgb628D/L7fSVnloqKTm05QmhnmWXRzwm+3g0Sy6AAAQOgIAvZRZff++yazvl0S5Jd/6pOJWWMq9/vhRKKLai3binppEy4nZzQ6xZZ+XuNrZMXze2Xf4gLg5sDltISaLSUsYpuc5/q4SGGqLb9ubHmDizBk8iYrE1VJqzdm/S3mBf26blzHuqkExJIWPatolx73GqArNek2hzEQQgUAUBKWXeBhduCQuRhJQRmkNeG1BIkTVgFl9H1vPV0koaN9vvf7+lxdMSI6sdNgIbgcXcthCV6Q32AU8GVpbrPfDc2vyoiwyJKsJKYk+ljKAtmhAIZsTVjJMywkKY8BraDlbwC7TrPBJOC/eX+2RS00ATAifOUnBLBGZGTl2pbBuTiYyWCRLmIAQg0BBwUsYXEB++uPz65zbN5VrGY1o9EZUyYhLqL89OPvz++qVOjnn96+WHQqmE9IfvSVrB2LMhU0V6uRYp00wDuaSNxQ9qvik2qnmtO//qWz2XpAM2AX0mnjCyb6GSU12ffSveTiWycOLZKp5LUjrEWtHvaKVCerNs/myam6dTlpSRTs1M46zsbrjzwzfnn31z/SzwWozFD+o9DwM512JBvGkPXw+2QwZmxgR9kDKDaCkAAQg4Ap2UkaGU919cevrDlH97K4MlESmjVEhs9ZfVShbr5/DKs37oxQqX/sYxS5nPvgmuKSw1QXi6QQdUolk1P3yz1hMffXE9MFfV3FvS7IScGJV3/KPMAcqVMtbhNiIVTvRR4aggH1/KTObs/uK2vyXbHpForRNTdcaYJkxVS0wwjaFMWQgcO4G1lJFTS5cvY1BExCUsZUSBIWHhauwrntfyrdfdtkjiOf90HS5Sz0a93Nr6eN7I2sYeRODBRDJsQMJt9J8lEVMDyTHGSZDI3IccYr2FhlXnyVEtJCmUneQbBhbPvrnOSx82DmwoZVQblLVMKSPblbpE+hnqEWlnE85eg7a8m3mbqchH+dmltpFqjmlcJaT9bvk+wTwEDodAI2VkSKYvLFxjhVIJSpmX39sgSlwPdeZs4UjGTFeu+y2c7AdyukI7/C1GweAX+pArmWPMaoSUiWidde3CydBcg/AnPHMUakTOsYF6c0yIMsJaSpe4K0S7QgLFFVytnFgJkUyfdXaEhyHOruBOtjKb7xJlRiayjGrEbmoZ5RKFIQCBQyPQSBmrKv7yLKkSBqSMmxjKUifO2rDuWa1WSBlx75UZYrc3AJe1LKxlSRlRflhlisBV33gZzqLjim7emYyfr76I5fyaOcGUkpMiY1y8ZEwrdhL7GeMQZSEAgcMjYKRMtgRx4uMkFJVxc0ZDs0sNR2ctqZ865kiZjsRqKJbgCopBPRAtEKP48JDvjGZspevNMKCKCGt9taFKtjuiXcPlhfE+hH2VMjoXu8tHlvnR6+2ElNlg6ifAPHoIKRNFwwkIQKAUASNlhAR5kVzrxYmPASnTz8lNHkHKeN25owmmUUO+52J6V+iDgIRKX9s/K6wNS5OVmJ7729+HywvjfVf3UcpIhxMipj2FlOnfThyBAAQOjoAnZdJLs2xLyjDB5N1Xu5EyrpacId9zMb0rh9tQunH6av+ssDYsTaSUCaW/+MZXIrOk5+r+SRnh7VqsfHH51bfXLtn8x1v5PHZCypgV7Nbvfdzmqi0uKrPNjJxer3IAAhA4JgJ7IGWyEmvIlVF3ZZkhlqjM0MNWZTirrttox/nT5MHoFYCsZSF3cqXMmDVfbD1ZG1Iwba+WLFcoBAEIHCqBLeXKvLj8unuI+uXgRt5D1OTKiHvQDWnpwIOIZ/RnT1ZCyvTTRERt4zfT9Y61J6zlRGVku4bLC+N9CGU4j21vtHymRsks5uIlZ2dn28r73VFGThQZJyAAgWMgYKTMqvgTTH95ljVnNArwgUmZ5MPPbuonolTKDLFiFA8InVG94xUua1lYG5YmOtDSVyeep2ndU4azX+XU/VwOmVLGvEryrPvZ0osBdlDFVJpcBwEIHA6BRsqsRBLMJuvKCLURzAveCJswnpUmvFFlGReLcWV4vFzbE2PMPkgZmSaS9CcDhy4i4BQQScJalpSR7UrNsBif02Ilfda1WXhYoL3Ort6yUbSIwO1Ki9ss3Xy5FO9WtIwK/DC91HUQvyEAgcIEWikjHmJKLS0jFE/oYezV6u21fSF2ZgZMfnMOQcqolfLjo7J41DYyaJUaYp2dv/295BhcdmgX1uLQ1J0k25W6RFgOLsHi7EQ6Yl2rtNPLHVaebbIjakk1yiqegXVl2ndXrzN/z87OyksNJZVGm2e1301uFq6FwFERWEsZuQDdSfgdTKuVDN6EpYyaqzopq2YOQcqIGEBMOrz58VK/5Tg4aBUbYsXoePK3vyfDS43ASn/Ld386IjDw0TeR7FRXemBLOBmkEbhcDudRB5SyDLa9GOeAixMOCaoxwaTfIRrUZ7JiNQFUODCjQjJjbUvHzJuxt5XLI2GwDQEI1EqgkzJyobxmDZjzT39dvNatev3z5fv/XL+a4P0X/iuv12VFYGZt5+fb1/rl2Ku3i5e/Xn/64vz9f46YhzoIKSMzM07MI9DuRdarNz9ef/VFYJWzr35c6H4YnBZxxYUIiAVdXF5O83Cv99pnY+qNETHnH/1v61twyHc1rreUSjj56IvLZ73XVIVe8bgYfN3VM/Fu7fUTyIKh8MOpEPNGyS8U6tVq9Jux9yEqI6fDAk8wiWCeXW8m7bbB5Z4wKqsYpBYZ/xi2kkHGMbSMuLfZhAAEPAJOyjRr5b2wL1GyG+d2zqi/zF047vLrZeQSo108I1nrAjc+H4aUkWkcdrzpbZx/9Y2VDkEB4cbp9FiVIWVWKy07hDOeD2uZFQ1yqFvLU0h9iRaURK5dwo3+tepINFAkYhhpa3GGzp94GdPsLM6Kz8QdWVHXqNSLC9oyyUQoqTmKPcokHlyapJCQMhNvEC6DwHESUFJGvcTA0xzB3bCUWZmkmU8DqsjXMY3N3BzeA5EyKy8wo0ZlET/wpIA38JceYkNf6LuRUnn42bfZs0VRhdQa9FrU/vm5dgVrDx6MSpnVqjdbp9qyHua/uA7Fh3x/9kTKrMz9E5aYFo4JQX172UXRTJOTUmZlnmRyGTPjIyi9T86ljvRMCqh4AmuSjZ5jHIAABA6UgC9lTDNfm9mfoOw4+fDF5affu+BKVMoYM4uXP8fCM8b4+y8Cc1gJygcjZczsRmg0MrMwai7pVsw3eQO/G/ILDrFm4A/NcDVjZGDiKdFZ61NqZsqTEV6L2itcu+zAPLiRkDLG6N3tsxDttlGhyTvZLOfPJpzf3N2q1Xj7c2SRIzGNFZuL/Nvfz7/qtOabb13S1YCU6U0znV5MT03x4jGno7N9LX/Sfi0KNiAAgTSBkJTprlio1e30Qnav3942Z/18mu5a8fvt4rVeJe+1NiWKpjYPSMq0zZR5IYvYoLW6W7Sj4JtwRkiK2NRz0jEzBu+w6qkuZ1zn6YldNkrmIA8qM1EgqPZEU7t7I3GHdLlH/XQrYafZ1BKkeaBpvvQLDewv57OL7mUI7YI10yXRQFWchgAEIOAIpKSMK7UPW0LKlF9/b0IDRdZC7mM1E2rhkgMgsC0pUxpNT82Y6EymnFnOb2Zuwb1Ox2ReXLoh2IMABI6MQD1SRixJvBdSRoxPSJkj+6sZ2Vxxq3izbOndoajMSDdyijdxlW4FYPM7M0nFT23ZZIoqx0/KQAACEBAEapEy4hnvZIKOaNpWN0VOazqLYqteYBwC5QmYHJVWzYxJAXapviNiOeWdxyIEIHCMBPZSynSJOG06zu3XOn04//ntUh3qpVk8EwmVw4+HlHICOxDYHYE26yUzJNO61UxPXcxucqekdtcYaoIABA6dwF5KGTGXFHiQKrbQ8Pa6Kj1BEFt3dXv+YBkCuyCwHJnqMrb8LtpAHRCAwDEQqE3K3MvsUkLKMLt0DH8ltBECEIAABPaYQE1S5vzD72+9dynshmxEyjRLrezGA2qBAAQgAAEIQCBMYC+lTNhVjkIAAhCAAAQgAAGfAFLGJ8I+BCAAAQhAAAIVEUDKVNRZuAoBCEAAAhCAgE8AKeMTYR8CEIAABCAAgYoIIGUq6ixchQAEIAABCEDAJ4CU8YmwDwEIQAACEIBARQSQMhV1Fq5CAAIQgAAEIOATQMr4RNiHAAQgAAEIQKAiAkiZijoLVyEAAQhAAAIQ8AkgZXwi7EMAAhCAAAQgUBEBpExFnYWrEIAABCAAAQj4BJAyPhH2IQABCEAAAhCoiABSpqLOwlUIQAACEIAABHwCSBmfCPsQgAAEIAABCFREAClTUWfhKgQgAAEIQAACPgGkjE+EfQhAAAIQgAAEKiKAlKmos3AVAhCAAAQgAAGfAFLGJ8I+BCAAAQhAAAIVEUDKVNRZuLrfBO4eP/jk3QdPni/u9tvPAt69mr+4evDo3Xc+uZoXsIYJCEAAAhsRQMpshI+LIdAReP7xJ+/+z6fv/c+n7z148ao7eLC/50/WjX3nyfOSjWzkYItxw/+RWSX7BVsQ2G8CSJn97h+8q4SAHdqLShknjzYc19vL33n0eFGKZ6c53vnk4ecFo1CdWYPx0cNp/9aNJWJUqq+xA4G9J4CU2fsuGuHgb7e3/zL/io1XI+reXdHlfL5nsxqLFw89qVEoMLPHUma1suqtZGCmkzIbqK5Xnz8yESOiMrv7k6QmCAwSMJ/by8FSkwsgZSaj27MLFy/PT/7v5OQf7b/z69/2zL8i7izns4uzs7PTi5st/k2M9NTqGDN23jnxUULNrK2988nDj59cbfDv4YNm8mtAH9w9HlnFWsC988nDB9nuDYRwkDIjbz+KQ6AKAvPZ6dnZ2cXsZkt6BilTxW0w6ORv1+dOxzRq5unt4EV1FVjeXJyaP4b2Z5YTmPnpSgZLnLboxsv2rDs+Hsiiq8LNs5RUM52U2XRiKM9O1xYJrfj2xz8lKeuu2aR2ojJ90FsJpPWriR3RN5j7u9Od7o7H7HD8ngi0csR8mcz6/BVeik/v09OL2RbkDFJG4K5481+XIiTTSJkvr+9xmmnxr+vLp5ftvxLxoeV81mmY9e+swIz+iHSDaOz4yBsgoGNaC8XUTJ4EGXY7z44eaTaREYlrXS8E3RZdMy1R5sEjGyvi6SqFeP7ETYOWnBNUlSR3ROf+z6fvuTshdjxpjJM7JtBGxNvP37FSxmog+zFePLCOlNnx/bCl6vYsKiNnuy7/tWGblzdmUkn+5Kp68RHpoibGm/XQ3o647iN1jKNiXimU9yrVzJPnU1VlngQZdruMHdvk/vdme2oaTNeCrssG5sLcBf0tcmUCTKSOMYlEZZ8761cYPNJ1bpPJJP9qCvw9BivkYCEC65l9+yE8VsqsVsv5zUyG1ZvJppzQem4LkDK5pPa9nFQPJ/+451wZ6cxmUsaLx5xmRWNsX7mPSD3dsB7teh+p9sL0xis7MGiF5F0lann0eD7lMZ8yEsRKt9H64O75/M49WG71ClLG6+l93l389PjjJg9ahsruR8qIrxBF/x73GX/1vrUaxIqYdmO8lGk4GEXkkgTKqhmkTPW3mmjA3jzBVErKiBnWJtt37AytEhMyNOKSBsY+snv33A4M7zy6GhIoWvT85GSB6LXE5v1KGRveWH+Bzpcyi5+uHnzSLKA3VsCJL+5MMCXujJxTC3OvukmlPZAyW/h7zAFBmUkElkZ5+BHxjaSMccN8pkthVGqmCSkzqZO5KE2gjJSZz0Se7+mkLwJOsujM2djxgWY1I3Q7JDx4krtGi1UAZq2UcZNNLqokx6HJ2+OiMl3qjP0GbxsyGJVppcyUoJeQMpOb2V6ov/enO/bQzi5eGCmZAGj7dMctj/3dxY7v2D2qawkse5NBUnxMSftVZJWaGRloV4bkDlJG0piw/duiXcrF/P+b/N4/wVZ7SXGDEz1ZdDGepmnjjJSQMjJTbPLtbkdf77PbHdcSJ97MV593WZPm0eix6/mKEfqdR1ef54Zn7lHKdAEhsQKehTYoZQzGTvYZXOmnluLQqz3zanH3fP6T/PeqyIfDarVaOLNxm+J+64TdQxmh8f4cdsbZ3kKeA+547t/jzly+l4qWS7MKi/xZllp+QhiO29ThcKNdTi9khGbS90pJUn9NLRGZQcpIvr1tOSR3S7acnL80n0rmIZ0v7TouduP88mVihbrFdeCSy/Vj07/dXj+Va8O0Ns8v/1XqQ7DXvNXtZfcId9soUyLsxsnJl5e3kbVqgpQsrthGOodG/y1NvtXtR6Q/+vZCDn049oiNMZgww/Ckkr3O23BiKDs84/TEyBVfIovQvMhNQLbfkiW3KMzVyp5SqiVTzdy9Wuzin9cdbok/9TSNX6rbF+IgGty6e/75k/USPsGIyDuPHn6cVLEWo7y8Q9q896oXa4nE+dxUTnOzNala3T1vbuMN0n5tyCdSdUcs9Ns2UN5XpmDn2yaOhSrc4jH5XWt45lt8oEXz/Zq0FC83VoZDTi8GHnjoPyFxdnbW+RZIvG2zVUIiSQVO1ovBiMdIN5Yy7USTm2nqnJzeX0iZJLvwIP30+latR2d1TLfxZadOfONBKWNSdBf/uvQXhlkvdmdsOp2hDAattT7EHFDXr4SUOXl6u/rtNiTOukYZf8Jmw5SE/0E1k5Qy8mMi+pfvNSa4231EduNBV6gbmfyP1O58+9tLmZzw2a3trZQqMuGKdPZMJ2V2+1XVjjfeuGKP96HZUz7njn88P7pw5EmKALkdmG/qfMsZ2m0DjTIIxeRsJrisNLgdvHx9v/WWjV5XJzK0+jbD0uqnqyZ8KF5uOqa93n1rdyWHHG72wvVG54N/n+T9PfrW7nd/zNAuRUbwi5l81FnKl/528PKWhKzFXmjK9/Jt7dkmBzG04qiJmzQaxiqdMe3N6ZliH/JNZUiZAeaLZp7FrJKSkBqBoTq+rMuimZOSAZjzL/vBGCkgTs6fBiM9RaXMkPJYtzG08l55KaPCjxsJ9uYjMjSOrkdQ/yO1ux2alEmXbWAsvFAL7vVHlMwjD56oJ0pS803d53t4rOpcLfvbjlX9sd+e6g/G9lSfpz3VN9h4fn9SpsPbBNsGMp9smCoewgk05EHv0aH2JulTcp1498pMIYlkl3cepSI9jfOD6eeN+U5GTJEga/9UsMfYGZ01b94eP+Hv0fHZn62cQEvnrRy2Ix9o6kOvlRoXOkPW6o+Ihaaydm5KJLucXlwkIj3rxymsXukcDvwuLWWaDOB1YGZyCoH1EyljUQxsBHSDURhizsWLrERCKV01/UXt/qElSxcjidsJuNSJqnD4pKvb/nYTTN2FJyf/ONftWtyqaa+QZZlV07wESgm1l+s3Q7mkovZFUQKddajdkH8zie8g3lXhXTPAxD46Q8fXVuzyd26cEyNBpmoJFmt0gHuyqfnaHZn36cba3UkZW6NIkbFcrSgZJWXMZGwXbPDCPNbyPW24gTlxJzS+OZmSGrx/unrw6OrzFyIQ0jVs8ZMZwu39kMHB1eiuUpOb61toxL0hbuAMBzrX1W9HrPUqRUNdaHcm/j3a6/dpw83CDI3ETqakHl8wDwzNbm7m/RyW5VytdZ4xv+NqtAJIr7K7XipmRMxbfiynxNSILpIKb8NPeqRMLndfN4RTWJRACY36tjpV0giIkMHFbTJRZtFoAisRhIBIVm19kBNMTVTm/GlwjWDZ9qwVa2ScJjmR5FwRWwXvb2F19ObixcMmZbWbAxp4RVH3nqOhFxLZnN/1E8uJrAUhLMrkytg3JYWmSDpArz5/chV8U5JVJGOlzMq8e3JwNq2rf4e/M2ItjTddRzhdO8FJqSSGZwx9KROc3Fz8FBHBQfekA4m7Lnhtd9DeA2spM9VOZ6/u3/KTKjW4j4nfRIlIJTE87PtSJphlsxz1gkfpQKq10RYETkibw40KGLCHkDIWxcCGHM5jySvGxO1TNzeUGsWVlMnSBwMOrlZCQEyQMkEtta4zt1Gdi8KTkxSErrz67b7riJw1VWJXO68WI5ZFWY89476nmnTXeGvE2GO/mhfZ6GuRuBPujB3G+pfbU6mpE2cptuV/6d+wsUOxFpdtmp5zsa2LJcrE2qOPO3WSEUpxhTerVLggbqepURljbZO0X+HNQWzKkTg+ussUlg3Ga6dOMkIprrDJ7Q0lw4zugLzGjjMrRV5GrClhHCmTgKNOCSkTz4MxVwiNEp8byi6mfBjYEQJivJRJNkpYzpImY8urhrk/wqGwrbrsvncmSZm002Ls2XBQ9y7va5G0I7s666SMSRAJ/3PTNJEC5sK2vcNSJrr+rGyx8Co07yaLJredOhklZTIKJ6u1J8XttImUsfbYWK3kh1VMy7jvZpt9oIm6hrXJqMJ5PbkNKaMADrcq4ShSJgFHncqWMvJ1SKEk2bXVTMWjfBjYEQLiUKRM7NNhgMR9nC4vZWwwoJjy6AazpEE3cnsCaMKuSWpOhJ38flpXnYxsdZyTczTtzFGGlMl5JHuUBFmtVq/Mg29PHsZyfvNmqcZW6qMM7He9nw5BBS7kUJxAxhzTWFWxNI9Nz0yyrk1z8TZGRWUyCsebJ89sRco4nbdhDB4pI/sqtZ0tZWQCClLmH1lRHAm+XMhRWt3+djfEjn2mI+6ZzeTYbNbGVZCnjUpKmbxh23p4D1LGMonO44xQACqbO6H8MgItSBl7V+z1xvDk0QgFsE7F9YRLfzdDnYzVTxmQRzQkw9q6CFImn1WhkkiZdQ5QTu6LiA8hZabegE5SFJcySYNmKbZ1lnH3LLFZ282mDOdsdBfGH10OUnFNTuiA/FM5UZnVUEqvFZQDbRF2Bj1EygS7v8qD8qtXaIYkI2zTtFvY6WsX7whSpn+rEJXpMwkfyZYyTDCpBOTRUkbNnh7zBJMN86zf5tjcl+7L+oTx0kYgklJG3v+uuuxLVkocjHvCxUmZXeXKmPmgzzvhFZI+jkDOtJftlEb8Pf7cvWTg+Vw8j42UkTdZ5dsurhBKhRHRkVRaqyvWqhazsK95Llv+uOexD1LKhOiNuDWQMrmwsqVMZhJMZrFc90w5EQs5lFyZ0NecMUiKlnWjmh2xJmwk81SEv923fD3sjfBBX2gs2wDDCF3STa+Ehnnhrd28cx72HbClIhtrVZEjGtLG83Nl5LI3gTmmrvnp/BILtp1Qi7wvfRSZUYUjOL3DeW3xLmJ3kEBqjilvUkZGbk4vbubhBeuc3DkgKSMaldGqRF8gZRJw1KlcKSP0RDIggZRReMWO+5azYSKYsFlk040uExSMvSRTytgIin7YZO3DO48e67cVyjcXrlcT7g/2owZ4i8yuFjj8YshOfjUj+tXcmsjduB8ps5LPMelsYqlR4vrP3Rh95qLpmcXaK0YVFpUkNpEyCTgbnRLjsf7yJTVKPMIcvVw7lVmsvWhUYV1PbC9PlsWuDh8X02qpxQPDF6ujSBmFI7GTKWXk+rnJ0AhSJgpbfstJBWWjBrZ0wqwdF08ZGb1EXtpLO4hq6dNJmdTETScI9KhsZ1Jy4yvCP6urAnGLrph6vdSjCTpGz/WEn8RWjwWVeBh77b2lreHk6Qkh4OJyZ5UQTB1C+TuvannF4DZSZhDR1AJWsuhZko1mAdMAACAASURBVDw9IYbzuNwxQdXZabfMvxZMIa9HFQ4Z6B/bgpQp+FGPlOn3WPhIlpSRIRnzgsbED1ImDkf+zeyTlol77Aaq5ORI0oA62UkWfyGT7vhGUmaKzrCxmdAcinpyJxmZUI3s7bi0FRvE2mRD65JebfJAaJjPEXDGRnftUHWj1MmowrIl8e3Oz/RkWfx6zsQJyI+sTo/IcTqlPbprtQzq1zVKnYwq3K8rdKTz07y2qWtjqFz+MRWATyHKMImUyYDUFBFS5h+RxXllwm+sjK0OKWNR9Dfc32GxpSr7lRQ+0omMIg9jd6NOTxZ0tUyRMt21kz0U4Qf7SgcZjEnEbMrB7lrhx5w2rMGpqE6M9o9EqhBYUlGZrk9bLbiIGOsOr5uZV7i7KP1bOpC6f9JW9m+13+WyTY4NZ5gMtKbUaTcqdxMl/SORujKjMlJJDA/77iN0sxQU4bN0oIiUkQY39hIpI7oquSmlzMnJl5e33tsQf5NTSycDIZn8RYGTPnknRUwoObflLhM+F13tVy55fBJ+rbdzIrQlv9B0Hw2hcnt0rBtiJwsF1xY3iOrZJRH7SQ1F68t9GdSNuP5xV2/G1t1z+7yPFy8ZuRpeRl3hIh3nwlLGBVfWgmzEwC9kR6xffrpSr5Mcdl7YHC4cJuUfHdEi/1K7LyNVexHdmc/sa5/NB8U9yhkxMBulIXaHYhhCdsQkgmhm8y7rwTcRCJvDusd2b3JjRIuSdtYnndQrEuZByuRAN2W0lDEvXzw/f3rdvMrxWrzHsV18JawkFvIN0i/PT/5vvVJLZ6f3BmlPLTlXF96LJNs3Sgo3zq/1myZNgYC1rUkZFaAyyu+6937sga+l7k+xyI3u2G1rqxtiN5cy3ZATmrBwI5ynJPq7vmSxZmPDbS6ZgJrx68o1Jcs5Addvy+QjXYhFVhTbdg6884lLygn1gm/Bptq0QRT9BJOafWsbErZ590qkcrs3aRuNqB7qtine3YtOfXdWqztbRmx07ydfO9mzOfAXaWpxiLqGTJms7Ps79YgaDu/7g8I5c3rq1uodmjYyTbepNq1M0YIssG5e2GYXnWpiVPLJ7Zl+qNs+4B3Xfes4ly25NmmXtzGPWfV+4uYC3au/rBZQW0iZAOXgob6Uca+NPGleK9393wvYdPbkSxm7wjEj5nj8FU5Cgqiqx1oTdspGZQLKz/MtMknXsVqt5L2+Z48yOSfFVikp40YL/exSW9V0KWO/T4fMinbEN816/N3rjYLa4sGTx/O7+Pgat9yccQ0PGp92cIyUUYEZW10Wri7iZa8yoZ1uuRp5UG77vnVaU5ZJbCfko+3rxOXeqbC68rvM7yO/CX75be+rLzytDhg1oBb2T8Qt3KgfC7TIusUck70w8eKC9dozXrQnVLu11t9ITOl4n739a/tHwupKtlFu6/Z67ZAF87eRMrmspJQ5P+8CKp4iOX96nfhqc0xSZrXyAjO+5BqUMo2YcW8hGfenkturBcsVkjLdeBYZWrpaUg9j2y/iUlW4QSiVz9HnYUIFYQXz4Mnzxd3zz5+s390oh8YHTx5//tOrxJ9Cv57sI47AFuw7Sm1zIr0QclZPIUka1tTHPz3++BP3OkxfB3Rd3782eOQ+pMzKE0lZOi9Eq9AxFwhpB9cig+IGvvX8SegFrxo9hRTUCrP5jX2Iyeg2r7W1SJmlEqB+Kzws2btImVxUQsqYAMbi9uXl+Zc20tBMNv028Nl6XFJmtVr9dnv5pZtH07IvQ8qo5w+bP92LnG84uT06XC799LX3YHbuw9j6ce7HejLCDRW9LJnW3W4gT08S3T3++JF2r4sQZIzNrxZ3z827CyIBGLOOrS9TzByKzAWxQ6+ZqXli5kcWd1FlY06N+NcReGQiQGMulMIu3vdaT0R6IXJ5RNiZCI2JVzVXma5Zq5kapUyzouA678do2QiJnR2W8YO9+Laj9cS4iRPzGsmLvogxjz7MunXzljez7jWTvgjQVQftyIMJlSWpyksS27nwvXhMwomR9xBSJheYJ2VyL6PchgT0rd880KSnkje0n7p8PWragbn4RlhY3D1+kMj0bMfvlNuBnAbrefxrdCClw17VZFc8/PjF80XyNddtkCaoaaypB4+ulHoLTc3YwmU3xoWjBggnTr9ayDSU4Ixbl8ty71Ig0YwqTsksk3G6YX+bp3Je5svQjFmXyxI6t8cN60WeCn41RcrkdjxSJpdU8XI9NXN6sZtHFe5JypQA6E0EGC1iAiTJr9E9VdFcMmmq6K55J2UoruPriV6lZeWLtOZXXYIzNu6TgPhkKPf1/j4bdLB1hwJOZT/EkTK5Nw9SJpfUNsqZLH6XN2Mmmwrq+W04XKfN+QszH/Txi+dm7qZUE+5MlMIslPzo4YMnj4uZLeUedqolIOdB+DzY526UPbWlVAGkTO4NgJTJJbWtcmaWuJ2szZ2X3ZYn2IUABO6dgInJrD8QEDL33hsDDrhU3y3F1JEyAz1gTyNlLIp73GiiM3662z36Q9UQgMD9EOhml/g4uB/+I2ttusulL4+8erg4UmaYUVsCKZNLauvlgolwW6+VCiAAgf0hYOcsDiXbd3/QbsmT7X5uI2Vyuw0pk0uKchCAAAS2S2A9YUG273Yx12MdKZPbV0iZXFKUgwAEILBVAs0aKuTMbZVxXcaRMnX1F95CAAIQgAAEIKAIIGUUDnYgAAEIQAACEKiLAFKmrv7CWwhAAAIQgAAEFAGkjMLBDgQgAAEIQAACdRFAytTVX3gLAQhAAAIQgIAigJRRONiBAAQgAAEIQKAuAkiZuvoLbyEAAQhAAAIQUASQMgoHOxCAAAQgAAEI1EUAKVNXf+EtBCAAAQhAAAKKAFJG4WAHAhCAAAQgAIG6CCBl6uovvIUABCAAAQhAQBFAyigc7EAAAhCAAAQgUBcBpExd/YW3EIAABCAAAQgoAkgZhYMdCEAAAhCAAATqIoCUqau/8BYCEIAABCAAAUUAKaNwsAMBCEAAAhCAQF0EkDJ19RfeQgACEIAABCCgCCBlFA52IAABCEAAAhCoiwBSpq7+wlsIQAACEIAABBQBpIzCwQ4EIAABCEAAAnURQMrU1V94CwEIQAACEICAIoCUUTjYgQAEIAABCECgLgJImbr6C28hAAEIQAACEFAEkDIKBzsQgAAEIAABCNRFAClTV3/hLQQgAAEIQAACigBSRuFgBwIQgAAEIACBugggZerqL7yFAAQgAAEIQEARQMooHOxAAAIQgAAEIFAXAaRMXf2FtxCAAAQgAAEIKAJIGYWDHQhAAAIQgAAE6iKAlKmrv/AWAhCAAAQgAAFFACmjcLADAQhAAAIQgEBdBJAydfUX3kIAAhCAAAQgoAggZRQOdiAAAQhAAAIQqIsAUqau/sJbCEAAAhCAAAQUAaSMwsEOBCAAAQhAAAJ1EUDK1NVfeAsBCEAAAhCAgCKAlFE42IEABCAAAQhAoC4CSJm6+gtvIQABCEAAAhBQBJAyCgc7EIAABCAAAQjURQApU1d/4S0EIAABCEAAAooAUkbhYAcCEIAABCAAgboIIGXq6i+8hQAEIAABCEBAEUDKKBzsQAACEIAABCBQFwGkTF39hbcQgAAEIAABCCgCSBmFgx0IQAACEIAABOoigJSpq7/wFgIQgAAEIAABRQApo3CwAwEIQAACEIBAXQSQMnX1F95CAAIQgAAEIKAIIGUUDnYgAAEIQAACEKiLAFKmrv7CWwhAAAIQgAAEFAGkjMLBDgQgAAEIQAACdRFAytTVX3gLAQhAAAIQgIAigJRRONiBAAQgAAEIQKAuAkiZuvoLbyEAAQhAAAIQUASQMgoHOxCAAAQgAAEI1EUAKVNXf+EtBCAAAQhAAAKKAFJG4WAHAhCAAAQgAIG6CCBl6uovvIUABCAAAQhAQBFAyigc7EAAAhCAAAQgUBcBpExd/YW3EIAABCAAAQgoAkgZhYMdCEAAAhCAAATqIoCUqau/8BYCEIAABCAAAUUAKaNwsAMBCEAAAhCAQF0EkDJ19RfeQgACEIAABCCgCCBlFA52IAABCEAAAhCoiwBSpq7+wlsIQAACEIAABBQBpIzCwQ4EIAABCEAAAnURQMrU1V94CwEIQAACEICAIoCUUTjYgQAEIAABCECgLgJImbr6C28hAAEIQAACEFAEkDIKBzsQgAAEIAABCNRFAClTV3/hLQQgAAEIQAACigBSRuFgBwIQgAAEIACBugggZerqL7yFAAQgAAEIQEARQMooHOxAAAIQgAAEIFAXAaRMXf2FtxCAAAQgAAEIKAJIGYWDHQhAAAIQgAAE6iKAlKmrv/AWAhCAAAQgAAFFACmjcLADAQhAAAIQgEBdBJAydfUX3kIAAhCAAAQgoAggZRQOdiAAAQhAAAIQqIsAUqau/sJbCEAAAhCAAAQUAaSMwsEOBCAAAQhAAAJ1EUDK1NVfeAsBCEAAAhCAgCKAlFE42IEABCAAAQhAoC4CSJm6+gtvIQABCEAAAhBQBJAyCgc7EIAABCAAAQjURQApU1d/4S0EIAABCEAAAooAUkbhYAcCEIAABCAAgboIIGXq6i+8hQAEIAABCEBAEUDKKBzsQAACEIAABCBQFwGkTF39hbcQgAAEIAABCCgCSBmFgx0IQAACEIAABOoigJSpq7/wFgIQgAAEIAABRQApo3CwAwEIQAACEIBAXQSQMnX1F95CAAIQgAAEIKAIIGUUDnYgAAEIQAACEKiLAFKmrv7CWwhAAAIQgAAEFAGkjMLBDgQgAAEIQAACdRFAytTVX3gLAQhAAAIQgIAigJRRONiBAAQgAAEIQKAuAkiZuvoLbyEAAQhAAAIQUASQMgoHOxCAAAQgAAEI1EUAKVNXf+EtBCAAAQhAAAKKAFJG4WAHAhCAAAQgAIG6CCBl6uovvIUABCAAAQhAQBFAyigc7EAAAhCAAAQgUBcBpExd/YW3EIAABCAAAQgoAkgZhYMdCEAAAhCAAATqIoCUqau/8BYCEIAABCAAAUUAKaNwsAMBCEAAAhCAQF0EkDJ19RfeQgACEIAABCCgCCBlFA52IAABCEAAAhCoiwBSpq7+wlsIQAACEIAABBQBpIzCwQ4EIAABCEAAAnURQMrU1V94CwEIQAACEICAIoCUUTjYgQAEIAABCECgLgJImbr6C28hAAEIQAACEFAEkDIKBzsQgAAEIAABCNRFAClTV3/hLQQgAAEIQAACigBSRuFgBwIQgAAEIACBugggZerqL7yFAAQgAAEIQEARQMooHOxAAAIQgAAEIFAXAaRMXf2FtxCAAAQgAAEIKAJIGYWDHQhAAAIQgAAE6iKAlKmrv/AWAhCAAAQgAAFFACmjcLADAQhAAAIQgEBdBJAydfUX3kIAAhCAAAQgoAggZRQOdiAAAQhAAAIQqIsAUqau/sJbCEAAAhCAAAQUAaSMwsEOBCAAAQhAAAJ1EUDK1NVfeAsBCEAAAhCAgCKAlFE42IEABCAAAQhAoC4CSJm6+gtvIQABCEAAAhBQBJAyCgc7EIAABCAAAQjURQApU1d/4S0EIAABCEAAAooAUkbhYAcCEIAABCAAgboIIGXq6q96vP3lz+ff/eH+/fLnRNdL2ZlYPZdBAAIQgMC+EzhSKTOfnZ41P6ez+b530X349/z6t/f++u/3/vrvd6//GFn/n8+f/ufhB+vLWyP2/4fX/33+S6a9UnYyq6MYBCAAAQjUSuAYpcx8dtHqmLOzM6RM/859fv27FR8jpcwfV1dhEeMMfvD742E1U8pOv3EcgQAEIACBQyNwbFJmKXUMUqZ3O/8pdczIqExYf/QjNO8OqJlSdnqN4wAEIAABCBwigSOSMsv5zexiPa9EVKZ/M7/67r/9mEp+VMbOSRkB9MHvV9+p5BjP+LtX/33V96A5UspOxDyHIQABCEDg0AgchZRZmliMm1SyOoaoTHs7v/rlj6srN6lkJ4NGRGV++a+Nvrz7wX+eh/9M/rgSOTQPnyqts76ilJ2wAxyFAAQgAIEDJHDgUmZpAjF+JAYpY2/kV/EU3VbQZEZlZCjl6jtrXm989x8lkkKBmVJ2dMXsQQACEIDAIRPYtpRZLpdz/bNcFuIpDMdtLm88KXN6eiEjNMee9iuiIGvt8sHvMkKTJ2VcuCU+c+TK2Ip6+b+uzGZ2Ct1hmIEABCAAgRoIGCljn0w+OzsbfjZZiIPTi5uwLmnSUjwNoWIhFxezefjSFtryJjAf1PnWJr34sZaIReOurfpidmOqnc/skWOXMqs/H4tnjtYPS4vwSZaUEXooPG20Wr16up7AeihmsvzCpezU8IeHjxCAAAQgUIpAE5UZM7RLkRFUMt4jQlY09DeCl7cNk7XYC015k/XipIk91W6EpdV8ZiIxN3MXuhnT3lKg99fOd/8xWbpP/3hln5EeK2VE+fDsUqdRTBpNtx1IxCllZ39Z4xkEIAABCJQn0EiZnEBLV3VGCMdoB09kXET0Rxdo6azL3+3clEh2Ob24SER6TA5vJDIjrZptpIxPRO8LSZETlbERl9hT1jYDpgnDRGeRStnRjWEPAhCAAAQOnECbK+NmYU7DkQ1LwcmU08TcjHlgaHYjAyGdgeVcJa8kbHRXuBqtPNKSZb1UzIDjnTnz+96kTC9xSKcRxfZcPEm2YnvbI6WMVSphKdNZ69Jf3JRWd2TdklJ2tgcGyxCAAAQgsIcEWimTnS4zJn4Tba1UEolJpvX1vpQJRl6W82TqjeeKdCAVF/Iu23zXb4sVZ+mNnfq4Wq068RGYAwowENIk8Bi2O9vNPbkj+rHt2PG2Snd2yE7ARQ5BAAIQgMABE1hLmcxAhUxhGRYhUWxuRM8IpbjCZ2dnG1QqvEHKCBiBzXJSxs0ZuXc5OVGSL2XG2Ak0iEMQgAAEIHDABDopY+Iy6wSX+MxR/jxUmpioa1ibjCqcrrc7i5TpSIR/F5My67QYPfE0QcqMshNuE0chAAEIQOBQCVgpkzPHNFZVLM1j0zOTrBubQBkVlckonNdN9yZl8ty791KFpIzNfdEPXY+WMiPt3Ds+HIAABCAAgZ0ScFJmePJohALw39qIlNlpr25YWREp0z10rWeRViuxko0+FZE4o+1s2HguhwAEIACBygg4KbMaSunNeAy7abywE1Mw9nhGoGVsKCijA0Zosgxrh1ekhJSxoZQuS9diikiWiMQZb8dWxAYEIAABCBwFASFlGi3TiozQI9lCUqQeoXbF1qYuLmbmuWz5457HRsrs4102TsqsrNpwUZbOgve4ddNYIWX0a5hK2dlHpPgEAQhAAAJbIyCljNEyNl7i5+PmRTJk5Ob0onlLQMB1J3eOTMoc5roy7vGiD35vXqu0Fis629feB/lL5E20Y2tiAwIQgAAEjoGAkjLN65i655i0lpEaJb7MSaZGySzW8h9VOK/L8mRZnq1RpVxbrGTM2YgDH1V7duEuppK3roxah+bqO/e6pfBKwV3uS8C4qHcjO9kNpSAEIAABCBwAAU/KuOeY9ByTG4NTcRSRJZMcffOsremOKpzXI0iZNCchKcJyxLtcqJOH1/+5+uA3I1MCy+U1lwnjfhpNKTuee+xCAAIQgMBBE/ClTHCtvNTEk6TTSQQtg2SJdnuUOhlVuF9X6Ejnp3ltU1JzhS7e5JhrS04wxpbZqY+jV/tdrVZuzui9v/67/acfwHbQREJMOxvlTpWzI22yDQEIQAACB06gJ2VU8m87hsqV8ZKjamZURioJPY0Vgu2G/1RAKHRl9Jh0INmgqIXDPiECJ1lRmZXL/G11TCjbt0XmRE+wjBU6G9o57P6hdRCAAAQgIAn0pYx626JRGiMGfiE7YhJhPpNvt85QJ8LmsO6RTYtvj2hR3MgBnxkvZVZibui9v/7bnznqWEmlEg7blLLT1chvCEAAAhA4eAIhKaMCM26t3qFpI8NKZgf3nmAKrJsXtqke9JFPbs/0Q932Ae9ltJ+WtozYEA9qGSd7P3Fz0XpqPfHLH8+/6/17+rudJ3r36r/9Aq9CrZUy5d0Pfr/67k9V7Jc/rq5MDs1QuEUFeDaxE/KRYxCAAAQgcIAEglJGBWZsxkZWWomYY7IXJl5c0Jbx3/okoibWSGIjEdqRWT4JC/JUWF0dYNebJtnnqK3IGNyIPGLdZMwIsWLtPGyygO1ukxHcz5KRfJXosReOtyNtsg0BCEAAAgdLICJlRGCmHeZHDPB6CkmqBGtqNr+xb680ubeeSkLK7Op+KyplomrGypEMHdO2PKxmxtvZFUfqgQAEIACB+yMQkzJ+YGZcmop5jaRbbU+qmYtZt27e8mbWvWYSKXNfN0BpKWNesfT86X/6EZRWhTy8/u/zXzLbWspOZnUUgwAEIACBWgnEpUyBFqmcl/kylILS5bKEzhXwABP3RuCXP1WSzS9/TvSklJ2J1XMZBCAAAQjsO4GtSpl9bzz+QQACEIAABCBQOwGkTO09iP8QgAAEIACBoyaAlDnq7qfxEIAABCAAgdoJIGVq70H8hwAEIAABCBw1AaTMUXc/jYcABCAAAQjUTgApU3sP4j8EIAABCEDgqAkgZY66+2k8BCAAAQhAoHYCSJnaexD/IQABCEAAAkdNAClz1N1P4yEAAQhAAAK1E0DK1N6D+A8BCEAAAhA4agJImaPufhoPAQhAAAIQqJ0AUqb2HsR/CEAAAhCAwFETQMocdffTeAhAAAIQgEDtBJAytfcg/kMAAhCAAASOmgBS5qi7n8ZDAAIQgAAEaieAlKm9B/EfAhCAAAQgcNQEkDJH3f00HgIQgAAEIFA7AaRM7T2I/xCAAAQgAIGjJoCUOerup/EQgAAEIACB2gkgZWrvQfyHAAQgAAEIHDUBpMxRdz+NhwAEIAABCNROAClTew/iPwQgAAEIQOCoCSBljrr7aTwEIAABCECgdgJImdp7EP8hAAEIQAACR00AKXPU3U/jIQABCEAAArUTQMrU3oP4DwEIQAACEDhqAkiZo+5+Gg8BCEAAAhConQBSpvYexH8IQAACEIDAURPIlDLL5Vz+LJfLo6ZWuvEdXaiWJpuyZ6inzvvnTHl6yKfCPgQgAIF7JzAoZZY3s4uz0M/p6cXFbI6m2bQLlzcXp6cW8MUNg+WmRDOuX86bu/p0DO75zHTTxewGPZNBmCIQgAAEdkcgLWXmMzHK2uHW27i4GfXddndtq6EmI2Qkz9PTGTS323FaO+biFlednhoNv10nsQ4BCEAAAtkEUlKm/RoqB1rzrVSLm9NRX2yz3dr3gsv5zaz72SiO4ovFI+W5q/5ezmfe/Zx5//b/FsYEdHbVPOqBAAQgcJQEElJGjbLe99ClGcvNxNORBhHkd/Tc7/XB+4uoTBDLVg4ub/ypUu+uTtba3PFax19s1PXJ2jgJAQhAAALZBOJSRo7WsW+gR5v+K+FsOJ4JUybotVGMJ7vbj6+gF4+ZGP0yOTZqQhA1c3y3Ei2GAAT2jkCWlGF89ftN6I8ScSmeYPIBF94X/WVCiRsJEGNLzlLx11G4szAHAQhAYCQBpMxIYG1xMTSWkDKTfOCiXAJqqrREYrVSMxMDPLnOUw4CEIAABAYIVChl1Bo3Ex4kWSoD0x4n30Mpo1s1rVnqZlEGJ3BWxqbueJ1lVnYZ64rM2C0nO7Q8IjIztYO5DgIQgMDmBMpKGff5nn4wxCZgxoYWO/wIO4G8SzNZkP1kbHu9nBqw280KOXGYQrjYSwY3dhWtCWNp3RtMa90G5zjH7DNNm7xn5STwdkmjLHO670pKDm15w4yprLZQCAIQgAAEQgT2XsoYRbBe0EwOZt720EAybCElifSg5VUd201IGavk+tcONUT3YS8LtW8wJhZbQ07KlOGs3Zu01y5e129I/0iOLrENbFJkCudUb9X4JHhcBAEIQOAYCRgpkxhZ++OHPRLKOSgflbHVpTdCztjuNEqkf/npqf9o7tnZWVhJ7KmUcbRl6/rBjISakYOxNBLbTnK2wDfcCLTrItSD0f5y9StT4c51hcdviRsjAXm8Xa6AAAQgAIERBGqSMt6LEpqQhNMosYHKE2q9hedVwCYyVHdPGNn3UN3MrGI4vbixh9VGPKnDc0nqhlgr+l0qVUg/pOTNpol5OmVJGrFuTOOs7G64M59dXMxubgJ5Mcu5es9DIvRlXBAL4sUIbOypuwNzokQbVsflEIAABCDQJ1CHlDm9mAXnBqQmCA8k4ntz8yU+kjPajXnmu3XOiwOE2YHRtI/cxMGU5jGrDXZrr+VKmc7hJlsotoy+8dIJlBBBT8pM5xxs5pYOyraHe31dsWxdsuAGjmY7s0EdXAoBCEAAAikCTa6MN7K246wYX00kI/DTDzu4eH76S7CVILGwvBqEYiO197U7pAKUndBYbtksb8a8J3BDKWNrbTeEtVAjvNJmV7YrdYmwHOwRaSeVIywH7FR9AVe3cCjzNlNKblteS8JTVO0W8GASAhCAwJERaKRMsM3iMzr7G23mGOOycwalTKzA2mXhZGgcEf6ETgfbnXVwoN4sG66QsJY34op2DfWNFStBkumzQQ/LgnRVjNjKbL4oFtRxI2pMFN1NLQkHOAUBCEDg2AkctJQREqHwAFzWsrCWJWVE+SElo/JF+sb3W8o0b/qaXcRyfoceSpIio9/0Un/5pjPsLN72qinlLnYgAAEIHB6Bg5YyYlpkeMgf1bdCTBQQScJa1lgo2jVcXhjvQ9hXKaNysa1Q6G+koi2i4ZFs7lFdHitsqrGODXdHzAzHIQABCEBgKoFjkTKFxxg5TG5uWljLMWYzjTKeRm4ete9yivuqax+ljKBhJUJsAykz9Q+f6yAAAQgcDoFDljLjhvxRfSqG274+GGXJFBbWRkmZYPpLr3Yxz9Kzvn9SxnnbyhezsK95Llv+uOexU1LG5Eav4yW7icrkdUevfzgAAQhAAAKbEThkKSOXFekN4pthE+LjHqXM4UVlB/w1swAABMNJREFUrLRq82Dm4WfnhUbpz5m5jhXFkpLHXTFlaze1TPGMayAAAQgcCYFjkTKpIW9CV9+rlBkn0YSrfQhWOgxEFISRAtItClzIgr6v7qrMYsZpOzNVWMtaZySZbaKxFbIBAQhAAAIega1JmeTHup36iY2gZYZYOcyUHcrKWhbWstwU5VMjftvVyRzhMpy9e2ryrmhXkkOmlHHP/JsYT9LiJi5btbSlKib7xoUQgAAEjoTAQUuZ7WVLiEG3wAAmrOUNuLljuVxML6ga90vKdKor6Kr4g8xufmdwvSayMFFo0/SclTLDsrJQrZiBAAQgAAFJoKyUUZ/s8VHZPWobG7RKDbHWTuHv5UJ83IeUKb/ab6wj1vdK2fbKG1Bui1riN49aKWcoB8aJnrOzs/JSQ0ml8uYlG7YhAAEIQCBGoKyUUUNseIxvXgJpv8jGEletBNl0iBWj49Bg1niWOx65MdI8HRPOTo0x7x0XTqaGcHmdGkRjDhi7FnWwZcU4S9+mbwuqMRBz976qNjU4zd5OZW4hMKPwhu/26Si4EgIQgAAEcgkUljIyI9V/fWPzsmY7stqNoBIoOMTKwcyoGfOqIT38LY2IsS90DA75PZx6GDOvYdTPC8/nQX2zHHzdVc9M2JB+DdPmb8beVDL2AE07YPu9lSmaoQvmuZtnKCzTcHJ6rqDgkPfVAL1pLLgKAhCAAATyCJSWMiI9xY43/Y2Lmfpu3Y+X2CFtYJAQ8Yz4KKVkh3TGyhd5MDPKIkcyebndDkoi2y5bbHAjPli7GEbaSIKh9SdRxtxIWZzz7rh0KVGRbVTixQVtmfSyMV5PxcI9ab/8s9rP+L3nX8c+BCAAAQgUJ1BcyqhUBjsa2Q0bP/AGGG/gLz3EBr7QW5fkxunFjY4EJIBHFVJr0GtRa8i2S1aa3o5LmdWqmRMbuDx1vZsQ3Bcp0yQqByWmbWZzC93Y5e8yZo5UTw20NNHh9tRSici0kLIXsQEBCEAAAlsisAUpsx5hXVS/HYTMCKR1wnx2Yccnb+C3Q/7AwCO+HA9/M27mkWyN3kZg4mkYeWOxW1LWN3ijp7Eaa7ZdXuHEblKKmIDJ/MYPcVlrZjIt2Qrrz0acw9Nmcn3eyHbMuchcpIne2XtoaZrdtjRDTHji42J6bEbcco2K8u7cJG5OQgACEIDAFghsRcq0fsoBzstOEQ3pSsVLiMJlNrsqu/F1h1WXaUDQiteqXTZK5CBbFZWzMaQCdJOCLepyj2KiyKHSEqSZ0xzQee7abquJgimNPl0SdTb5DQEIQAACGxLIkjJ8Xm9I+cAv35aUKY2tp2ZOB8NW1oVQoGgo5mUvZgMCEIAABLZIIC5lxPiElNliDxyAaXGr5ARjbJmhqMwW0PSyi4bnJRsvvNSuJl9nC+5hEgIQgAAExhOISRnzBbYdcgayKMZXyRUQuFcCJstm/L3tsm1GxHLutZ1UDgEIQOBICDRSRuckzG9cQmXG4yFHAopmHhSBNuslMyTTtryZnnJpxweFg8ZAAAIQqJlAI2WSEwSjPu5rRoHvx0YgmEicgDC2fMIUpyAAAQhAoBiBASnD7FIx0hiCAAQgAAEIQGALBFJSpllqZQt1YhICEIAABCAAAQgUIvD/Tgwxt7DdbtkAAAAASUVORK5CYII=;sketch=1;curveFitting=1;jiggle=2;" parent="1" vertex="1">
                    <mxGeometry x="259.9976127485795" y="2143.996134588068" width="750" height="337" as="geometry"/>
                </mxCell>
                <mxCell id="42" value="" style="rounded=1;whiteSpace=wrap;html=1;fontSize=40;fillColor=none;strokeColor=default;sketch=1;curveFitting=1;jiggle=2;" parent="1" vertex="1">
                    <mxGeometry x="255" y="2370" width="256" height="58" as="geometry"/>
                </mxCell>
                <mxCell id="43" value="" style="rounded=1;whiteSpace=wrap;html=1;strokeColor=default;fontSize=40;fillColor=none;sketch=1;curveFitting=1;jiggle=2;" parent="1" vertex="1">
                    <mxGeometry x="348" y="2197" width="656" height="60" as="geometry"/>
                </mxCell>
                <mxCell id="45" value="" style="edgeStyle=orthogonalEdgeStyle;html=1;fontSize=40;sketch=1;curveFitting=1;jiggle=2;" parent="1" source="44" target="42" edge="1">
                    <mxGeometry relative="1" as="geometry"/>
                </mxCell>
                <mxCell id="44" value="定义一个全局变量" style="text;html=1;strokeColor=none;fillColor=none;align=center;verticalAlign=middle;whiteSpace=wrap;rounded=0;fontSize=40;sketch=1;curveFitting=1;jiggle=2;" parent="1" vertex="1">
                    <mxGeometry x="590" y="2384" width="354" height="30" as="geometry"/>
                </mxCell>
                <mxCell id="47" value="" style="edgeStyle=orthogonalEdgeStyle;html=1;fontSize=40;sketch=1;curveFitting=1;jiggle=2;" parent="1" source="46" target="43" edge="1">
                    <mxGeometry relative="1" as="geometry"/>
                </mxCell>
                <mxCell id="46" value="在函数内访问全局变量" style="text;html=1;strokeColor=none;fillColor=none;align=center;verticalAlign=middle;whiteSpace=wrap;rounded=0;fontSize=40;sketch=1;curveFitting=1;jiggle=2;" parent="1" vertex="1">
                    <mxGeometry x="1054" y="2212" width="441" height="30" as="geometry"/>
                </mxCell>
                <mxCell id="49" value="" style="rounded=1;whiteSpace=wrap;html=1;sketch=1;curveFitting=1;jiggle=2;" parent="1" vertex="1">
                    <mxGeometry x="1960" y="232" width="271" height="358" as="geometry"/>
                </mxCell>
                <mxCell id="51" value="" style="rounded=1;whiteSpace=wrap;html=1;sketch=1;curveFitting=1;jiggle=2;" parent="1" vertex="1">
                    <mxGeometry x="2671" y="232" width="271" height="358" as="geometry"/>
                </mxCell>
                <mxCell id="52" value="全局作用域" style="text;html=1;strokeColor=none;fillColor=none;align=center;verticalAlign=middle;whiteSpace=wrap;rounded=0;fontSize=40;sketch=1;curveFitting=1;jiggle=2;" parent="1" vertex="1">
                    <mxGeometry x="2343" y="596" width="237" height="66" as="geometry"/>
                </mxCell>
                <mxCell id="53" value="局部作用域" style="text;html=1;strokeColor=none;fillColor=none;align=center;verticalAlign=middle;whiteSpace=wrap;rounded=0;fontSize=40;sketch=1;curveFitting=1;jiggle=2;" parent="1" vertex="1">
                    <mxGeometry x="1977" y="253" width="237" height="66" as="geometry"/>
                </mxCell>
                <mxCell id="54" value="局部作用域" style="text;html=1;strokeColor=none;fillColor=none;align=center;verticalAlign=middle;whiteSpace=wrap;rounded=0;fontSize=40;sketch=1;curveFitting=1;jiggle=2;" parent="1" vertex="1">
                    <mxGeometry x="2688" y="253" width="237" height="66" as="geometry"/>
                </mxCell>
                <mxCell id="55" value="var0" style="text;html=1;strokeColor=none;fillColor=none;align=center;verticalAlign=middle;whiteSpace=wrap;rounded=0;fontSize=40;sketch=1;curveFitting=1;jiggle=2;" parent="1" vertex="1">
                    <mxGeometry x="2402" y="264.5" width="106" height="43" as="geometry"/>
                </mxCell>
                <mxCell id="56" value="var1" style="text;html=1;strokeColor=none;fillColor=none;align=center;verticalAlign=middle;whiteSpace=wrap;rounded=0;fontSize=40;sketch=1;curveFitting=1;jiggle=2;" parent="1" vertex="1">
                    <mxGeometry x="2753.5" y="395.5" width="106" height="43" as="geometry"/>
                </mxCell>
                <mxCell id="57" value="var1" style="text;html=1;strokeColor=none;fillColor=none;align=center;verticalAlign=middle;whiteSpace=wrap;rounded=0;fontSize=40;sketch=1;curveFitting=1;jiggle=2;" parent="1" vertex="1">
                    <mxGeometry x="2042.5" y="395.5" width="106" height="43" as="geometry"/>
                </mxCell>
                <mxCell id="58" value="" style="endArrow=classic;html=1;fontSize=40;entryX=0.5;entryY=1;entryDx=0;entryDy=0;exitX=0.5;exitY=0;exitDx=0;exitDy=0;strokeWidth=2;sketch=1;curveFitting=1;jiggle=2;" parent="1" source="52" target="56" edge="1">
                    <mxGeometry width="50" height="50" relative="1" as="geometry">
                        <mxPoint x="2508" y="729" as="sourcePoint"/>
                        <mxPoint x="2570" y="341" as="targetPoint"/>
                    </mxGeometry>
                </mxCell>
                <mxCell id="66" value="无法访问" style="edgeLabel;html=1;align=center;verticalAlign=middle;resizable=0;points=[];fontSize=25;sketch=1;curveFitting=1;jiggle=2;" parent="58" vertex="1" connectable="0">
                    <mxGeometry x="-0.2574" y="1" relative="1" as="geometry">
                        <mxPoint x="-10" y="-1" as="offset"/>
                    </mxGeometry>
                </mxCell>
                <mxCell id="59" value="" style="endArrow=classic;html=1;fontSize=40;entryX=0.5;entryY=1;entryDx=0;entryDy=0;exitX=0.5;exitY=0;exitDx=0;exitDy=0;strokeWidth=2;sketch=1;curveFitting=1;jiggle=2;" parent="1" source="52" target="57" edge="1">
                    <mxGeometry width="50" height="50" relative="1" as="geometry">
                        <mxPoint x="2471.5000000000005" y="606" as="sourcePoint"/>
                        <mxPoint x="2763.5" y="336.5" as="targetPoint"/>
                    </mxGeometry>
                </mxCell>
                <mxCell id="65" value="无法访问" style="edgeLabel;html=1;align=center;verticalAlign=middle;resizable=0;points=[];fontSize=25;sketch=1;curveFitting=1;jiggle=2;" parent="59" vertex="1" connectable="0">
                    <mxGeometry x="-0.1573" y="1" relative="1" as="geometry">
                        <mxPoint x="19" y="5" as="offset"/>
                    </mxGeometry>
                </mxCell>
                <mxCell id="60" value="" style="endArrow=classic;html=1;fontSize=40;entryX=0;entryY=0.5;entryDx=0;entryDy=0;exitX=1;exitY=0.5;exitDx=0;exitDy=0;strokeWidth=2;sketch=1;curveFitting=1;jiggle=2;" parent="1" source="53" target="55" edge="1">
                    <mxGeometry width="50" height="50" relative="1" as="geometry">
                        <mxPoint x="2426.0000000000005" y="186" as="sourcePoint"/>
                        <mxPoint x="2113" y="7" as="targetPoint"/>
                    </mxGeometry>
                </mxCell>
                <mxCell id="67" value="可以访问" style="edgeLabel;html=1;align=center;verticalAlign=middle;resizable=0;points=[];fontSize=25;sketch=1;curveFitting=1;jiggle=2;" parent="60" vertex="1" connectable="0">
                    <mxGeometry x="-0.5001" y="1" relative="1" as="geometry">
                        <mxPoint x="47" y="1" as="offset"/>
                    </mxGeometry>
                </mxCell>
                <mxCell id="61" value="" style="endArrow=classic;html=1;fontSize=40;entryX=1;entryY=0.5;entryDx=0;entryDy=0;exitX=0;exitY=0.5;exitDx=0;exitDy=0;strokeWidth=2;sketch=1;curveFitting=1;jiggle=2;" parent="1" source="54" target="55" edge="1">
                    <mxGeometry width="50" height="50" relative="1" as="geometry">
                        <mxPoint x="2677.000000000001" y="128.00000000000023" as="sourcePoint"/>
                        <mxPoint x="2364.0000000000005" y="-51" as="targetPoint"/>
                    </mxGeometry>
                </mxCell>
                <mxCell id="63" value="" style="endArrow=none;html=1;strokeWidth=2;fontSize=40;exitX=1;exitY=0.5;exitDx=0;exitDy=0;entryX=0;entryY=0.5;entryDx=0;entryDy=0;sketch=1;curveFitting=1;jiggle=2;" parent="1" source="57" target="56" edge="1">
                    <mxGeometry width="50" height="50" relative="1" as="geometry">
                        <mxPoint x="2449" y="468" as="sourcePoint"/>
                        <mxPoint x="2499" y="418" as="targetPoint"/>
                    </mxGeometry>
                </mxCell>
                <mxCell id="64" value="互相独立" style="edgeLabel;html=1;align=center;verticalAlign=middle;resizable=0;points=[];fontSize=25;sketch=1;curveFitting=1;jiggle=2;" parent="63" vertex="1" connectable="0">
                    <mxGeometry x="-0.0566" y="-4" relative="1" as="geometry">
                        <mxPoint x="27" y="-4" as="offset"/>
                    </mxGeometry>
                </mxCell>
                <mxCell id="68" value="可以访问" style="edgeLabel;html=1;align=center;verticalAlign=middle;resizable=0;points=[];fontSize=25;sketch=1;curveFitting=1;jiggle=2;" parent="1" vertex="1" connectable="0">
                    <mxGeometry x="2599.002684452159" y="286.0027933233663" as="geometry"/>
                </mxCell>
                <mxCell id="73" style="edgeStyle=none;html=1;entryX=0.5;entryY=0;entryDx=0;entryDy=0;strokeWidth=2;fontSize=25;exitX=0.5;exitY=1;exitDx=0;exitDy=0;sketch=1;curveFitting=1;jiggle=2;" parent="1" source="53" target="57" edge="1">
                    <mxGeometry relative="1" as="geometry"/>
                </mxCell>
                <mxCell id="76" value="局部优先" style="edgeLabel;html=1;align=center;verticalAlign=middle;resizable=0;points=[];fontSize=25;sketch=1;curveFitting=1;jiggle=2;" parent="73" vertex="1" connectable="0">
                    <mxGeometry x="-0.1561" y="1" relative="1" as="geometry">
                        <mxPoint x="-1" y="5" as="offset"/>
                    </mxGeometry>
                </mxCell>
                <mxCell id="74" style="edgeStyle=none;html=1;entryX=0.5;entryY=0;entryDx=0;entryDy=0;strokeWidth=2;fontSize=25;exitX=0.5;exitY=1;exitDx=0;exitDy=0;sketch=1;curveFitting=1;jiggle=2;" parent="1" source="54" target="56" edge="1">
                    <mxGeometry relative="1" as="geometry"/>
                </mxCell>
                <mxCell id="69" value="var1" style="text;html=1;strokeColor=none;fillColor=none;align=center;verticalAlign=middle;whiteSpace=wrap;rounded=0;fontSize=40;sketch=1;curveFitting=1;jiggle=2;" parent="1" vertex="1">
                    <mxGeometry x="2402" y="329" width="106" height="43" as="geometry"/>
                </mxCell>
                <mxCell id="77" value="局部优先" style="edgeLabel;html=1;align=center;verticalAlign=middle;resizable=0;points=[];fontSize=25;sketch=1;curveFitting=1;jiggle=2;" parent="1" vertex="1" connectable="0">
                    <mxGeometry x="2806.4954204308124" y="357.0020616434472" as="geometry"/>
                </mxCell>
                <mxCell id="82" value="factorial(5)&lt;br&gt;&lt;span style=&quot;white-space: pre;&quot;&gt;&#9;&lt;/span&gt;5 × factorial(4)" style="text;html=1;strokeColor=none;fillColor=none;align=left;verticalAlign=middle;whiteSpace=wrap;rounded=0;sketch=1;hachureGap=4;jiggle=2;curveFitting=1;fontFamily=Helvetica;fontSize=40;" parent="1" vertex="1">
                    <mxGeometry x="2001.5" y="847" width="352" height="104" as="geometry"/>
                </mxCell>
                <mxCell id="83" value="" style="rounded=0;whiteSpace=wrap;html=1;sketch=1;hachureGap=4;jiggle=2;curveFitting=1;fontFamily=Architects Daughter;fontSource=https%3A%2F%2Ffonts.googleapis.com%2Fcss%3Ffamily%3DArchitects%2BDaughter;fontSize=20;fillColor=none;" vertex="1" parent="1">
                    <mxGeometry x="2155.5" y="902" width="753" height="415" as="geometry"/>
                </mxCell>
                <mxCell id="84" value="factorial(4)&lt;br&gt;&lt;span style=&quot;white-space: pre;&quot;&gt;&#9;&lt;/span&gt;4 × factorial(3)" style="text;html=1;strokeColor=none;fillColor=none;align=left;verticalAlign=middle;whiteSpace=wrap;rounded=0;sketch=1;hachureGap=4;jiggle=2;curveFitting=1;fontFamily=Helvetica;fontSize=40;" vertex="1" parent="1">
                    <mxGeometry x="2158.5" y="895" width="352" height="104" as="geometry"/>
                </mxCell>
                <mxCell id="85" value="" style="rounded=0;whiteSpace=wrap;html=1;sketch=1;hachureGap=4;jiggle=2;curveFitting=1;fontFamily=Architects Daughter;fontSource=https%3A%2F%2Ffonts.googleapis.com%2Fcss%3Ffamily%3DArchitects%2BDaughter;fontSize=20;fillColor=none;" vertex="1" parent="1">
                    <mxGeometry x="2312.5" y="948" width="581" height="315" as="geometry"/>
                </mxCell>
                <mxCell id="86" value="factorial(3)&lt;br&gt;&lt;span style=&quot;white-space: pre;&quot;&gt;&#9;&lt;/span&gt;3 × factorial(2)" style="text;html=1;strokeColor=none;fillColor=none;align=left;verticalAlign=middle;whiteSpace=wrap;rounded=0;sketch=1;hachureGap=4;jiggle=2;curveFitting=1;fontFamily=Helvetica;fontSize=40;" vertex="1" parent="1">
                    <mxGeometry x="2315.5" y="943" width="352" height="104" as="geometry"/>
                </mxCell>
                <mxCell id="87" value="" style="rounded=0;whiteSpace=wrap;html=1;sketch=1;hachureGap=4;jiggle=2;curveFitting=1;fontFamily=Architects Daughter;fontSource=https%3A%2F%2Ffonts.googleapis.com%2Fcss%3Ffamily%3DArchitects%2BDaughter;fontSize=20;fillColor=none;" vertex="1" parent="1">
                    <mxGeometry x="2469.5" y="997" width="413" height="213" as="geometry"/>
                </mxCell>
                <mxCell id="88" value="factorial(2)&lt;br&gt;&lt;span style=&quot;white-space: pre;&quot;&gt;&#9;&lt;/span&gt;2 × factorial(1)" style="text;html=1;strokeColor=none;fillColor=none;align=left;verticalAlign=middle;whiteSpace=wrap;rounded=0;sketch=1;hachureGap=4;jiggle=2;curveFitting=1;fontFamily=Helvetica;fontSize=40;" vertex="1" parent="1">
                    <mxGeometry x="2472.5" y="990" width="349" height="106" as="geometry"/>
                </mxCell>
                <mxCell id="89" value="" style="rounded=0;whiteSpace=wrap;html=1;sketch=1;hachureGap=4;jiggle=2;curveFitting=1;fontFamily=Architects Daughter;fontSource=https%3A%2F%2Ffonts.googleapis.com%2Fcss%3Ffamily%3DArchitects%2BDaughter;fontSize=20;fillColor=none;" vertex="1" parent="1">
                    <mxGeometry x="2625.5" y="1044" width="245" height="96" as="geometry"/>
                </mxCell>
                <mxCell id="90" value="factorial(1)&lt;br&gt;return 1" style="text;html=1;strokeColor=none;fillColor=none;align=left;verticalAlign=middle;whiteSpace=wrap;rounded=0;sketch=1;hachureGap=4;jiggle=2;curveFitting=1;fontFamily=Helvetica;fontSize=40;" vertex="1" parent="1">
                    <mxGeometry x="2628.5" y="1039.5" width="235" height="105" as="geometry"/>
                </mxCell>
                <mxCell id="92" value="return 2" style="text;html=1;strokeColor=none;fillColor=none;align=left;verticalAlign=middle;whiteSpace=wrap;rounded=0;sketch=1;hachureGap=4;jiggle=2;curveFitting=1;fontFamily=Helvetica;fontSize=40;" vertex="1" parent="1">
                    <mxGeometry x="2472.5" y="1155" width="153" height="57" as="geometry"/>
                </mxCell>
                <mxCell id="93" value="return 6" style="text;html=1;strokeColor=none;fillColor=none;align=left;verticalAlign=middle;whiteSpace=wrap;rounded=0;sketch=1;hachureGap=4;jiggle=2;curveFitting=1;fontFamily=Helvetica;fontSize=40;" vertex="1" parent="1">
                    <mxGeometry x="2316.5" y="1210" width="153" height="57" as="geometry"/>
                </mxCell>
                <mxCell id="94" value="return 24" style="text;html=1;strokeColor=none;fillColor=none;align=left;verticalAlign=middle;whiteSpace=wrap;rounded=0;sketch=1;hachureGap=4;jiggle=2;curveFitting=1;fontFamily=Helvetica;fontSize=40;" vertex="1" parent="1">
                    <mxGeometry x="2155.5" y="1263" width="178" height="57" as="geometry"/>
                </mxCell>
                <mxCell id="95" value="return 120" style="text;html=1;strokeColor=none;fillColor=none;align=left;verticalAlign=middle;whiteSpace=wrap;rounded=0;sketch=1;hachureGap=4;jiggle=2;curveFitting=1;fontFamily=Helvetica;fontSize=40;" vertex="1" parent="1">
                    <mxGeometry x="2007.5" y="1317" width="233" height="57" as="geometry"/>
                </mxCell>
            </root>
        </mxGraphModel>
    </diagram>
</mxfile>